<?xml version="1.0" encoding="UTF-8" standalone="no"?>
<svg width="925px" height="73px" viewBox="0 0 925 73" version="1.1" xmlns="http://www.w3.org/2000/svg" xmlns:xlink="http://www.w3.org/1999/xlink">
    <!-- Generator: Sketch 40.1 (33804) - http://www.bohemiancoding.com/sketch -->
    <title>workload</title>
    <desc>Created with Sketch.</desc>
    <defs></defs>
    <g id="Page-1" stroke="none" stroke-width="1" fill="none" fill-rule="evenodd">
        <g id="workload">
            <rect id="Rectangle" fill="#AD04C8" x="0" y="0" width="123.511458" height="75.34375"></rect>
            <rect id="Rectangle-Copy" fill="#FE156A" x="123.511458" y="0" width="185.267188" height="75.34375"></rect>
            <rect id="Rectangle-Copy-2" fill="#484EE4" x="308.778646" y="0" width="123.511458" height="75.34375"></rect>
            <rect id="Rectangle-Copy-3" fill="#23CE08" x="432.290104" y="0" width="494.045833" height="75.34375"></rect>
            <polygon id="1" fill="#FFFFFF" points="10.592 26.224 13.952 26.224 13.952 14.608 14.192 13.192 13.232 14.32 10.592 16.216 9.68 14.992 14.96 10.912 15.824 10.912 15.824 26.224 19.112 26.224 19.112 28 10.592 28"></polygon>
            <path d="M143.704,15.016 C143.704,15.8640042 143.548002,16.7319956 143.236,17.62 C142.923998,18.5080044 142.516003,19.3999955 142.012,20.296 C141.507997,21.1920045 140.944003,22.0679957 140.32,22.924 C139.695997,23.7800043 139.072003,24.5919962 138.448,25.36 L137.272,26.392 L137.272,26.488 L138.808,26.224 L144.04,26.224 L144.04,28 L134.488,28 L134.488,27.304 C134.840002,26.9359982 135.263998,26.4800027 135.76,25.936 C136.256002,25.3919973 136.771997,24.7880033 137.308,24.124 C137.844003,23.4599967 138.371997,22.7560037 138.892,22.012 C139.412003,21.2679963 139.883998,20.5120038 140.308,19.744 C140.732002,18.9759962 141.071999,18.2160038 141.328,17.464 C141.584001,16.7119962 141.712,16.0000034 141.712,15.328 C141.712,14.5439961 141.488002,13.8920026 141.04,13.372 C140.591998,12.8519974 139.912005,12.592 139,12.592 C138.391997,12.592 137.800003,12.7159988 137.224,12.964 C136.647997,13.2120012 136.152002,13.4959984 135.736,13.816 L134.944,12.448 C135.504003,11.9679976 136.167996,11.5920014 136.936,11.32 C137.704004,11.0479986 138.527996,10.912 139.408,10.912 C140.096003,10.912 140.703997,11.011999 141.232,11.212 C141.760003,11.412001 142.207998,11.6959982 142.576,12.064 C142.944002,12.4320018 143.223999,12.8679975 143.416,13.372 C143.608001,13.8760025 143.704,14.423997 143.704,15.016 L143.704,15.016 Z" id="2" fill="#FFFFFF"></path>
            <path d="M322.616,26.608 C323.160003,26.608 323.663998,26.5280008 324.128,26.368 C324.592002,26.2079992 324.991998,25.9720016 325.328,25.66 C325.664002,25.3479984 325.927999,24.9760022 326.12,24.544 C326.312001,24.1119978 326.408,23.6400026 326.408,23.128 C326.408,22.0079944 326.076003,21.1760027 325.412,20.632 C324.747997,20.0879973 323.832006,19.816 322.664,19.816 L320.888,19.816 L320.888,19.12 L324.344,13.792 L325.448,12.736 L323.888,12.976 L319.136,12.976 L319.136,11.2 L327.704,11.2 L327.704,11.896 L323.888,17.632 L323.048,18.328 L323.048,18.376 L323.864,18.208 C324.504003,18.2240001 325.095997,18.3399989 325.64,18.556 C326.184003,18.7720011 326.655998,19.083998 327.056,19.492 C327.456002,19.900002 327.767999,20.3879972 327.992,20.956 C328.216001,21.5240028 328.328,22.1679964 328.328,22.888 C328.328,23.7520043 328.176002,24.5199966 327.872,25.192 C327.567998,25.8640034 327.156003,26.4279977 326.636,26.884 C326.115997,27.3400023 325.504004,27.6879988 324.8,27.928 C324.095996,28.1680012 323.352004,28.288 322.568,28.288 C321.847996,28.288 321.200003,28.2320006 320.624,28.12 C320.047997,28.0079994 319.544002,27.8640009 319.112,27.688 L319.616,25.984 C319.984002,26.1600009 320.419997,26.3079994 320.924,26.428 C321.428003,26.5480006 321.991997,26.608 322.616,26.608 L322.616,26.608 Z" id="3" fill="#FFFFFF"></path>
            <path d="M456.576,22.84 L453.744,22.84 L453.744,28 L451.872,28 L451.872,22.84 L444.48,22.84 L444.48,22.048 L452.448,10.936 L453.744,10.936 L453.744,21.16 L456.576,21.16 L456.576,22.84 Z M451.872,15.928 L452.112,13.96 L452.04,13.96 L451.2,15.592 L447.816,20.176 L446.664,21.352 L448.344,21.16 L451.872,21.16 L451.872,15.928 Z" id="4" fill="#FFFFFF"></path>
        </g>
    </g>
</svg>