<svg width="758" height="512" viewBox="0 0 758 512" version="1.1" xmlns="http://www.w3.org/2000/svg" xmlns:xlink="http://www.w3.org/1999/xlink" xmlns:figma="http://www.figma.com/figma/ns">
<title>MI Master</title>
<desc>Created using Figma</desc>
<g id="Canvas" transform="translate(444 735)" figma:type="canvas">
<mask id="mask0_alpha" mask-type="alpha">
<path d="M -444 -735L 314 -735L 314 -223L -444 -223L -444 -735Z" fill="#FFFFFF"/>
</mask>
<g id="MI Master" style="mix-blend-mode:normal;" mask="url(#mask0_alpha)" figma:type="frame">
<path d="M -444 -735L 314 -735L 314 -223L -444 -223L -444 -735Z" fill="#FFFFFF"/>
<g id="Semester" style="mix-blend-mode:normal;" figma:type="frame">
<g id="Semester" style="mix-blend-mode:normal;" figma:type="symbol">
<g id="1. Fachsemester" style="mix-blend-mode:normal;" figma:type="text">
<use xlink:href="#path0_fill" transform="translate(-443.5 -358)" style="mix-blend-mode:normal;"/>
</g>
<g id="Line" style="mix-blend-mode:normal;" figma:type="line">
<use xlink:href="#path1_stroke" transform="translate(-444 -362)" fill="#E0E0E0" style="mix-blend-mode:normal;"/>
</g>
</g>
<g id="Semester" style="mix-blend-mode:normal;" figma:type="instance">
<g id="2. Fachsemester" style="mix-blend-mode:normal;" figma:type="text">
<use xlink:href="#path2_fill" transform="translate(-443.5 -519)" style="mix-blend-mode:normal;"/>
</g>
<g id="Line" style="mix-blend-mode:normal;" figma:type="line">
<use xlink:href="#path1_stroke" transform="translate(-444 -523)" fill="#E0E0E0" style="mix-blend-mode:normal;"/>
</g>
</g>
<g id="Semester" style="mix-blend-mode:normal;" figma:type="instance">
<g id="3. Fachsemester" style="mix-blend-mode:normal;" figma:type="text">
<use xlink:href="#path3_fill" transform="translate(-443.5 -678)" style="mix-blend-mode:normal;"/>
</g>
<g id="Line" style="mix-blend-mode:normal;" figma:type="line">
<use xlink:href="#path1_stroke" transform="translate(-444 -682)" fill="#E0E0E0" style="mix-blend-mode:normal;"/>
</g>
</g>
<g id="Semester" style="mix-blend-mode:normal;" figma:type="instance">
<g id="4. Fachsemester" style="mix-blend-mode:normal;" figma:type="text">
<use xlink:href="#path4_fill" transform="translate(-443.5 -728)" style="mix-blend-mode:normal;"/>
</g>
<g id="Line" style="mix-blend-mode:normal;" figma:type="line">
<use xlink:href="#path1_stroke" transform="translate(-444 -732)" fill="#E0E0E0" style="mix-blend-mode:normal;"/>
</g>
</g>
</g>
<g id="Spezialisierung" style="mix-blend-mode:normal;" figma:type="symbol">
<g id="Rectangle 3" style="mix-blend-mode:normal;" figma:type="rounded-rectangle">
<use xlink:href="#path5_fill" transform="translate(-286 -683)" fill="#4F4F4F" style="mix-blend-mode:normal;"/>
</g>
<g id="Leitfrage" style="mix-blend-mode:normal;" figma:type="text">
<use xlink:href="#path6_fill" transform="translate(-76 -624)" fill="#FFFFFF" style="mix-blend-mode:normal;"/>
</g>
</g>
<g id="Vertiefung" style="mix-blend-mode:normal;" figma:type="symbol">
<g id="Rectangle 3" style="mix-blend-mode:normal;" figma:type="rounded-rectangle">
<use xlink:href="#path5_fill" transform="translate(-286 -523)" fill="#4F4F4F" fill-opacity="0.8" style="mix-blend-mode:normal;"/>
</g>
<g id="Leitfrage" style="mix-blend-mode:normal;" figma:type="text">
<use xlink:href="#path7_fill" transform="translate(-49 -464)" fill="#FFFFFF" style="mix-blend-mode:normal;"/>
</g>
</g>
<g id="Grundlagen" style="mix-blend-mode:normal;" figma:type="symbol">
<g id="Rectangle 3" style="mix-blend-mode:normal;" figma:type="rounded-rectangle">
<use xlink:href="#path5_fill" transform="translate(-286 -363)" fill="#4F4F4F" fill-opacity="0.5" style="mix-blend-mode:normal;"/>
</g>
<g id="Leitfrage" style="mix-blend-mode:normal;" figma:type="text">
<use xlink:href="#path8_fill" transform="translate(-57 -305)" fill="#FFFFFF" style="mix-blend-mode:normal;"/>
</g>
</g>
<g id="Masterthesis" style="mix-blend-mode:normal;" figma:type="frame">
<g id="Rectangle 3" style="mix-blend-mode:normal;" figma:type="rounded-rectangle">
<use xlink:href="#path9_fill" transform="translate(-286 -733)" fill="#333333" style="mix-blend-mode:normal;"/>
</g>
<g id="Masterthesis" style="mix-blend-mode:normal;" figma:type="text">
<use xlink:href="#path10_fill" transform="translate(-76 -725)" fill="#FFFFFF" style="mix-blend-mode:normal;"/>
</g>
</g>
</g>
</g>
<defs>
<path id="path0_fill" d="M 2.832 9L 3.852 9L 3.852 1.2L 2.952 1.2L 1.248 2.112L 1.452 2.916L 2.808 2.184L 2.832 2.184L 2.832 9ZM 7.48434 9.132C 7.92834 9.132 8.20434 8.808 8.20434 8.376C 8.20434 7.932 7.91634 7.62 7.49634 7.62C 7.07634 7.62 6.77634 7.932 6.77634 8.376C 6.77634 8.808 7.06434 9.132 7.47234 9.132L 7.48434 9.132ZM 12.0917 9L 13.1357 9L 13.1357 5.34L 16.1957 5.34L 16.1957 4.476L 13.1357 4.476L 13.1357 1.788L 16.4477 1.788L 16.4477 0.912L 12.0917 0.912L 12.0917 9ZM 21.4443 5.436C 21.4443 4.272 21.0123 3.06 19.2363 3.06C 18.5043 3.06 17.8083 3.264 17.3283 3.576L 17.5683 4.272C 17.9763 4.008 18.5403 3.84 19.0803 3.84C 20.2683 3.84 20.4003 4.704 20.4003 5.184L 20.4003 5.304C 18.1563 5.292 16.9083 6.06 16.9083 7.464C 16.9083 8.304 17.5083 9.132 18.6843 9.132C 19.5123 9.132 20.1363 8.724 20.4603 8.268L 20.4963 8.268L 20.5803 9L 21.5403 9C 21.4683 8.604 21.4443 8.112 21.4443 7.608L 21.4443 5.436ZM 20.4243 7.044C 20.4243 7.152 20.4003 7.272 20.3643 7.38C 20.1963 7.872 19.7163 8.352 18.9603 8.352C 18.4203 8.352 17.9643 8.028 17.9643 7.344C 17.9643 6.216 19.2723 6.012 20.4243 6.036L 20.4243 7.044ZM 27.1133 7.992C 26.8133 8.124 26.4173 8.28 25.8173 8.28C 24.6653 8.28 23.8013 7.452 23.8013 6.108C 23.8013 4.896 24.5213 3.912 25.8533 3.912C 26.4293 3.912 26.8253 4.044 27.0773 4.188L 27.3173 3.372C 27.0293 3.228 26.4773 3.072 25.8533 3.072C 23.9573 3.072 22.7333 4.368 22.7333 6.156C 22.7333 7.932 23.8733 9.132 25.6253 9.132C 26.4053 9.132 27.0173 8.928 27.2933 8.784L 27.1133 7.992ZM 28.5322 9L 29.5882 9L 29.5882 5.496C 29.5882 5.292 29.6003 5.136 29.6602 4.992C 29.8522 4.416 30.3923 3.936 31.0762 3.936C 32.0723 3.936 32.4203 4.728 32.4203 5.664L 32.4203 9L 33.4763 9L 33.4763 5.544C 33.4763 3.54 32.2283 3.06 31.4483 3.06C 31.0522 3.06 30.6803 3.18 30.3682 3.36C 30.0443 3.54 29.7803 3.804 29.6123 4.104L 29.5882 4.104L 29.5882 0.48L 28.5322 0.48L 28.5322 9ZM 34.7805 8.724C 35.1885 8.964 35.7765 9.132 36.4125 9.132C 37.7925 9.132 38.5845 8.4 38.5845 7.38C 38.5845 6.516 38.0685 6.012 37.0605 5.628C 36.3045 5.34 35.9565 5.124 35.9565 4.644C 35.9565 4.212 36.3045 3.852 36.9285 3.852C 37.4685 3.852 37.8885 4.044 38.1165 4.188L 38.3805 3.42C 38.0565 3.228 37.5405 3.06 36.9525 3.06C 35.7045 3.06 34.9485 3.828 34.9485 4.764C 34.9485 5.46 35.4405 6.036 36.4845 6.408C 37.2645 6.696 37.5645 6.972 37.5645 7.476C 37.5645 7.956 37.2045 8.34 36.4365 8.34C 35.9085 8.34 35.3565 8.124 35.0445 7.92L 34.7805 8.724ZM 44.6143 6.288C 44.6263 6.18 44.6503 6.012 44.6503 5.796C 44.6503 4.728 44.1463 3.06 42.2503 3.06C 40.5583 3.06 39.5263 4.44 39.5263 6.192C 39.5263 7.944 40.5943 9.132 42.3823 9.132C 43.3063 9.132 43.9423 8.928 44.3143 8.76L 44.1343 8.004C 43.7383 8.172 43.2823 8.304 42.5263 8.304C 41.4703 8.304 40.5583 7.716 40.5343 6.288L 44.6143 6.288ZM 40.5463 5.532C 40.6303 4.8 41.0983 3.816 42.1663 3.816C 43.3543 3.816 43.6423 4.86 43.6303 5.532L 40.5463 5.532ZM 45.958 9L 46.99 9L 46.99 5.496C 46.99 5.316 47.014 5.136 47.074 4.98C 47.242 4.452 47.722 3.924 48.382 3.924C 49.186 3.924 49.594 4.596 49.594 5.52L 49.594 9L 50.626 9L 50.626 5.412C 50.626 5.22 50.662 5.028 50.71 4.884C 50.89 4.368 51.358 3.924 51.958 3.924C 52.81 3.924 53.218 4.596 53.218 5.712L 53.218 9L 54.25 9L 54.25 5.58C 54.25 3.564 53.11 3.06 52.342 3.06C 51.79 3.06 51.406 3.204 51.058 3.468C 50.818 3.648 50.59 3.9 50.41 4.224L 50.386 4.224C 50.134 3.54 49.534 3.06 48.742 3.06C 47.782 3.06 47.242 3.576 46.918 4.128L 46.882 4.128L 46.834 3.192L 45.91 3.192C 45.946 3.672 45.958 4.164 45.958 4.764L 45.958 9ZM 60.6338 6.288C 60.6458 6.18 60.6698 6.012 60.6698 5.796C 60.6698 4.728 60.1658 3.06 58.2698 3.06C 56.5778 3.06 55.5458 4.44 55.5458 6.192C 55.5458 7.944 56.6138 9.132 58.4018 9.132C 59.3258 9.132 59.9618 8.928 60.3338 8.76L 60.1538 8.004C 59.7578 8.172 59.3018 8.304 58.5458 8.304C 57.4898 8.304 56.5778 7.716 56.5538 6.288L 60.6338 6.288ZM 56.5658 5.532C 56.6498 4.8 57.1178 3.816 58.1858 3.816C 59.3738 3.816 59.6618 4.86 59.6498 5.532L 56.5658 5.532ZM 61.5696 8.724C 61.9776 8.964 62.5656 9.132 63.2016 9.132C 64.5816 9.132 65.3736 8.4 65.3736 7.38C 65.3736 6.516 64.8576 6.012 63.8496 5.628C 63.0936 5.34 62.7456 5.124 62.7456 4.644C 62.7456 4.212 63.0936 3.852 63.7176 3.852C 64.2576 3.852 64.6776 4.044 64.9056 4.188L 65.1696 3.42C 64.8456 3.228 64.3296 3.06 63.7416 3.06C 62.4936 3.06 61.7376 3.828 61.7376 4.764C 61.7376 5.46 62.2296 6.036 63.2736 6.408C 64.0536 6.696 64.3536 6.972 64.3536 7.476C 64.3536 7.956 63.9936 8.34 63.2256 8.34C 62.6976 8.34 62.1456 8.124 61.8336 7.92L 61.5696 8.724ZM 66.9754 2.124L 66.9754 3.192L 66.0754 3.192L 66.0754 3.996L 66.9754 3.996L 66.9754 7.164C 66.9754 7.848 67.0834 8.364 67.3834 8.676C 67.6354 8.964 68.0314 9.132 68.5234 9.132C 68.9314 9.132 69.2554 9.06 69.4594 8.976L 69.4114 8.184C 69.2554 8.232 69.0874 8.256 68.7994 8.256C 68.2114 8.256 68.0074 7.848 68.0074 7.128L 68.0074 3.996L 69.5194 3.996L 69.5194 3.192L 68.0074 3.192L 68.0074 1.8L 66.9754 2.124ZM 75.3057 6.288C 75.3177 6.18 75.3417 6.012 75.3417 5.796C 75.3417 4.728 74.8377 3.06 72.9417 3.06C 71.2497 3.06 70.2177 4.44 70.2177 6.192C 70.2177 7.944 71.2857 9.132 73.0737 9.132C 73.9977 9.132 74.6337 8.928 75.0057 8.76L 74.8257 8.004C 74.4297 8.172 73.9737 8.304 73.2177 8.304C 72.1617 8.304 71.2497 7.716 71.2257 6.288L 75.3057 6.288ZM 71.2377 5.532C 71.3217 4.8 71.7897 3.816 72.8577 3.816C 74.0457 3.816 74.3337 4.86 74.3217 5.532L 71.2377 5.532ZM 76.6494 9L 77.6934 9L 77.6934 5.904C 77.6934 5.724 77.7174 5.556 77.7414 5.412C 77.8854 4.62 78.4134 4.056 79.1574 4.056C 79.3014 4.056 79.4094 4.068 79.5174 4.092L 79.5174 3.096C 79.4214 3.072 79.3374 3.06 79.2174 3.06C 78.5094 3.06 77.8734 3.552 77.6094 4.332L 77.5614 4.332L 77.5254 3.192L 76.6014 3.192C 76.6374 3.732 76.6494 4.32 76.6494 5.004L 76.6494 9Z"/>
<path id="path1_stroke" d="M 0 0L 1302 0L 1302 -1L 0 -1L 0 0Z"/>
<path id="path2_fill" d="M 5.52 9L 5.52 8.124L 2.028 8.124L 2.028 8.1L 2.64 7.524C 4.284 5.94 5.328 4.776 5.328 3.336C 5.328 2.22 4.62 1.068 2.952 1.068C 2.052 1.068 1.272 1.416 0.744 1.86L 1.08 2.604C 1.44 2.304 2.028 1.944 2.736 1.944C 3.9 1.944 4.272 2.676 4.272 3.468C 4.272 4.644 3.36 5.652 1.368 7.548L 0.54 8.352L 0.54 9L 5.52 9ZM 7.48434 9.132C 7.91634 9.132 8.20434 8.808 8.20434 8.376C 8.20434 7.932 7.91634 7.62 7.49634 7.62C 7.07634 7.62 6.77634 7.944 6.77634 8.376C 6.77634 8.808 7.06434 9.132 7.47234 9.132L 7.48434 9.132ZM 12.0797 9L 13.1357 9L 13.1357 5.34L 16.1837 5.34L 16.1837 4.476L 13.1357 4.476L 13.1357 1.788L 16.4357 1.788L 16.4357 0.912L 12.0797 0.912L 12.0797 9ZM 21.4563 5.436C 21.4563 4.272 21.0243 3.06 19.2363 3.06C 18.5043 3.06 17.7963 3.264 17.3163 3.564L 17.5563 4.272C 17.9643 3.996 18.5283 3.84 19.0803 3.84C 20.2683 3.828 20.4003 4.704 20.4003 5.184L 20.4003 5.304C 18.1563 5.292 16.9083 6.06 16.9083 7.464C 16.9083 8.304 17.5083 9.132 18.6843 9.132C 19.5123 9.132 20.1483 8.724 20.4603 8.268L 20.4963 8.268L 20.5923 9L 21.5403 9C 21.4803 8.604 21.4563 8.112 21.4563 7.608L 21.4563 5.436ZM 20.4243 7.044C 20.4243 7.152 20.4123 7.272 20.3763 7.38C 20.2083 7.872 19.7163 8.352 18.9483 8.352C 18.4203 8.352 17.9643 8.04 17.9643 7.344C 17.9643 6.216 19.2723 6.012 20.4243 6.036L 20.4243 7.044ZM 27.1133 7.992C 26.8133 8.124 26.4173 8.268 25.8173 8.268C 24.6653 8.268 23.8013 7.44 23.8013 6.096C 23.8013 4.896 24.5213 3.9 25.8533 3.9C 26.4293 3.9 26.8253 4.044 27.0773 4.176L 27.3173 3.372C 27.0293 3.216 26.4773 3.06 25.8533 3.06C 23.9573 3.06 22.7333 4.368 22.7333 6.156C 22.7333 7.932 23.8733 9.12 25.6253 9.12C 26.4053 9.12 27.0173 8.916 27.2933 8.784L 27.1133 7.992ZM 28.5323 9L 29.5882 9L 29.5882 5.496C 29.5882 5.292 29.6003 5.136 29.6603 4.992C 29.8643 4.416 30.3923 3.936 31.0763 3.936C 32.0723 3.936 32.4203 4.716 32.4203 5.652L 32.4203 9L 33.4763 9L 33.4763 5.544C 33.4763 3.54 32.2283 3.06 31.4483 3.06C 31.0523 3.06 30.6803 3.168 30.3682 3.36C 30.0442 3.528 29.7802 3.804 29.6122 4.104L 29.5882 4.104L 29.5882 0.48L 28.5323 0.48L 28.5323 9ZM 34.7925 8.712C 35.2005 8.952 35.7885 9.12 36.4245 9.12C 37.7805 9.12 38.5845 8.4 38.5845 7.368C 38.5845 6.504 38.0565 6 37.0605 5.628C 36.3045 5.328 35.9685 5.112 35.9685 4.632C 35.9685 4.2 36.3045 3.84 36.9285 3.84C 37.4685 3.84 37.8885 4.044 38.1165 4.176L 38.3685 3.42C 38.0565 3.216 37.5405 3.06 36.9525 3.06C 35.7165 3.06 34.9485 3.828 34.9485 4.764C 34.9485 5.448 35.4405 6.024 36.4965 6.408C 37.2645 6.696 37.5645 6.96 37.5645 7.464C 37.5645 7.956 37.2045 8.328 36.4485 8.328C 35.9205 8.328 35.3685 8.112 35.0445 7.92L 34.7925 8.712ZM 44.6143 6.288C 44.6383 6.168 44.6503 6.012 44.6503 5.796C 44.6503 4.728 44.1583 3.06 42.2623 3.06C 40.5703 3.06 39.5263 4.44 39.5263 6.192C 39.5263 7.932 40.6063 9.12 42.3823 9.12C 43.3063 9.12 43.9543 8.916 44.3263 8.748L 44.1343 7.992C 43.7503 8.16 43.2823 8.292 42.5263 8.292C 41.4703 8.292 40.5703 7.704 40.5463 6.288L 44.6143 6.288ZM 40.5583 5.532C 40.6423 4.8 41.0983 3.816 42.1783 3.816C 43.3543 3.816 43.6423 4.86 43.6303 5.532L 40.5583 5.532ZM 45.958 9L 46.99 9L 46.99 5.496C 46.99 5.316 47.014 5.136 47.074 4.98C 47.242 4.452 47.734 3.924 48.382 3.924C 49.186 3.924 49.594 4.584 49.594 5.508L 49.594 9L 50.626 9L 50.626 5.4C 50.626 5.22 50.662 5.028 50.71 4.872C 50.902 4.368 51.358 3.924 51.97 3.924C 52.81 3.924 53.23 4.584 53.23 5.712L 53.23 9L 54.262 9L 54.262 5.58C 54.262 3.564 53.122 3.06 52.342 3.06C 51.79 3.06 51.418 3.204 51.07 3.468C 50.83 3.648 50.59 3.888 50.41 4.224L 50.386 4.224C 50.134 3.54 49.534 3.06 48.754 3.06C 47.782 3.06 47.242 3.576 46.918 4.128L 46.882 4.128L 46.834 3.192L 45.91 3.192C 45.934 3.672 45.958 4.152 45.958 4.764L 45.958 9ZM 60.6338 6.288C 60.6578 6.168 60.6698 6.012 60.6698 5.796C 60.6698 4.728 60.1778 3.06 58.2818 3.06C 56.5898 3.06 55.5458 4.44 55.5458 6.192C 55.5458 7.932 56.6258 9.12 58.4018 9.12C 59.3258 9.12 59.9738 8.916 60.3458 8.748L 60.1538 7.992C 59.7698 8.16 59.3018 8.292 58.5458 8.292C 57.4898 8.292 56.5898 7.704 56.5658 6.288L 60.6338 6.288ZM 56.5778 5.532C 56.6618 4.8 57.1178 3.816 58.1978 3.816C 59.3738 3.816 59.6618 4.86 59.6498 5.532L 56.5778 5.532ZM 61.5816 8.712C 61.9896 8.952 62.5776 9.12 63.2136 9.12C 64.5696 9.12 65.3736 8.4 65.3736 7.368C 65.3736 6.504 64.8456 6 63.8496 5.628C 63.0936 5.328 62.7576 5.112 62.7576 4.632C 62.7576 4.2 63.0936 3.84 63.7176 3.84C 64.2576 3.84 64.6776 4.044 64.9056 4.176L 65.1576 3.42C 64.8456 3.216 64.3296 3.06 63.7416 3.06C 62.5056 3.06 61.7376 3.828 61.7376 4.764C 61.7376 5.448 62.2296 6.024 63.2856 6.408C 64.0536 6.696 64.3536 6.96 64.3536 7.464C 64.3536 7.956 63.9936 8.328 63.2376 8.328C 62.7096 8.328 62.1576 8.112 61.8336 7.92L 61.5816 8.712ZM 66.9754 2.124L 66.9754 3.192L 66.0754 3.192L 66.0754 3.996L 66.9754 3.996L 66.9754 7.152C 66.9754 7.836 67.0954 8.352 67.3834 8.676C 67.6354 8.952 68.0314 9.12 68.5234 9.12C 68.9314 9.12 69.2554 9.048 69.4594 8.976L 69.4114 8.172C 69.2554 8.22 69.0874 8.244 68.7994 8.244C 68.2114 8.244 68.0074 7.836 68.0074 7.116L 68.0074 3.996L 69.5194 3.996L 69.5194 3.192L 68.0074 3.192L 68.0074 1.8L 66.9754 2.124ZM 75.3057 6.288C 75.3297 6.168 75.3417 6.012 75.3417 5.796C 75.3417 4.728 74.8497 3.06 72.9537 3.06C 71.2617 3.06 70.2177 4.44 70.2177 6.192C 70.2177 7.932 71.2977 9.12 73.0737 9.12C 73.9977 9.12 74.6457 8.916 75.0177 8.748L 74.8257 7.992C 74.4417 8.16 73.9737 8.292 73.2177 8.292C 72.1617 8.292 71.2617 7.704 71.2377 6.288L 75.3057 6.288ZM 71.2497 5.532C 71.3337 4.8 71.7897 3.816 72.8697 3.816C 74.0457 3.816 74.3337 4.86 74.3217 5.532L 71.2497 5.532ZM 76.6494 9L 77.7054 9L 77.7054 5.892C 77.7054 5.724 77.7174 5.556 77.7414 5.4C 77.8854 4.62 78.4134 4.056 79.1574 4.056C 79.3014 4.056 79.4094 4.068 79.5174 4.08L 79.5174 3.084C 79.4214 3.072 79.3374 3.06 79.2294 3.06C 78.5214 3.06 77.8734 3.552 77.6094 4.332L 77.5734 4.332L 77.5254 3.192L 76.6014 3.192C 76.6374 3.732 76.6494 4.32 76.6494 5.004L 76.6494 9Z"/>
<path id="path3_fill" d="M 0.504 8.604C 0.888 8.856 1.656 9.132 2.532 9.132C 4.392 9.132 5.376 8.04 5.376 6.792C 5.376 5.7 4.596 4.98 3.636 4.8L 3.636 4.776C 4.584 4.428 5.076 3.744 5.076 2.928C 5.076 1.98 4.38 1.068 2.844 1.068C 2.004 1.068 1.212 1.368 0.792 1.668L 1.08 2.436C 1.416 2.196 2.016 1.92 2.64 1.92C 3.612 1.92 4.008 2.472 4.008 3.096C 4.008 4.02 3.036 4.416 2.268 4.416L 1.68 4.416L 1.68 5.208L 2.268 5.208C 3.288 5.208 4.272 5.676 4.284 6.768C 4.296 7.428 3.864 8.28 2.52 8.28C 1.776 8.28 1.092 7.98 0.792 7.8L 0.504 8.604ZM 7.48434 9.132C 7.91634 9.132 8.20434 8.808 8.20434 8.376C 8.20434 7.932 7.91634 7.62 7.49634 7.62C 7.07634 7.62 6.77634 7.944 6.77634 8.376C 6.77634 8.808 7.06434 9.132 7.47234 9.132L 7.48434 9.132ZM 12.0797 9L 13.1357 9L 13.1357 5.34L 16.1837 5.34L 16.1837 4.476L 13.1357 4.476L 13.1357 1.788L 16.4357 1.788L 16.4357 0.912L 12.0797 0.912L 12.0797 9ZM 21.4563 5.436C 21.4563 4.272 21.0243 3.06 19.2363 3.06C 18.5043 3.06 17.7963 3.264 17.3163 3.564L 17.5563 4.272C 17.9643 3.996 18.5283 3.84 19.0803 3.84C 20.2683 3.828 20.4003 4.704 20.4003 5.184L 20.4003 5.304C 18.1563 5.292 16.9083 6.06 16.9083 7.464C 16.9083 8.304 17.5083 9.132 18.6843 9.132C 19.5123 9.132 20.1483 8.724 20.4603 8.268L 20.4963 8.268L 20.5923 9L 21.5403 9C 21.4803 8.604 21.4563 8.112 21.4563 7.608L 21.4563 5.436ZM 20.4243 7.044C 20.4243 7.152 20.4123 7.272 20.3763 7.38C 20.2083 7.872 19.7163 8.352 18.9483 8.352C 18.4203 8.352 17.9643 8.04 17.9643 7.344C 17.9643 6.216 19.2723 6.012 20.4243 6.036L 20.4243 7.044ZM 27.1133 7.992C 26.8133 8.124 26.4173 8.268 25.8173 8.268C 24.6653 8.268 23.8013 7.44 23.8013 6.096C 23.8013 4.896 24.5213 3.9 25.8533 3.9C 26.4293 3.9 26.8253 4.044 27.0773 4.176L 27.3173 3.372C 27.0293 3.216 26.4773 3.06 25.8533 3.06C 23.9573 3.06 22.7333 4.368 22.7333 6.156C 22.7333 7.932 23.8733 9.12 25.6253 9.12C 26.4053 9.12 27.0173 8.916 27.2933 8.784L 27.1133 7.992ZM 28.5323 9L 29.5882 9L 29.5882 5.496C 29.5882 5.292 29.6003 5.136 29.6603 4.992C 29.8643 4.416 30.3923 3.936 31.0763 3.936C 32.0723 3.936 32.4203 4.716 32.4203 5.652L 32.4203 9L 33.4763 9L 33.4763 5.544C 33.4763 3.54 32.2283 3.06 31.4483 3.06C 31.0523 3.06 30.6803 3.168 30.3682 3.36C 30.0442 3.528 29.7802 3.804 29.6122 4.104L 29.5882 4.104L 29.5882 0.48L 28.5323 0.48L 28.5323 9ZM 34.7925 8.712C 35.2005 8.952 35.7885 9.12 36.4245 9.12C 37.7805 9.12 38.5845 8.4 38.5845 7.368C 38.5845 6.504 38.0565 6 37.0605 5.628C 36.3045 5.328 35.9685 5.112 35.9685 4.632C 35.9685 4.2 36.3045 3.84 36.9285 3.84C 37.4685 3.84 37.8885 4.044 38.1165 4.176L 38.3685 3.42C 38.0565 3.216 37.5405 3.06 36.9525 3.06C 35.7165 3.06 34.9485 3.828 34.9485 4.764C 34.9485 5.448 35.4405 6.024 36.4965 6.408C 37.2645 6.696 37.5645 6.96 37.5645 7.464C 37.5645 7.956 37.2045 8.328 36.4485 8.328C 35.9205 8.328 35.3685 8.112 35.0445 7.92L 34.7925 8.712ZM 44.6143 6.288C 44.6383 6.168 44.6503 6.012 44.6503 5.796C 44.6503 4.728 44.1583 3.06 42.2623 3.06C 40.5703 3.06 39.5263 4.44 39.5263 6.192C 39.5263 7.932 40.6063 9.12 42.3823 9.12C 43.3063 9.12 43.9543 8.916 44.3263 8.748L 44.1343 7.992C 43.7503 8.16 43.2823 8.292 42.5263 8.292C 41.4703 8.292 40.5703 7.704 40.5463 6.288L 44.6143 6.288ZM 40.5583 5.532C 40.6423 4.8 41.0983 3.816 42.1783 3.816C 43.3543 3.816 43.6423 4.86 43.6303 5.532L 40.5583 5.532ZM 45.958 9L 46.99 9L 46.99 5.496C 46.99 5.316 47.014 5.136 47.074 4.98C 47.242 4.452 47.734 3.924 48.382 3.924C 49.186 3.924 49.594 4.584 49.594 5.508L 49.594 9L 50.626 9L 50.626 5.4C 50.626 5.22 50.662 5.028 50.71 4.872C 50.902 4.368 51.358 3.924 51.97 3.924C 52.81 3.924 53.23 4.584 53.23 5.712L 53.23 9L 54.262 9L 54.262 5.58C 54.262 3.564 53.122 3.06 52.342 3.06C 51.79 3.06 51.418 3.204 51.07 3.468C 50.83 3.648 50.59 3.888 50.41 4.224L 50.386 4.224C 50.134 3.54 49.534 3.06 48.754 3.06C 47.782 3.06 47.242 3.576 46.918 4.128L 46.882 4.128L 46.834 3.192L 45.91 3.192C 45.934 3.672 45.958 4.152 45.958 4.764L 45.958 9ZM 60.6338 6.288C 60.6578 6.168 60.6698 6.012 60.6698 5.796C 60.6698 4.728 60.1778 3.06 58.2818 3.06C 56.5898 3.06 55.5458 4.44 55.5458 6.192C 55.5458 7.932 56.6258 9.12 58.4018 9.12C 59.3258 9.12 59.9738 8.916 60.3458 8.748L 60.1538 7.992C 59.7698 8.16 59.3018 8.292 58.5458 8.292C 57.4898 8.292 56.5898 7.704 56.5658 6.288L 60.6338 6.288ZM 56.5778 5.532C 56.6618 4.8 57.1178 3.816 58.1978 3.816C 59.3738 3.816 59.6618 4.86 59.6498 5.532L 56.5778 5.532ZM 61.5816 8.712C 61.9896 8.952 62.5776 9.12 63.2136 9.12C 64.5696 9.12 65.3736 8.4 65.3736 7.368C 65.3736 6.504 64.8456 6 63.8496 5.628C 63.0936 5.328 62.7576 5.112 62.7576 4.632C 62.7576 4.2 63.0936 3.84 63.7176 3.84C 64.2576 3.84 64.6776 4.044 64.9056 4.176L 65.1576 3.42C 64.8456 3.216 64.3296 3.06 63.7416 3.06C 62.5056 3.06 61.7376 3.828 61.7376 4.764C 61.7376 5.448 62.2296 6.024 63.2856 6.408C 64.0536 6.696 64.3536 6.96 64.3536 7.464C 64.3536 7.956 63.9936 8.328 63.2376 8.328C 62.7096 8.328 62.1576 8.112 61.8336 7.92L 61.5816 8.712ZM 66.9754 2.124L 66.9754 3.192L 66.0754 3.192L 66.0754 3.996L 66.9754 3.996L 66.9754 7.152C 66.9754 7.836 67.0954 8.352 67.3834 8.676C 67.6354 8.952 68.0314 9.12 68.5234 9.12C 68.9314 9.12 69.2554 9.048 69.4594 8.976L 69.4114 8.172C 69.2554 8.22 69.0874 8.244 68.7994 8.244C 68.2114 8.244 68.0074 7.836 68.0074 7.116L 68.0074 3.996L 69.5194 3.996L 69.5194 3.192L 68.0074 3.192L 68.0074 1.8L 66.9754 2.124ZM 75.3057 6.288C 75.3297 6.168 75.3417 6.012 75.3417 5.796C 75.3417 4.728 74.8497 3.06 72.9537 3.06C 71.2617 3.06 70.2177 4.44 70.2177 6.192C 70.2177 7.932 71.2977 9.12 73.0737 9.12C 73.9977 9.12 74.6457 8.916 75.0177 8.748L 74.8257 7.992C 74.4417 8.16 73.9737 8.292 73.2177 8.292C 72.1617 8.292 71.2617 7.704 71.2377 6.288L 75.3057 6.288ZM 71.2497 5.532C 71.3337 4.8 71.7897 3.816 72.8697 3.816C 74.0457 3.816 74.3337 4.86 74.3217 5.532L 71.2497 5.532ZM 76.6494 9L 77.7054 9L 77.7054 5.892C 77.7054 5.724 77.7174 5.556 77.7414 5.4C 77.8854 4.62 78.4134 4.056 79.1574 4.056C 79.3014 4.056 79.4094 4.068 79.5174 4.08L 79.5174 3.084C 79.4214 3.072 79.3374 3.06 79.2294 3.06C 78.5214 3.06 77.8734 3.552 77.6094 4.332L 77.5734 4.332L 77.5254 3.192L 76.6014 3.192C 76.6374 3.732 76.6494 4.32 76.6494 5.004L 76.6494 9Z"/>
<path id="path4_fill" d="M 4.8 9L 4.8 6.864L 5.892 6.864L 5.892 6.048L 4.8 6.048L 4.8 1.2L 3.66 1.2L 0.18 6.18L 0.18 6.864L 3.804 6.864L 3.804 9L 4.8 9ZM 1.248 6.048L 1.248 6.024L 3.156 3.372C 3.372 3.012 3.564 2.676 3.804 2.22L 3.84 2.22C 3.816 2.628 3.804 3.036 3.804 3.444L 3.804 6.048L 1.248 6.048ZM 7.48434 9.132C 7.91634 9.132 8.20434 8.808 8.20434 8.376C 8.20434 7.932 7.91634 7.62 7.49634 7.62C 7.07634 7.62 6.77634 7.944 6.77634 8.376C 6.77634 8.808 7.06434 9.132 7.47234 9.132L 7.48434 9.132ZM 12.0797 9L 13.1357 9L 13.1357 5.34L 16.1837 5.34L 16.1837 4.476L 13.1357 4.476L 13.1357 1.788L 16.4357 1.788L 16.4357 0.912L 12.0797 0.912L 12.0797 9ZM 21.4563 5.436C 21.4563 4.272 21.0243 3.06 19.2363 3.06C 18.5043 3.06 17.7963 3.264 17.3163 3.564L 17.5563 4.272C 17.9643 3.996 18.5283 3.84 19.0803 3.84C 20.2683 3.828 20.4003 4.704 20.4003 5.184L 20.4003 5.304C 18.1563 5.292 16.9083 6.06 16.9083 7.464C 16.9083 8.304 17.5083 9.132 18.6843 9.132C 19.5123 9.132 20.1483 8.724 20.4603 8.268L 20.4963 8.268L 20.5923 9L 21.5403 9C 21.4803 8.604 21.4563 8.112 21.4563 7.608L 21.4563 5.436ZM 20.4243 7.044C 20.4243 7.152 20.4123 7.272 20.3763 7.38C 20.2083 7.872 19.7163 8.352 18.9483 8.352C 18.4203 8.352 17.9643 8.04 17.9643 7.344C 17.9643 6.216 19.2723 6.012 20.4243 6.036L 20.4243 7.044ZM 27.1133 7.992C 26.8133 8.124 26.4173 8.268 25.8173 8.268C 24.6653 8.268 23.8013 7.44 23.8013 6.096C 23.8013 4.896 24.5213 3.9 25.8533 3.9C 26.4293 3.9 26.8253 4.044 27.0773 4.176L 27.3173 3.372C 27.0293 3.216 26.4773 3.06 25.8533 3.06C 23.9573 3.06 22.7333 4.368 22.7333 6.156C 22.7333 7.932 23.8733 9.12 25.6253 9.12C 26.4053 9.12 27.0173 8.916 27.2933 8.784L 27.1133 7.992ZM 28.5323 9L 29.5882 9L 29.5882 5.496C 29.5882 5.292 29.6003 5.136 29.6603 4.992C 29.8643 4.416 30.3923 3.936 31.0763 3.936C 32.0723 3.936 32.4203 4.716 32.4203 5.652L 32.4203 9L 33.4763 9L 33.4763 5.544C 33.4763 3.54 32.2283 3.06 31.4483 3.06C 31.0523 3.06 30.6803 3.168 30.3682 3.36C 30.0442 3.528 29.7802 3.804 29.6122 4.104L 29.5882 4.104L 29.5882 0.48L 28.5323 0.48L 28.5323 9ZM 34.7925 8.712C 35.2005 8.952 35.7885 9.12 36.4245 9.12C 37.7805 9.12 38.5845 8.4 38.5845 7.368C 38.5845 6.504 38.0565 6 37.0605 5.628C 36.3045 5.328 35.9685 5.112 35.9685 4.632C 35.9685 4.2 36.3045 3.84 36.9285 3.84C 37.4685 3.84 37.8885 4.044 38.1165 4.176L 38.3685 3.42C 38.0565 3.216 37.5405 3.06 36.9525 3.06C 35.7165 3.06 34.9485 3.828 34.9485 4.764C 34.9485 5.448 35.4405 6.024 36.4965 6.408C 37.2645 6.696 37.5645 6.96 37.5645 7.464C 37.5645 7.956 37.2045 8.328 36.4485 8.328C 35.9205 8.328 35.3685 8.112 35.0445 7.92L 34.7925 8.712ZM 44.6143 6.288C 44.6383 6.168 44.6503 6.012 44.6503 5.796C 44.6503 4.728 44.1583 3.06 42.2623 3.06C 40.5703 3.06 39.5263 4.44 39.5263 6.192C 39.5263 7.932 40.6063 9.12 42.3823 9.12C 43.3063 9.12 43.9543 8.916 44.3263 8.748L 44.1343 7.992C 43.7503 8.16 43.2823 8.292 42.5263 8.292C 41.4703 8.292 40.5703 7.704 40.5463 6.288L 44.6143 6.288ZM 40.5583 5.532C 40.6423 4.8 41.0983 3.816 42.1783 3.816C 43.3543 3.816 43.6423 4.86 43.6303 5.532L 40.5583 5.532ZM 45.958 9L 46.99 9L 46.99 5.496C 46.99 5.316 47.014 5.136 47.074 4.98C 47.242 4.452 47.734 3.924 48.382 3.924C 49.186 3.924 49.594 4.584 49.594 5.508L 49.594 9L 50.626 9L 50.626 5.4C 50.626 5.22 50.662 5.028 50.71 4.872C 50.902 4.368 51.358 3.924 51.97 3.924C 52.81 3.924 53.23 4.584 53.23 5.712L 53.23 9L 54.262 9L 54.262 5.58C 54.262 3.564 53.122 3.06 52.342 3.06C 51.79 3.06 51.418 3.204 51.07 3.468C 50.83 3.648 50.59 3.888 50.41 4.224L 50.386 4.224C 50.134 3.54 49.534 3.06 48.754 3.06C 47.782 3.06 47.242 3.576 46.918 4.128L 46.882 4.128L 46.834 3.192L 45.91 3.192C 45.934 3.672 45.958 4.152 45.958 4.764L 45.958 9ZM 60.6338 6.288C 60.6578 6.168 60.6698 6.012 60.6698 5.796C 60.6698 4.728 60.1778 3.06 58.2818 3.06C 56.5898 3.06 55.5458 4.44 55.5458 6.192C 55.5458 7.932 56.6258 9.12 58.4018 9.12C 59.3258 9.12 59.9738 8.916 60.3458 8.748L 60.1538 7.992C 59.7698 8.16 59.3018 8.292 58.5458 8.292C 57.4898 8.292 56.5898 7.704 56.5658 6.288L 60.6338 6.288ZM 56.5778 5.532C 56.6618 4.8 57.1178 3.816 58.1978 3.816C 59.3738 3.816 59.6618 4.86 59.6498 5.532L 56.5778 5.532ZM 61.5816 8.712C 61.9896 8.952 62.5776 9.12 63.2136 9.12C 64.5696 9.12 65.3736 8.4 65.3736 7.368C 65.3736 6.504 64.8456 6 63.8496 5.628C 63.0936 5.328 62.7576 5.112 62.7576 4.632C 62.7576 4.2 63.0936 3.84 63.7176 3.84C 64.2576 3.84 64.6776 4.044 64.9056 4.176L 65.1576 3.42C 64.8456 3.216 64.3296 3.06 63.7416 3.06C 62.5056 3.06 61.7376 3.828 61.7376 4.764C 61.7376 5.448 62.2296 6.024 63.2856 6.408C 64.0536 6.696 64.3536 6.96 64.3536 7.464C 64.3536 7.956 63.9936 8.328 63.2376 8.328C 62.7096 8.328 62.1576 8.112 61.8336 7.92L 61.5816 8.712ZM 66.9754 2.124L 66.9754 3.192L 66.0754 3.192L 66.0754 3.996L 66.9754 3.996L 66.9754 7.152C 66.9754 7.836 67.0954 8.352 67.3834 8.676C 67.6354 8.952 68.0314 9.12 68.5234 9.12C 68.9314 9.12 69.2554 9.048 69.4594 8.976L 69.4114 8.172C 69.2554 8.22 69.0874 8.244 68.7994 8.244C 68.2114 8.244 68.0074 7.836 68.0074 7.116L 68.0074 3.996L 69.5194 3.996L 69.5194 3.192L 68.0074 3.192L 68.0074 1.8L 66.9754 2.124ZM 75.3057 6.288C 75.3297 6.168 75.3417 6.012 75.3417 5.796C 75.3417 4.728 74.8497 3.06 72.9537 3.06C 71.2617 3.06 70.2177 4.44 70.2177 6.192C 70.2177 7.932 71.2977 9.12 73.0737 9.12C 73.9977 9.12 74.6457 8.916 75.0177 8.748L 74.8257 7.992C 74.4417 8.16 73.9737 8.292 73.2177 8.292C 72.1617 8.292 71.2617 7.704 71.2377 6.288L 75.3057 6.288ZM 71.2497 5.532C 71.3337 4.8 71.7897 3.816 72.8697 3.816C 74.0457 3.816 74.3337 4.86 74.3217 5.532L 71.2497 5.532ZM 76.6494 9L 77.7054 9L 77.7054 5.892C 77.7054 5.724 77.7174 5.556 77.7414 5.4C 77.8854 4.62 78.4134 4.056 79.1574 4.056C 79.3014 4.056 79.4094 4.068 79.5174 4.08L 79.5174 3.084C 79.4214 3.072 79.3374 3.06 79.2294 3.06C 78.5214 3.06 77.8734 3.552 77.6094 4.332L 77.5734 4.332L 77.5254 3.192L 76.6014 3.192C 76.6374 3.732 76.6494 4.32 76.6494 5.004L 76.6494 9Z"/>
<path id="path5_fill" d="M 0 0L 600 0L 600 140L 0 140L 0 0Z"/>
<path id="path6_fill" d="M 57.9878 14L 64.7558 14L 64.7558 12.686L 59.5718 12.686L 59.5718 1.868L 57.9878 1.868L 57.9878 14ZM 73.1979 9.932C 73.2339 9.752 73.2519 9.518 73.2519 9.194C 73.2519 7.592 72.5139 5.09 69.6699 5.09C 67.1319 5.09 65.5659 7.16 65.5659 9.788C 65.5659 12.398 67.1859 14.18 69.8499 14.18C 71.2359 14.18 72.2079 13.874 72.7659 13.622L 72.4779 12.488C 71.9019 12.74 71.1999 12.938 70.0659 12.938C 68.4819 12.938 67.1319 12.056 67.0959 9.932L 73.1979 9.932ZM 67.1139 8.798C 67.2399 7.7 67.9239 6.224 69.5439 6.224C 71.3079 6.224 71.7399 7.79 71.7219 8.798L 67.1139 8.798ZM 76.7975 14L 76.7975 5.288L 75.2135 5.288L 75.2135 14L 76.7975 14ZM 75.9875 3.812C 76.5995 3.812 76.9775 3.362 76.9775 2.84C 76.9775 2.282 76.5815 1.85 76.0055 1.85C 75.4115 1.85 75.0155 2.282 75.0155 2.84C 75.0155 3.362 75.3935 3.812 75.9695 3.812L 75.9875 3.812ZM 79.7923 3.686L 79.7923 5.288L 78.4423 5.288L 78.4423 6.494L 79.7923 6.494L 79.7923 11.228C 79.7923 12.254 79.9723 13.028 80.4043 13.514C 80.7823 13.928 81.3763 14.18 82.1143 14.18C 82.7263 14.18 83.2123 14.072 83.5183 13.964L 83.4463 12.758C 83.2123 12.83 82.9603 12.866 82.5283 12.866C 81.6463 12.866 81.3403 12.254 81.3403 11.174L 81.3403 6.494L 83.6083 6.494L 83.6083 5.288L 81.3403 5.288L 81.3403 3.2L 79.7923 3.686ZM 87.1193 14L 87.1193 6.494L 89.2073 6.494L 89.2073 5.288L 87.1013 5.288L 87.1013 4.82C 87.1013 3.488 87.4613 2.3 88.7933 2.3C 89.2613 2.3 89.5673 2.39 89.8193 2.498L 90.0173 1.274C 89.7113 1.148 89.2433 1.022 88.6673 1.022C 87.9473 1.022 87.1553 1.256 86.5613 1.832C 85.8233 2.534 85.5353 3.65 85.5353 4.874L 85.5353 5.288L 84.3293 5.288L 84.3293 6.494L 85.5353 6.494L 85.5353 14L 87.1193 14ZM 90.6471 14L 92.2311 14L 92.2311 9.338C 92.2311 9.086 92.2491 8.834 92.2851 8.6C 92.5011 7.43 93.2931 6.584 94.4091 6.584C 94.6251 6.584 94.7871 6.602 94.9491 6.62L 94.9491 5.126C 94.8051 5.108 94.6791 5.09 94.5171 5.09C 93.4551 5.09 92.4831 5.828 92.0871 6.998L 92.0331 6.998L 91.9611 5.288L 90.5751 5.288C 90.6291 6.098 90.6471 6.98 90.6471 8.006L 90.6471 14ZM 102.586 8.654C 102.586 6.908 101.938 5.09 99.2559 5.09C 98.1579 5.09 97.0959 5.396 96.3759 5.846L 96.7359 6.908C 97.3479 6.494 98.1939 6.26 99.0219 6.26C 100.804 6.242 101.002 7.556 101.002 8.276L 101.002 8.456C 97.6359 8.438 95.7639 9.59 95.7639 11.696C 95.7639 12.956 96.6639 14.198 98.4279 14.198C 99.6699 14.198 100.624 13.586 101.092 12.902L 101.146 12.902L 101.29 14L 102.712 14C 102.622 13.406 102.586 12.668 102.586 11.912L 102.586 8.654ZM 101.038 11.066C 101.038 11.228 101.02 11.408 100.966 11.57C 100.714 12.308 99.9759 13.028 98.8239 13.028C 98.0319 13.028 97.3479 12.56 97.3479 11.516C 97.3479 9.824 99.3099 9.518 101.038 9.554L 101.038 11.066ZM 112.583 7.664C 112.583 6.62 112.601 5.9 112.655 5.288L 111.251 5.288L 111.197 6.602L 111.161 6.602C 110.765 5.864 109.955 5.09 108.443 5.09C 106.427 5.09 104.501 6.746 104.501 9.698C 104.501 12.128 106.049 13.964 108.209 13.964C 109.559 13.964 110.513 13.316 110.981 12.506L 111.017 12.506L 111.017 13.46C 111.017 15.674 109.829 16.52 108.209 16.52C 107.129 16.52 106.229 16.196 105.653 15.818L 105.257 17.042C 105.959 17.51 107.111 17.762 108.155 17.762C 109.253 17.762 110.477 17.492 111.341 16.718C 112.169 15.944 112.583 14.738 112.583 12.722L 112.583 7.664ZM 110.999 10.274C 110.999 10.562 110.963 10.868 110.873 11.12C 110.549 12.146 109.667 12.758 108.677 12.758C 106.985 12.758 106.103 11.318 106.103 9.626C 106.103 7.592 107.183 6.314 108.695 6.314C 109.865 6.314 110.621 7.07 110.909 8.006C 110.981 8.222 110.999 8.456 110.999 8.708L 110.999 10.274ZM 122.188 9.932C 122.224 9.752 122.242 9.518 122.242 9.194C 122.242 7.592 121.504 5.09 118.66 5.09C 116.122 5.09 114.556 7.16 114.556 9.788C 114.556 12.398 116.176 14.18 118.84 14.18C 120.226 14.18 121.198 13.874 121.756 13.622L 121.468 12.488C 120.892 12.74 120.19 12.938 119.056 12.938C 117.472 12.938 116.122 12.056 116.086 9.932L 122.188 9.932ZM 116.104 8.798C 116.23 7.7 116.914 6.224 118.534 6.224C 120.298 6.224 120.73 7.79 120.712 8.798L 116.104 8.798Z"/>
<path id="path7_fill" d="M 30.8225 14L 37.5905 14L 37.5905 12.686L 32.4065 12.686L 32.4065 1.868L 30.8225 1.868L 30.8225 14ZM 46.0326 9.932C 46.0686 9.752 46.0866 9.518 46.0866 9.194C 46.0866 7.592 45.3486 5.09 42.5046 5.09C 39.9666 5.09 38.4006 7.16 38.4006 9.788C 38.4006 12.398 40.0206 14.18 42.6846 14.18C 44.0706 14.18 45.0426 13.874 45.6006 13.622L 45.3126 12.488C 44.7366 12.74 44.0346 12.938 42.9006 12.938C 41.3166 12.938 39.9666 12.056 39.9306 9.932L 46.0326 9.932ZM 39.9486 8.798C 40.0746 7.7 40.7586 6.224 42.3786 6.224C 44.1426 6.224 44.5746 7.79 44.5566 8.798L 39.9486 8.798ZM 49.6322 14L 49.6322 5.288L 48.0482 5.288L 48.0482 14L 49.6322 14ZM 48.8222 3.812C 49.4342 3.812 49.8122 3.362 49.8122 2.84C 49.8122 2.282 49.4162 1.85 48.8402 1.85C 48.2462 1.85 47.8502 2.282 47.8502 2.84C 47.8502 3.362 48.2282 3.812 48.8042 3.812L 48.8222 3.812ZM 52.6269 3.686L 52.6269 5.288L 51.2769 5.288L 51.2769 6.494L 52.6269 6.494L 52.6269 11.228C 52.6269 12.254 52.8069 13.028 53.2389 13.514C 53.6169 13.928 54.2109 14.18 54.9489 14.18C 55.5609 14.18 56.0469 14.072 56.3529 13.964L 56.2809 12.758C 56.0469 12.83 55.7949 12.866 55.3629 12.866C 54.4809 12.866 54.1749 12.254 54.1749 11.174L 54.1749 6.494L 56.4429 6.494L 56.4429 5.288L 54.1749 5.288L 54.1749 3.2L 52.6269 3.686ZM 59.9539 14L 59.9539 6.494L 62.0419 6.494L 62.0419 5.288L 59.9359 5.288L 59.9359 4.82C 59.9359 3.488 60.2959 2.3 61.6279 2.3C 62.0959 2.3 62.4019 2.39 62.6539 2.498L 62.8519 1.274C 62.5459 1.148 62.0779 1.022 61.5019 1.022C 60.7819 1.022 59.9899 1.256 59.3959 1.832C 58.6579 2.534 58.3699 3.65 58.3699 4.874L 58.3699 5.288L 57.1639 5.288L 57.1639 6.494L 58.3699 6.494L 58.3699 14L 59.9539 14ZM 63.4818 14L 65.0658 14L 65.0658 9.338C 65.0658 9.086 65.0838 8.834 65.1198 8.6C 65.3358 7.43 66.1278 6.584 67.2438 6.584C 67.4598 6.584 67.6218 6.602 67.7838 6.62L 67.7838 5.126C 67.6398 5.108 67.5138 5.09 67.3518 5.09C 66.2898 5.09 65.3178 5.828 64.9218 6.998L 64.8678 6.998L 64.7958 5.288L 63.4098 5.288C 63.4638 6.098 63.4818 6.98 63.4818 8.006L 63.4818 14ZM 75.4205 8.654C 75.4205 6.908 74.7725 5.09 72.0905 5.09C 70.9925 5.09 69.9305 5.396 69.2105 5.846L 69.5705 6.908C 70.1825 6.494 71.0285 6.26 71.8565 6.26C 73.6385 6.242 73.8365 7.556 73.8365 8.276L 73.8365 8.456C 70.4705 8.438 68.5985 9.59 68.5985 11.696C 68.5985 12.956 69.4985 14.198 71.2625 14.198C 72.5045 14.198 73.4585 13.586 73.9265 12.902L 73.9805 12.902L 74.1245 14L 75.5465 14C 75.4565 13.406 75.4205 12.668 75.4205 11.912L 75.4205 8.654ZM 73.8725 11.066C 73.8725 11.228 73.8545 11.408 73.8005 11.57C 73.5485 12.308 72.8105 13.028 71.6585 13.028C 70.8665 13.028 70.1825 12.56 70.1825 11.516C 70.1825 9.824 72.1445 9.518 73.8725 9.554L 73.8725 11.066ZM 85.4181 7.664C 85.4181 6.62 85.4361 5.9 85.4901 5.288L 84.0861 5.288L 84.0321 6.602L 83.9961 6.602C 83.6001 5.864 82.7901 5.09 81.2781 5.09C 79.2621 5.09 77.3361 6.746 77.3361 9.698C 77.3361 12.128 78.8841 13.964 81.0441 13.964C 82.3941 13.964 83.3481 13.316 83.8161 12.506L 83.8521 12.506L 83.8521 13.46C 83.8521 15.674 82.6641 16.52 81.0441 16.52C 79.9641 16.52 79.0641 16.196 78.4881 15.818L 78.0921 17.042C 78.7941 17.51 79.9461 17.762 80.9901 17.762C 82.0881 17.762 83.3121 17.492 84.1761 16.718C 85.0041 15.944 85.4181 14.738 85.4181 12.722L 85.4181 7.664ZM 83.8341 10.274C 83.8341 10.562 83.7981 10.868 83.7081 11.12C 83.3841 12.146 82.5021 12.758 81.5121 12.758C 79.8201 12.758 78.9381 11.318 78.9381 9.626C 78.9381 7.592 80.0181 6.314 81.5301 6.314C 82.7001 6.314 83.4561 7.07 83.7441 8.006C 83.8161 8.222 83.8341 8.456 83.8341 8.708L 83.8341 10.274ZM 95.0228 9.932C 95.0588 9.752 95.0768 9.518 95.0768 9.194C 95.0768 7.592 94.3388 5.09 91.4948 5.09C 88.9568 5.09 87.3908 7.16 87.3908 9.788C 87.3908 12.398 89.0108 14.18 91.6748 14.18C 93.0608 14.18 94.0328 13.874 94.5908 13.622L 94.3028 12.488C 93.7268 12.74 93.0248 12.938 91.8908 12.938C 90.3068 12.938 88.9568 12.056 88.9208 9.932L 95.0228 9.932ZM 88.9388 8.798C 89.0648 7.7 89.7488 6.224 91.3688 6.224C 93.1328 6.224 93.5648 7.79 93.5468 8.798L 88.9388 8.798Z"/>
<path id="path8_fill" d="M 39.0902 14L 45.8582 14L 45.8582 12.686L 40.6742 12.686L 40.6742 1.868L 39.0902 1.868L 39.0902 14ZM 54.3003 9.932C 54.3363 9.752 54.3543 9.518 54.3543 9.194C 54.3543 7.592 53.6163 5.09 50.7723 5.09C 48.2343 5.09 46.6683 7.16 46.6683 9.788C 46.6683 12.398 48.2883 14.18 50.9523 14.18C 52.3383 14.18 53.3103 13.874 53.8683 13.622L 53.5803 12.488C 53.0043 12.74 52.3023 12.938 51.1683 12.938C 49.5843 12.938 48.2343 12.056 48.1983 9.932L 54.3003 9.932ZM 48.2163 8.798C 48.3423 7.7 49.0263 6.224 50.6463 6.224C 52.4103 6.224 52.8423 7.79 52.8243 8.798L 48.2163 8.798ZM 57.8999 14L 57.8999 5.288L 56.3159 5.288L 56.3159 14L 57.8999 14ZM 57.0899 3.812C 57.7019 3.812 58.0799 3.362 58.0799 2.84C 58.0799 2.282 57.6839 1.85 57.1079 1.85C 56.5139 1.85 56.1179 2.282 56.1179 2.84C 56.1179 3.362 56.4959 3.812 57.0719 3.812L 57.0899 3.812ZM 60.8946 3.686L 60.8946 5.288L 59.5446 5.288L 59.5446 6.494L 60.8946 6.494L 60.8946 11.228C 60.8946 12.254 61.0746 13.028 61.5066 13.514C 61.8846 13.928 62.4786 14.18 63.2166 14.18C 63.8286 14.18 64.3146 14.072 64.6206 13.964L 64.5486 12.758C 64.3146 12.83 64.0626 12.866 63.6306 12.866C 62.7486 12.866 62.4426 12.254 62.4426 11.174L 62.4426 6.494L 64.7106 6.494L 64.7106 5.288L 62.4426 5.288L 62.4426 3.2L 60.8946 3.686ZM 68.2216 14L 68.2216 6.494L 70.3096 6.494L 70.3096 5.288L 68.2036 5.288L 68.2036 4.82C 68.2036 3.488 68.5636 2.3 69.8956 2.3C 70.3636 2.3 70.6696 2.39 70.9216 2.498L 71.1196 1.274C 70.8136 1.148 70.3456 1.022 69.7696 1.022C 69.0496 1.022 68.2576 1.256 67.6636 1.832C 66.9256 2.534 66.6376 3.65 66.6376 4.874L 66.6376 5.288L 65.4316 5.288L 65.4316 6.494L 66.6376 6.494L 66.6376 14L 68.2216 14ZM 71.7495 14L 73.3335 14L 73.3335 9.338C 73.3335 9.086 73.3515 8.834 73.3875 8.6C 73.6035 7.43 74.3955 6.584 75.5115 6.584C 75.7275 6.584 75.8895 6.602 76.0515 6.62L 76.0515 5.126C 75.9075 5.108 75.7815 5.09 75.6195 5.09C 74.5575 5.09 73.5855 5.828 73.1895 6.998L 73.1355 6.998L 73.0635 5.288L 71.6775 5.288C 71.7315 6.098 71.7495 6.98 71.7495 8.006L 71.7495 14ZM 83.6883 8.654C 83.6883 6.908 83.0403 5.09 80.3583 5.09C 79.2603 5.09 78.1983 5.396 77.4783 5.846L 77.8383 6.908C 78.4503 6.494 79.2963 6.26 80.1243 6.26C 81.9063 6.242 82.1043 7.556 82.1043 8.276L 82.1043 8.456C 78.7383 8.438 76.8663 9.59 76.8663 11.696C 76.8663 12.956 77.7663 14.198 79.5303 14.198C 80.7723 14.198 81.7263 13.586 82.1943 12.902L 82.2483 12.902L 82.3923 14L 83.8143 14C 83.7243 13.406 83.6883 12.668 83.6883 11.912L 83.6883 8.654ZM 82.1403 11.066C 82.1403 11.228 82.1223 11.408 82.0683 11.57C 81.8163 12.308 81.0783 13.028 79.9263 13.028C 79.1343 13.028 78.4503 12.56 78.4503 11.516C 78.4503 9.824 80.4123 9.518 82.1403 9.554L 82.1403 11.066ZM 93.6859 7.664C 93.6859 6.62 93.7039 5.9 93.7579 5.288L 92.3539 5.288L 92.2999 6.602L 92.2639 6.602C 91.8679 5.864 91.0579 5.09 89.5459 5.09C 87.5299 5.09 85.6039 6.746 85.6039 9.698C 85.6039 12.128 87.1519 13.964 89.3119 13.964C 90.6619 13.964 91.6159 13.316 92.0839 12.506L 92.1199 12.506L 92.1199 13.46C 92.1199 15.674 90.9319 16.52 89.3119 16.52C 88.2319 16.52 87.3319 16.196 86.7559 15.818L 86.3599 17.042C 87.0619 17.51 88.2139 17.762 89.2579 17.762C 90.3559 17.762 91.5799 17.492 92.4439 16.718C 93.2719 15.944 93.6859 14.738 93.6859 12.722L 93.6859 7.664ZM 92.1019 10.274C 92.1019 10.562 92.0659 10.868 91.9759 11.12C 91.6519 12.146 90.7699 12.758 89.7799 12.758C 88.0879 12.758 87.2059 11.318 87.2059 9.626C 87.2059 7.592 88.2859 6.314 89.7979 6.314C 90.9679 6.314 91.7239 7.07 92.0119 8.006C 92.0839 8.222 92.1019 8.456 92.1019 8.708L 92.1019 10.274ZM 103.291 9.932C 103.327 9.752 103.345 9.518 103.345 9.194C 103.345 7.592 102.607 5.09 99.7625 5.09C 97.2245 5.09 95.6585 7.16 95.6585 9.788C 95.6585 12.398 97.2785 14.18 99.9425 14.18C 101.329 14.18 102.301 13.874 102.859 13.622L 102.571 12.488C 101.995 12.74 101.293 12.938 100.159 12.938C 98.5745 12.938 97.2245 12.056 97.1885 9.932L 103.291 9.932ZM 97.2065 8.798C 97.3325 7.7 98.0165 6.224 99.6365 6.224C 101.401 6.224 101.833 7.79 101.815 8.798L 97.2065 8.798Z"/>
<path id="path9_fill" d="M 0 0L 600 0L 600 32L 0 32L 0 0Z"/>
<path id="path10_fill" d="M 53.8663 14L 55.4143 14L 54.6583 1.868L 52.6603 1.868L 50.5003 7.736C 49.9603 9.266 49.5283 10.616 49.2043 11.84L 49.1683 11.84C 48.8443 10.58 48.4483 9.23 47.9443 7.736L 45.8743 1.868L 43.8763 1.868L 43.0303 14L 44.5243 14L 44.8483 8.798C 44.9563 6.98 45.0463 4.946 45.0823 3.434L 45.1183 3.434C 45.4603 4.874 45.9283 6.44 46.5043 8.15L 48.4843 13.928L 49.6723 13.928L 51.8143 8.042C 52.4263 6.386 52.9123 4.838 53.3443 3.434L 53.3803 3.434C 53.3803 4.928 53.4883 6.998 53.5783 8.672L 53.8663 14ZM 64.0106 8.654C 64.0106 6.908 63.3626 5.09 60.6806 5.09C 59.5826 5.09 58.5206 5.396 57.8006 5.846L 58.1606 6.908C 58.7726 6.494 59.6186 6.26 60.4466 6.26C 62.2286 6.242 62.4266 7.556 62.4266 8.276L 62.4266 8.456C 59.0606 8.438 57.1886 9.59 57.1886 11.696C 57.1886 12.956 58.0886 14.198 59.8526 14.198C 61.0946 14.198 62.0486 13.586 62.5166 12.902L 62.5706 12.902L 62.7146 14L 64.1366 14C 64.0466 13.406 64.0106 12.668 64.0106 11.912L 64.0106 8.654ZM 62.4626 11.066C 62.4626 11.228 62.4446 11.408 62.3906 11.57C 62.1386 12.308 61.4006 13.028 60.2486 13.028C 59.4566 13.028 58.7726 12.56 58.7726 11.516C 58.7726 9.824 60.7346 9.518 62.4626 9.554L 62.4626 11.066ZM 65.9622 13.568C 66.5742 13.928 67.4562 14.18 68.4102 14.18C 70.4442 14.18 71.6502 13.1 71.6502 11.552C 71.6502 10.256 70.8582 9.5 69.3642 8.942C 68.2302 8.492 67.7262 8.168 67.7262 7.448C 67.7262 6.8 68.2302 6.26 69.1662 6.26C 69.9762 6.26 70.6062 6.566 70.9482 6.764L 71.3262 5.63C 70.8582 5.324 70.0842 5.09 69.2022 5.09C 67.3482 5.09 66.1962 6.242 66.1962 7.646C 66.1962 8.672 66.9342 9.536 68.5182 10.112C 69.6702 10.544 70.1202 10.94 70.1202 11.696C 70.1202 12.434 69.5802 12.992 68.4462 12.992C 67.6542 12.992 66.8262 12.668 66.3402 12.38L 65.9622 13.568ZM 74.0529 3.686L 74.0529 5.288L 72.7029 5.288L 72.7029 6.494L 74.0529 6.494L 74.0529 11.228C 74.0529 12.254 74.2329 13.028 74.6649 13.514C 75.0429 13.928 75.6369 14.18 76.3749 14.18C 76.9869 14.18 77.4729 14.072 77.7789 13.964L 77.7069 12.758C 77.4729 12.83 77.2209 12.866 76.7889 12.866C 75.9069 12.866 75.6009 12.254 75.6009 11.174L 75.6009 6.494L 77.8689 6.494L 77.8689 5.288L 75.6009 5.288L 75.6009 3.2L 74.0529 3.686ZM 86.5484 9.932C 86.5844 9.752 86.6024 9.518 86.6024 9.194C 86.6024 7.592 85.8644 5.09 83.0204 5.09C 80.4824 5.09 78.9164 7.16 78.9164 9.788C 78.9164 12.398 80.5364 14.18 83.2004 14.18C 84.5864 14.18 85.5584 13.874 86.1164 13.622L 85.8284 12.488C 85.2524 12.74 84.5504 12.938 83.4164 12.938C 81.8324 12.938 80.4824 12.056 80.4464 9.932L 86.5484 9.932ZM 80.4644 8.798C 80.5904 7.7 81.2744 6.224 82.8944 6.224C 84.6584 6.224 85.0904 7.79 85.0724 8.798L 80.4644 8.798ZM 88.564 14L 90.148 14L 90.148 9.338C 90.148 9.086 90.166 8.834 90.202 8.6C 90.418 7.43 91.21 6.584 92.326 6.584C 92.542 6.584 92.704 6.602 92.866 6.62L 92.866 5.126C 92.722 5.108 92.596 5.09 92.434 5.09C 91.372 5.09 90.4 5.828 90.004 6.998L 89.95 6.998L 89.878 5.288L 88.492 5.288C 88.546 6.098 88.564 6.98 88.564 8.006L 88.564 14ZM 95.2345 3.686L 95.2345 5.288L 93.8845 5.288L 93.8845 6.494L 95.2345 6.494L 95.2345 11.228C 95.2345 12.254 95.4145 13.028 95.8465 13.514C 96.2245 13.928 96.8185 14.18 97.5565 14.18C 98.1685 14.18 98.6545 14.072 98.9605 13.964L 98.8885 12.758C 98.6545 12.83 98.4025 12.866 97.9705 12.866C 97.0885 12.866 96.7825 12.254 96.7825 11.174L 96.7825 6.494L 99.0505 6.494L 99.0505 5.288L 96.7825 5.288L 96.7825 3.2L 95.2345 3.686ZM 100.834 14L 102.418 14L 102.418 8.744C 102.418 8.438 102.436 8.204 102.526 7.988C 102.832 7.124 103.624 6.404 104.65 6.404C 106.144 6.404 106.666 7.574 106.666 8.978L 106.666 14L 108.25 14L 108.25 8.816C 108.25 5.81 106.378 5.09 105.208 5.09C 104.614 5.09 104.056 5.252 103.588 5.54C 103.102 5.792 102.706 6.206 102.454 6.656L 102.418 6.656L 102.418 1.22L 100.834 1.22L 100.834 14ZM 117.82 9.932C 117.856 9.752 117.874 9.518 117.874 9.194C 117.874 7.592 117.136 5.09 114.292 5.09C 111.754 5.09 110.188 7.16 110.188 9.788C 110.188 12.398 111.808 14.18 114.472 14.18C 115.858 14.18 116.83 13.874 117.388 13.622L 117.1 12.488C 116.524 12.74 115.822 12.938 114.688 12.938C 113.104 12.938 111.754 12.056 111.718 9.932L 117.82 9.932ZM 111.736 8.798C 111.862 7.7 112.546 6.224 114.166 6.224C 115.93 6.224 116.362 7.79 116.344 8.798L 111.736 8.798ZM 119.241 13.568C 119.853 13.928 120.735 14.18 121.689 14.18C 123.723 14.18 124.929 13.1 124.929 11.552C 124.929 10.256 124.137 9.5 122.643 8.942C 121.509 8.492 121.005 8.168 121.005 7.448C 121.005 6.8 121.509 6.26 122.445 6.26C 123.255 6.26 123.885 6.566 124.227 6.764L 124.605 5.63C 124.137 5.324 123.363 5.09 122.481 5.09C 120.627 5.09 119.475 6.242 119.475 7.646C 119.475 8.672 120.213 9.536 121.797 10.112C 122.949 10.544 123.399 10.94 123.399 11.696C 123.399 12.434 122.859 12.992 121.725 12.992C 120.933 12.992 120.105 12.668 119.619 12.38L 119.241 13.568ZM 128.556 14L 128.556 5.288L 126.972 5.288L 126.972 14L 128.556 14ZM 127.746 3.812C 128.358 3.812 128.736 3.362 128.736 2.84C 128.736 2.282 128.34 1.85 127.764 1.85C 127.17 1.85 126.774 2.282 126.774 2.84C 126.774 3.362 127.152 3.812 127.728 3.812L 127.746 3.812ZM 130.597 13.568C 131.209 13.928 132.091 14.18 133.045 14.18C 135.079 14.18 136.285 13.1 136.285 11.552C 136.285 10.256 135.493 9.5 133.999 8.942C 132.865 8.492 132.361 8.168 132.361 7.448C 132.361 6.8 132.865 6.26 133.801 6.26C 134.611 6.26 135.241 6.566 135.583 6.764L 135.961 5.63C 135.493 5.324 134.719 5.09 133.837 5.09C 131.983 5.09 130.831 6.242 130.831 7.646C 130.831 8.672 131.569 9.536 133.153 10.112C 134.305 10.544 134.755 10.94 134.755 11.696C 134.755 12.434 134.215 12.992 133.081 12.992C 132.289 12.992 131.461 12.668 130.975 12.38L 130.597 13.568Z"/>
</defs>
</svg>
