<svg width="758" height="512" viewBox="0 0 758 512" version="1.1" xmlns="http://www.w3.org/2000/svg" xmlns:xlink="http://www.w3.org/1999/xlink" xmlns:figma="http://www.figma.com/figma/ns">
<title>WebDev Master</title>
<desc>Created using Figma</desc>
<g id="Canvas" transform="translate(444 735)" figma:type="canvas">
<mask id="mask0_alpha" mask-type="alpha">
<path d="M -444 -735L 314 -735L 314 -223L -444 -223L -444 -735Z" fill="#FFFFFF"/>
</mask>
<g id="WebDev Master" style="mix-blend-mode:normal;" mask="url(#mask0_alpha)" figma:type="frame">
<path d="M -444 -735L 314 -735L 314 -223L -444 -223L -444 -735Z" fill="transparent"/>
<g id="Semester" style="mix-blend-mode:normal;" figma:type="frame">
<g id="Semester" style="mix-blend-mode:normal;" figma:type="symbol">
<g id="1. Fachsemester" style="mix-blend-mode:normal;" figma:type="text">
<use xlink:href="#path0_fill" transform="translate(-443.5 -358)" style="mix-blend-mode:normal;"/>
</g>
<g id="Line" style="mix-blend-mode:normal;" figma:type="line">
<use xlink:href="#path1_stroke" transform="translate(-444 -362)" fill="#E0E0E0" style="mix-blend-mode:normal;"/>
</g>
</g>
<g id="Semester" style="mix-blend-mode:normal;" figma:type="instance">
<g id="2. Fachsemester" style="mix-blend-mode:normal;" figma:type="text">
<use xlink:href="#path2_fill" transform="translate(-443.5 -519)" style="mix-blend-mode:normal;"/>
</g>
<g id="Line" style="mix-blend-mode:normal;" figma:type="line">
<use xlink:href="#path1_stroke" transform="translate(-444 -523)" fill="#E0E0E0" style="mix-blend-mode:normal;"/>
</g>
</g>
<g id="Semester" style="mix-blend-mode:normal;" figma:type="instance">
<g id="3. Fachsemester" style="mix-blend-mode:normal;" figma:type="text">
<use xlink:href="#path3_fill" transform="translate(-443.5 -678)" style="mix-blend-mode:normal;"/>
</g>
<g id="Line" style="mix-blend-mode:normal;" figma:type="line">
<use xlink:href="#path1_stroke" transform="translate(-444 -682)" fill="#E0E0E0" style="mix-blend-mode:normal;"/>
</g>
</g>
<g id="Semester" style="mix-blend-mode:normal;" figma:type="instance">
<g id="4. Fachsemester" style="mix-blend-mode:normal;" figma:type="text">
<use xlink:href="#path4_fill" transform="translate(-443.5 -728)" style="mix-blend-mode:normal;"/>
</g>
<g id="Line" style="mix-blend-mode:normal;" figma:type="line">
<use xlink:href="#path1_stroke" transform="translate(-444 -732)" fill="#E0E0E0" style="mix-blend-mode:normal;"/>
</g>
</g>
</g>
<g id="Spezialisierung" style="mix-blend-mode:normal;" figma:type="symbol">
<g id="Rectangle 3" style="mix-blend-mode:normal;" figma:type="rounded-rectangle">
<use xlink:href="#path5_fill" transform="translate(-286 -683)" fill="#4F4F4F" style="mix-blend-mode:normal;"/>
</g>
<g id="Assessment / Evaluation, Forschung und Verwertung" style="mix-blend-mode:normal;" figma:type="text">
<use xlink:href="#path6_fill" transform="translate(-129 -635)" fill="#FFFFFF" style="mix-blend-mode:normal;"/>
</g>
</g>
<g id="Vertiefung" style="mix-blend-mode:normal;" figma:type="symbol">
<g id="Rectangle 3" style="mix-blend-mode:normal;" figma:type="rounded-rectangle">
<use xlink:href="#path5_fill" transform="translate(-286 -523)" fill="#4F4F4F" fill-opacity="0.8" style="mix-blend-mode:normal;"/>
</g>
<g id="Entwicklung" style="mix-blend-mode:normal;" figma:type="text">
<use xlink:href="#path7_fill" transform="translate(-49 -464)" fill="#FFFFFF" style="mix-blend-mode:normal;"/>
</g>
</g>
<g id="Grundlagen" style="mix-blend-mode:normal;" figma:type="symbol">
<g id="Rectangle 3" style="mix-blend-mode:normal;" figma:type="rounded-rectangle">
<use xlink:href="#path5_fill" transform="translate(-286 -363)" fill="#4F4F4F" fill-opacity="0.5" style="mix-blend-mode:normal;"/>
</g>
<g id="Vision und Konzept" style="mix-blend-mode:normal;" figma:type="text">
<use xlink:href="#path8_fill" transform="translate(-88 -306)" fill="#FFFFFF" style="mix-blend-mode:normal;"/>
</g>
</g>
<g id="Masterthesis" style="mix-blend-mode:normal;" figma:type="frame">
<g id="Rectangle 3" style="mix-blend-mode:normal;" figma:type="rounded-rectangle">
<use xlink:href="#path9_fill" transform="translate(-286 -733)" fill="#333333" style="mix-blend-mode:normal;"/>
</g>
<g id="Masterthesis" style="mix-blend-mode:normal;" figma:type="text">
<use xlink:href="#path10_fill" transform="translate(-76 -725)" fill="#FFFFFF" style="mix-blend-mode:normal;"/>
</g>
</g>
</g>
</g>
<defs>
<path id="path0_fill" d="M 2.832 9L 3.852 9L 3.852 1.2L 2.952 1.2L 1.248 2.112L 1.452 2.916L 2.808 2.184L 2.832 2.184L 2.832 9ZM 7.48434 9.132C 7.92834 9.132 8.20434 8.808 8.20434 8.376C 8.20434 7.932 7.91634 7.62 7.49634 7.62C 7.07634 7.62 6.77634 7.932 6.77634 8.376C 6.77634 8.808 7.06434 9.132 7.47234 9.132L 7.48434 9.132ZM 12.0917 9L 13.1357 9L 13.1357 5.34L 16.1957 5.34L 16.1957 4.476L 13.1357 4.476L 13.1357 1.788L 16.4477 1.788L 16.4477 0.912L 12.0917 0.912L 12.0917 9ZM 21.4443 5.436C 21.4443 4.272 21.0123 3.06 19.2363 3.06C 18.5043 3.06 17.8083 3.264 17.3283 3.576L 17.5683 4.272C 17.9763 4.008 18.5403 3.84 19.0803 3.84C 20.2683 3.84 20.4003 4.704 20.4003 5.184L 20.4003 5.304C 18.1563 5.292 16.9083 6.06 16.9083 7.464C 16.9083 8.304 17.5083 9.132 18.6843 9.132C 19.5123 9.132 20.1363 8.724 20.4603 8.268L 20.4963 8.268L 20.5803 9L 21.5403 9C 21.4683 8.604 21.4443 8.112 21.4443 7.608L 21.4443 5.436ZM 20.4243 7.044C 20.4243 7.152 20.4003 7.272 20.3643 7.38C 20.1963 7.872 19.7163 8.352 18.9603 8.352C 18.4203 8.352 17.9643 8.028 17.9643 7.344C 17.9643 6.216 19.2723 6.012 20.4243 6.036L 20.4243 7.044ZM 27.1133 7.992C 26.8133 8.124 26.4173 8.28 25.8173 8.28C 24.6653 8.28 23.8013 7.452 23.8013 6.108C 23.8013 4.896 24.5213 3.912 25.8533 3.912C 26.4293 3.912 26.8253 4.044 27.0773 4.188L 27.3173 3.372C 27.0293 3.228 26.4773 3.072 25.8533 3.072C 23.9573 3.072 22.7333 4.368 22.7333 6.156C 22.7333 7.932 23.8733 9.132 25.6253 9.132C 26.4053 9.132 27.0173 8.928 27.2933 8.784L 27.1133 7.992ZM 28.5322 9L 29.5882 9L 29.5882 5.496C 29.5882 5.292 29.6003 5.136 29.6602 4.992C 29.8522 4.416 30.3923 3.936 31.0762 3.936C 32.0723 3.936 32.4203 4.728 32.4203 5.664L 32.4203 9L 33.4763 9L 33.4763 5.544C 33.4763 3.54 32.2283 3.06 31.4483 3.06C 31.0522 3.06 30.6803 3.18 30.3682 3.36C 30.0443 3.54 29.7803 3.804 29.6123 4.104L 29.5882 4.104L 29.5882 0.48L 28.5322 0.48L 28.5322 9ZM 34.7805 8.724C 35.1885 8.964 35.7765 9.132 36.4125 9.132C 37.7925 9.132 38.5845 8.4 38.5845 7.38C 38.5845 6.516 38.0685 6.012 37.0605 5.628C 36.3045 5.34 35.9565 5.124 35.9565 4.644C 35.9565 4.212 36.3045 3.852 36.9285 3.852C 37.4685 3.852 37.8885 4.044 38.1165 4.188L 38.3805 3.42C 38.0565 3.228 37.5405 3.06 36.9525 3.06C 35.7045 3.06 34.9485 3.828 34.9485 4.764C 34.9485 5.46 35.4405 6.036 36.4845 6.408C 37.2645 6.696 37.5645 6.972 37.5645 7.476C 37.5645 7.956 37.2045 8.34 36.4365 8.34C 35.9085 8.34 35.3565 8.124 35.0445 7.92L 34.7805 8.724ZM 44.6143 6.288C 44.6263 6.18 44.6503 6.012 44.6503 5.796C 44.6503 4.728 44.1463 3.06 42.2503 3.06C 40.5583 3.06 39.5263 4.44 39.5263 6.192C 39.5263 7.944 40.5943 9.132 42.3823 9.132C 43.3063 9.132 43.9423 8.928 44.3143 8.76L 44.1343 8.004C 43.7383 8.172 43.2823 8.304 42.5263 8.304C 41.4703 8.304 40.5583 7.716 40.5343 6.288L 44.6143 6.288ZM 40.5463 5.532C 40.6303 4.8 41.0983 3.816 42.1663 3.816C 43.3543 3.816 43.6423 4.86 43.6303 5.532L 40.5463 5.532ZM 45.958 9L 46.99 9L 46.99 5.496C 46.99 5.316 47.014 5.136 47.074 4.98C 47.242 4.452 47.722 3.924 48.382 3.924C 49.186 3.924 49.594 4.596 49.594 5.52L 49.594 9L 50.626 9L 50.626 5.412C 50.626 5.22 50.662 5.028 50.71 4.884C 50.89 4.368 51.358 3.924 51.958 3.924C 52.81 3.924 53.218 4.596 53.218 5.712L 53.218 9L 54.25 9L 54.25 5.58C 54.25 3.564 53.11 3.06 52.342 3.06C 51.79 3.06 51.406 3.204 51.058 3.468C 50.818 3.648 50.59 3.9 50.41 4.224L 50.386 4.224C 50.134 3.54 49.534 3.06 48.742 3.06C 47.782 3.06 47.242 3.576 46.918 4.128L 46.882 4.128L 46.834 3.192L 45.91 3.192C 45.946 3.672 45.958 4.164 45.958 4.764L 45.958 9ZM 60.6338 6.288C 60.6458 6.18 60.6698 6.012 60.6698 5.796C 60.6698 4.728 60.1658 3.06 58.2698 3.06C 56.5778 3.06 55.5458 4.44 55.5458 6.192C 55.5458 7.944 56.6138 9.132 58.4018 9.132C 59.3258 9.132 59.9618 8.928 60.3338 8.76L 60.1538 8.004C 59.7578 8.172 59.3018 8.304 58.5458 8.304C 57.4898 8.304 56.5778 7.716 56.5538 6.288L 60.6338 6.288ZM 56.5658 5.532C 56.6498 4.8 57.1178 3.816 58.1858 3.816C 59.3738 3.816 59.6618 4.86 59.6498 5.532L 56.5658 5.532ZM 61.5696 8.724C 61.9776 8.964 62.5656 9.132 63.2016 9.132C 64.5816 9.132 65.3736 8.4 65.3736 7.38C 65.3736 6.516 64.8576 6.012 63.8496 5.628C 63.0936 5.34 62.7456 5.124 62.7456 4.644C 62.7456 4.212 63.0936 3.852 63.7176 3.852C 64.2576 3.852 64.6776 4.044 64.9056 4.188L 65.1696 3.42C 64.8456 3.228 64.3296 3.06 63.7416 3.06C 62.4936 3.06 61.7376 3.828 61.7376 4.764C 61.7376 5.46 62.2296 6.036 63.2736 6.408C 64.0536 6.696 64.3536 6.972 64.3536 7.476C 64.3536 7.956 63.9936 8.34 63.2256 8.34C 62.6976 8.34 62.1456 8.124 61.8336 7.92L 61.5696 8.724ZM 66.9754 2.124L 66.9754 3.192L 66.0754 3.192L 66.0754 3.996L 66.9754 3.996L 66.9754 7.164C 66.9754 7.848 67.0834 8.364 67.3834 8.676C 67.6354 8.964 68.0314 9.132 68.5234 9.132C 68.9314 9.132 69.2554 9.06 69.4594 8.976L 69.4114 8.184C 69.2554 8.232 69.0874 8.256 68.7994 8.256C 68.2114 8.256 68.0074 7.848 68.0074 7.128L 68.0074 3.996L 69.5194 3.996L 69.5194 3.192L 68.0074 3.192L 68.0074 1.8L 66.9754 2.124ZM 75.3057 6.288C 75.3177 6.18 75.3417 6.012 75.3417 5.796C 75.3417 4.728 74.8377 3.06 72.9417 3.06C 71.2497 3.06 70.2177 4.44 70.2177 6.192C 70.2177 7.944 71.2857 9.132 73.0737 9.132C 73.9977 9.132 74.6337 8.928 75.0057 8.76L 74.8257 8.004C 74.4297 8.172 73.9737 8.304 73.2177 8.304C 72.1617 8.304 71.2497 7.716 71.2257 6.288L 75.3057 6.288ZM 71.2377 5.532C 71.3217 4.8 71.7897 3.816 72.8577 3.816C 74.0457 3.816 74.3337 4.86 74.3217 5.532L 71.2377 5.532ZM 76.6494 9L 77.6934 9L 77.6934 5.904C 77.6934 5.724 77.7174 5.556 77.7414 5.412C 77.8854 4.62 78.4134 4.056 79.1574 4.056C 79.3014 4.056 79.4094 4.068 79.5174 4.092L 79.5174 3.096C 79.4214 3.072 79.3374 3.06 79.2174 3.06C 78.5094 3.06 77.8734 3.552 77.6094 4.332L 77.5614 4.332L 77.5254 3.192L 76.6014 3.192C 76.6374 3.732 76.6494 4.32 76.6494 5.004L 76.6494 9Z"/>
<path id="path1_stroke" d="M 0 0L 1302 0L 1302 -1L 0 -1L 0 0Z"/>
<path id="path2_fill" d="M 5.52 9L 5.52 8.124L 2.028 8.124L 2.028 8.1L 2.64 7.524C 4.284 5.94 5.328 4.776 5.328 3.336C 5.328 2.22 4.62 1.068 2.952 1.068C 2.052 1.068 1.272 1.416 0.744 1.86L 1.08 2.604C 1.44 2.304 2.028 1.944 2.736 1.944C 3.9 1.944 4.272 2.676 4.272 3.468C 4.272 4.644 3.36 5.652 1.368 7.548L 0.54 8.352L 0.54 9L 5.52 9ZM 7.48434 9.132C 7.91634 9.132 8.20434 8.808 8.20434 8.376C 8.20434 7.932 7.91634 7.62 7.49634 7.62C 7.07634 7.62 6.77634 7.944 6.77634 8.376C 6.77634 8.808 7.06434 9.132 7.47234 9.132L 7.48434 9.132ZM 12.0797 9L 13.1357 9L 13.1357 5.34L 16.1837 5.34L 16.1837 4.476L 13.1357 4.476L 13.1357 1.788L 16.4357 1.788L 16.4357 0.912L 12.0797 0.912L 12.0797 9ZM 21.4563 5.436C 21.4563 4.272 21.0243 3.06 19.2363 3.06C 18.5043 3.06 17.7963 3.264 17.3163 3.564L 17.5563 4.272C 17.9643 3.996 18.5283 3.84 19.0803 3.84C 20.2683 3.828 20.4003 4.704 20.4003 5.184L 20.4003 5.304C 18.1563 5.292 16.9083 6.06 16.9083 7.464C 16.9083 8.304 17.5083 9.132 18.6843 9.132C 19.5123 9.132 20.1483 8.724 20.4603 8.268L 20.4963 8.268L 20.5923 9L 21.5403 9C 21.4803 8.604 21.4563 8.112 21.4563 7.608L 21.4563 5.436ZM 20.4243 7.044C 20.4243 7.152 20.4123 7.272 20.3763 7.38C 20.2083 7.872 19.7163 8.352 18.9483 8.352C 18.4203 8.352 17.9643 8.04 17.9643 7.344C 17.9643 6.216 19.2723 6.012 20.4243 6.036L 20.4243 7.044ZM 27.1133 7.992C 26.8133 8.124 26.4173 8.268 25.8173 8.268C 24.6653 8.268 23.8013 7.44 23.8013 6.096C 23.8013 4.896 24.5213 3.9 25.8533 3.9C 26.4293 3.9 26.8253 4.044 27.0773 4.176L 27.3173 3.372C 27.0293 3.216 26.4773 3.06 25.8533 3.06C 23.9573 3.06 22.7333 4.368 22.7333 6.156C 22.7333 7.932 23.8733 9.12 25.6253 9.12C 26.4053 9.12 27.0173 8.916 27.2933 8.784L 27.1133 7.992ZM 28.5323 9L 29.5882 9L 29.5882 5.496C 29.5882 5.292 29.6003 5.136 29.6603 4.992C 29.8643 4.416 30.3923 3.936 31.0763 3.936C 32.0723 3.936 32.4203 4.716 32.4203 5.652L 32.4203 9L 33.4763 9L 33.4763 5.544C 33.4763 3.54 32.2283 3.06 31.4483 3.06C 31.0523 3.06 30.6803 3.168 30.3682 3.36C 30.0442 3.528 29.7802 3.804 29.6122 4.104L 29.5882 4.104L 29.5882 0.48L 28.5323 0.48L 28.5323 9ZM 34.7925 8.712C 35.2005 8.952 35.7885 9.12 36.4245 9.12C 37.7805 9.12 38.5845 8.4 38.5845 7.368C 38.5845 6.504 38.0565 6 37.0605 5.628C 36.3045 5.328 35.9685 5.112 35.9685 4.632C 35.9685 4.2 36.3045 3.84 36.9285 3.84C 37.4685 3.84 37.8885 4.044 38.1165 4.176L 38.3685 3.42C 38.0565 3.216 37.5405 3.06 36.9525 3.06C 35.7165 3.06 34.9485 3.828 34.9485 4.764C 34.9485 5.448 35.4405 6.024 36.4965 6.408C 37.2645 6.696 37.5645 6.96 37.5645 7.464C 37.5645 7.956 37.2045 8.328 36.4485 8.328C 35.9205 8.328 35.3685 8.112 35.0445 7.92L 34.7925 8.712ZM 44.6143 6.288C 44.6383 6.168 44.6503 6.012 44.6503 5.796C 44.6503 4.728 44.1583 3.06 42.2623 3.06C 40.5703 3.06 39.5263 4.44 39.5263 6.192C 39.5263 7.932 40.6063 9.12 42.3823 9.12C 43.3063 9.12 43.9543 8.916 44.3263 8.748L 44.1343 7.992C 43.7503 8.16 43.2823 8.292 42.5263 8.292C 41.4703 8.292 40.5703 7.704 40.5463 6.288L 44.6143 6.288ZM 40.5583 5.532C 40.6423 4.8 41.0983 3.816 42.1783 3.816C 43.3543 3.816 43.6423 4.86 43.6303 5.532L 40.5583 5.532ZM 45.958 9L 46.99 9L 46.99 5.496C 46.99 5.316 47.014 5.136 47.074 4.98C 47.242 4.452 47.734 3.924 48.382 3.924C 49.186 3.924 49.594 4.584 49.594 5.508L 49.594 9L 50.626 9L 50.626 5.4C 50.626 5.22 50.662 5.028 50.71 4.872C 50.902 4.368 51.358 3.924 51.97 3.924C 52.81 3.924 53.23 4.584 53.23 5.712L 53.23 9L 54.262 9L 54.262 5.58C 54.262 3.564 53.122 3.06 52.342 3.06C 51.79 3.06 51.418 3.204 51.07 3.468C 50.83 3.648 50.59 3.888 50.41 4.224L 50.386 4.224C 50.134 3.54 49.534 3.06 48.754 3.06C 47.782 3.06 47.242 3.576 46.918 4.128L 46.882 4.128L 46.834 3.192L 45.91 3.192C 45.934 3.672 45.958 4.152 45.958 4.764L 45.958 9ZM 60.6338 6.288C 60.6578 6.168 60.6698 6.012 60.6698 5.796C 60.6698 4.728 60.1778 3.06 58.2818 3.06C 56.5898 3.06 55.5458 4.44 55.5458 6.192C 55.5458 7.932 56.6258 9.12 58.4018 9.12C 59.3258 9.12 59.9738 8.916 60.3458 8.748L 60.1538 7.992C 59.7698 8.16 59.3018 8.292 58.5458 8.292C 57.4898 8.292 56.5898 7.704 56.5658 6.288L 60.6338 6.288ZM 56.5778 5.532C 56.6618 4.8 57.1178 3.816 58.1978 3.816C 59.3738 3.816 59.6618 4.86 59.6498 5.532L 56.5778 5.532ZM 61.5816 8.712C 61.9896 8.952 62.5776 9.12 63.2136 9.12C 64.5696 9.12 65.3736 8.4 65.3736 7.368C 65.3736 6.504 64.8456 6 63.8496 5.628C 63.0936 5.328 62.7576 5.112 62.7576 4.632C 62.7576 4.2 63.0936 3.84 63.7176 3.84C 64.2576 3.84 64.6776 4.044 64.9056 4.176L 65.1576 3.42C 64.8456 3.216 64.3296 3.06 63.7416 3.06C 62.5056 3.06 61.7376 3.828 61.7376 4.764C 61.7376 5.448 62.2296 6.024 63.2856 6.408C 64.0536 6.696 64.3536 6.96 64.3536 7.464C 64.3536 7.956 63.9936 8.328 63.2376 8.328C 62.7096 8.328 62.1576 8.112 61.8336 7.92L 61.5816 8.712ZM 66.9754 2.124L 66.9754 3.192L 66.0754 3.192L 66.0754 3.996L 66.9754 3.996L 66.9754 7.152C 66.9754 7.836 67.0954 8.352 67.3834 8.676C 67.6354 8.952 68.0314 9.12 68.5234 9.12C 68.9314 9.12 69.2554 9.048 69.4594 8.976L 69.4114 8.172C 69.2554 8.22 69.0874 8.244 68.7994 8.244C 68.2114 8.244 68.0074 7.836 68.0074 7.116L 68.0074 3.996L 69.5194 3.996L 69.5194 3.192L 68.0074 3.192L 68.0074 1.8L 66.9754 2.124ZM 75.3057 6.288C 75.3297 6.168 75.3417 6.012 75.3417 5.796C 75.3417 4.728 74.8497 3.06 72.9537 3.06C 71.2617 3.06 70.2177 4.44 70.2177 6.192C 70.2177 7.932 71.2977 9.12 73.0737 9.12C 73.9977 9.12 74.6457 8.916 75.0177 8.748L 74.8257 7.992C 74.4417 8.16 73.9737 8.292 73.2177 8.292C 72.1617 8.292 71.2617 7.704 71.2377 6.288L 75.3057 6.288ZM 71.2497 5.532C 71.3337 4.8 71.7897 3.816 72.8697 3.816C 74.0457 3.816 74.3337 4.86 74.3217 5.532L 71.2497 5.532ZM 76.6494 9L 77.7054 9L 77.7054 5.892C 77.7054 5.724 77.7174 5.556 77.7414 5.4C 77.8854 4.62 78.4134 4.056 79.1574 4.056C 79.3014 4.056 79.4094 4.068 79.5174 4.08L 79.5174 3.084C 79.4214 3.072 79.3374 3.06 79.2294 3.06C 78.5214 3.06 77.8734 3.552 77.6094 4.332L 77.5734 4.332L 77.5254 3.192L 76.6014 3.192C 76.6374 3.732 76.6494 4.32 76.6494 5.004L 76.6494 9Z"/>
<path id="path3_fill" d="M 0.504 8.604C 0.888 8.856 1.656 9.132 2.532 9.132C 4.392 9.132 5.376 8.04 5.376 6.792C 5.376 5.7 4.596 4.98 3.636 4.8L 3.636 4.776C 4.584 4.428 5.076 3.744 5.076 2.928C 5.076 1.98 4.38 1.068 2.844 1.068C 2.004 1.068 1.212 1.368 0.792 1.668L 1.08 2.436C 1.416 2.196 2.016 1.92 2.64 1.92C 3.612 1.92 4.008 2.472 4.008 3.096C 4.008 4.02 3.036 4.416 2.268 4.416L 1.68 4.416L 1.68 5.208L 2.268 5.208C 3.288 5.208 4.272 5.676 4.284 6.768C 4.296 7.428 3.864 8.28 2.52 8.28C 1.776 8.28 1.092 7.98 0.792 7.8L 0.504 8.604ZM 7.48434 9.132C 7.91634 9.132 8.20434 8.808 8.20434 8.376C 8.20434 7.932 7.91634 7.62 7.49634 7.62C 7.07634 7.62 6.77634 7.944 6.77634 8.376C 6.77634 8.808 7.06434 9.132 7.47234 9.132L 7.48434 9.132ZM 12.0797 9L 13.1357 9L 13.1357 5.34L 16.1837 5.34L 16.1837 4.476L 13.1357 4.476L 13.1357 1.788L 16.4357 1.788L 16.4357 0.912L 12.0797 0.912L 12.0797 9ZM 21.4563 5.436C 21.4563 4.272 21.0243 3.06 19.2363 3.06C 18.5043 3.06 17.7963 3.264 17.3163 3.564L 17.5563 4.272C 17.9643 3.996 18.5283 3.84 19.0803 3.84C 20.2683 3.828 20.4003 4.704 20.4003 5.184L 20.4003 5.304C 18.1563 5.292 16.9083 6.06 16.9083 7.464C 16.9083 8.304 17.5083 9.132 18.6843 9.132C 19.5123 9.132 20.1483 8.724 20.4603 8.268L 20.4963 8.268L 20.5923 9L 21.5403 9C 21.4803 8.604 21.4563 8.112 21.4563 7.608L 21.4563 5.436ZM 20.4243 7.044C 20.4243 7.152 20.4123 7.272 20.3763 7.38C 20.2083 7.872 19.7163 8.352 18.9483 8.352C 18.4203 8.352 17.9643 8.04 17.9643 7.344C 17.9643 6.216 19.2723 6.012 20.4243 6.036L 20.4243 7.044ZM 27.1133 7.992C 26.8133 8.124 26.4173 8.268 25.8173 8.268C 24.6653 8.268 23.8013 7.44 23.8013 6.096C 23.8013 4.896 24.5213 3.9 25.8533 3.9C 26.4293 3.9 26.8253 4.044 27.0773 4.176L 27.3173 3.372C 27.0293 3.216 26.4773 3.06 25.8533 3.06C 23.9573 3.06 22.7333 4.368 22.7333 6.156C 22.7333 7.932 23.8733 9.12 25.6253 9.12C 26.4053 9.12 27.0173 8.916 27.2933 8.784L 27.1133 7.992ZM 28.5323 9L 29.5882 9L 29.5882 5.496C 29.5882 5.292 29.6003 5.136 29.6603 4.992C 29.8643 4.416 30.3923 3.936 31.0763 3.936C 32.0723 3.936 32.4203 4.716 32.4203 5.652L 32.4203 9L 33.4763 9L 33.4763 5.544C 33.4763 3.54 32.2283 3.06 31.4483 3.06C 31.0523 3.06 30.6803 3.168 30.3682 3.36C 30.0442 3.528 29.7802 3.804 29.6122 4.104L 29.5882 4.104L 29.5882 0.48L 28.5323 0.48L 28.5323 9ZM 34.7925 8.712C 35.2005 8.952 35.7885 9.12 36.4245 9.12C 37.7805 9.12 38.5845 8.4 38.5845 7.368C 38.5845 6.504 38.0565 6 37.0605 5.628C 36.3045 5.328 35.9685 5.112 35.9685 4.632C 35.9685 4.2 36.3045 3.84 36.9285 3.84C 37.4685 3.84 37.8885 4.044 38.1165 4.176L 38.3685 3.42C 38.0565 3.216 37.5405 3.06 36.9525 3.06C 35.7165 3.06 34.9485 3.828 34.9485 4.764C 34.9485 5.448 35.4405 6.024 36.4965 6.408C 37.2645 6.696 37.5645 6.96 37.5645 7.464C 37.5645 7.956 37.2045 8.328 36.4485 8.328C 35.9205 8.328 35.3685 8.112 35.0445 7.92L 34.7925 8.712ZM 44.6143 6.288C 44.6383 6.168 44.6503 6.012 44.6503 5.796C 44.6503 4.728 44.1583 3.06 42.2623 3.06C 40.5703 3.06 39.5263 4.44 39.5263 6.192C 39.5263 7.932 40.6063 9.12 42.3823 9.12C 43.3063 9.12 43.9543 8.916 44.3263 8.748L 44.1343 7.992C 43.7503 8.16 43.2823 8.292 42.5263 8.292C 41.4703 8.292 40.5703 7.704 40.5463 6.288L 44.6143 6.288ZM 40.5583 5.532C 40.6423 4.8 41.0983 3.816 42.1783 3.816C 43.3543 3.816 43.6423 4.86 43.6303 5.532L 40.5583 5.532ZM 45.958 9L 46.99 9L 46.99 5.496C 46.99 5.316 47.014 5.136 47.074 4.98C 47.242 4.452 47.734 3.924 48.382 3.924C 49.186 3.924 49.594 4.584 49.594 5.508L 49.594 9L 50.626 9L 50.626 5.4C 50.626 5.22 50.662 5.028 50.71 4.872C 50.902 4.368 51.358 3.924 51.97 3.924C 52.81 3.924 53.23 4.584 53.23 5.712L 53.23 9L 54.262 9L 54.262 5.58C 54.262 3.564 53.122 3.06 52.342 3.06C 51.79 3.06 51.418 3.204 51.07 3.468C 50.83 3.648 50.59 3.888 50.41 4.224L 50.386 4.224C 50.134 3.54 49.534 3.06 48.754 3.06C 47.782 3.06 47.242 3.576 46.918 4.128L 46.882 4.128L 46.834 3.192L 45.91 3.192C 45.934 3.672 45.958 4.152 45.958 4.764L 45.958 9ZM 60.6338 6.288C 60.6578 6.168 60.6698 6.012 60.6698 5.796C 60.6698 4.728 60.1778 3.06 58.2818 3.06C 56.5898 3.06 55.5458 4.44 55.5458 6.192C 55.5458 7.932 56.6258 9.12 58.4018 9.12C 59.3258 9.12 59.9738 8.916 60.3458 8.748L 60.1538 7.992C 59.7698 8.16 59.3018 8.292 58.5458 8.292C 57.4898 8.292 56.5898 7.704 56.5658 6.288L 60.6338 6.288ZM 56.5778 5.532C 56.6618 4.8 57.1178 3.816 58.1978 3.816C 59.3738 3.816 59.6618 4.86 59.6498 5.532L 56.5778 5.532ZM 61.5816 8.712C 61.9896 8.952 62.5776 9.12 63.2136 9.12C 64.5696 9.12 65.3736 8.4 65.3736 7.368C 65.3736 6.504 64.8456 6 63.8496 5.628C 63.0936 5.328 62.7576 5.112 62.7576 4.632C 62.7576 4.2 63.0936 3.84 63.7176 3.84C 64.2576 3.84 64.6776 4.044 64.9056 4.176L 65.1576 3.42C 64.8456 3.216 64.3296 3.06 63.7416 3.06C 62.5056 3.06 61.7376 3.828 61.7376 4.764C 61.7376 5.448 62.2296 6.024 63.2856 6.408C 64.0536 6.696 64.3536 6.96 64.3536 7.464C 64.3536 7.956 63.9936 8.328 63.2376 8.328C 62.7096 8.328 62.1576 8.112 61.8336 7.92L 61.5816 8.712ZM 66.9754 2.124L 66.9754 3.192L 66.0754 3.192L 66.0754 3.996L 66.9754 3.996L 66.9754 7.152C 66.9754 7.836 67.0954 8.352 67.3834 8.676C 67.6354 8.952 68.0314 9.12 68.5234 9.12C 68.9314 9.12 69.2554 9.048 69.4594 8.976L 69.4114 8.172C 69.2554 8.22 69.0874 8.244 68.7994 8.244C 68.2114 8.244 68.0074 7.836 68.0074 7.116L 68.0074 3.996L 69.5194 3.996L 69.5194 3.192L 68.0074 3.192L 68.0074 1.8L 66.9754 2.124ZM 75.3057 6.288C 75.3297 6.168 75.3417 6.012 75.3417 5.796C 75.3417 4.728 74.8497 3.06 72.9537 3.06C 71.2617 3.06 70.2177 4.44 70.2177 6.192C 70.2177 7.932 71.2977 9.12 73.0737 9.12C 73.9977 9.12 74.6457 8.916 75.0177 8.748L 74.8257 7.992C 74.4417 8.16 73.9737 8.292 73.2177 8.292C 72.1617 8.292 71.2617 7.704 71.2377 6.288L 75.3057 6.288ZM 71.2497 5.532C 71.3337 4.8 71.7897 3.816 72.8697 3.816C 74.0457 3.816 74.3337 4.86 74.3217 5.532L 71.2497 5.532ZM 76.6494 9L 77.7054 9L 77.7054 5.892C 77.7054 5.724 77.7174 5.556 77.7414 5.4C 77.8854 4.62 78.4134 4.056 79.1574 4.056C 79.3014 4.056 79.4094 4.068 79.5174 4.08L 79.5174 3.084C 79.4214 3.072 79.3374 3.06 79.2294 3.06C 78.5214 3.06 77.8734 3.552 77.6094 4.332L 77.5734 4.332L 77.5254 3.192L 76.6014 3.192C 76.6374 3.732 76.6494 4.32 76.6494 5.004L 76.6494 9Z"/>
<path id="path4_fill" d="M 4.8 9L 4.8 6.864L 5.892 6.864L 5.892 6.048L 4.8 6.048L 4.8 1.2L 3.66 1.2L 0.18 6.18L 0.18 6.864L 3.804 6.864L 3.804 9L 4.8 9ZM 1.248 6.048L 1.248 6.024L 3.156 3.372C 3.372 3.012 3.564 2.676 3.804 2.22L 3.84 2.22C 3.816 2.628 3.804 3.036 3.804 3.444L 3.804 6.048L 1.248 6.048ZM 7.48434 9.132C 7.91634 9.132 8.20434 8.808 8.20434 8.376C 8.20434 7.932 7.91634 7.62 7.49634 7.62C 7.07634 7.62 6.77634 7.944 6.77634 8.376C 6.77634 8.808 7.06434 9.132 7.47234 9.132L 7.48434 9.132ZM 12.0797 9L 13.1357 9L 13.1357 5.34L 16.1837 5.34L 16.1837 4.476L 13.1357 4.476L 13.1357 1.788L 16.4357 1.788L 16.4357 0.912L 12.0797 0.912L 12.0797 9ZM 21.4563 5.436C 21.4563 4.272 21.0243 3.06 19.2363 3.06C 18.5043 3.06 17.7963 3.264 17.3163 3.564L 17.5563 4.272C 17.9643 3.996 18.5283 3.84 19.0803 3.84C 20.2683 3.828 20.4003 4.704 20.4003 5.184L 20.4003 5.304C 18.1563 5.292 16.9083 6.06 16.9083 7.464C 16.9083 8.304 17.5083 9.132 18.6843 9.132C 19.5123 9.132 20.1483 8.724 20.4603 8.268L 20.4963 8.268L 20.5923 9L 21.5403 9C 21.4803 8.604 21.4563 8.112 21.4563 7.608L 21.4563 5.436ZM 20.4243 7.044C 20.4243 7.152 20.4123 7.272 20.3763 7.38C 20.2083 7.872 19.7163 8.352 18.9483 8.352C 18.4203 8.352 17.9643 8.04 17.9643 7.344C 17.9643 6.216 19.2723 6.012 20.4243 6.036L 20.4243 7.044ZM 27.1133 7.992C 26.8133 8.124 26.4173 8.268 25.8173 8.268C 24.6653 8.268 23.8013 7.44 23.8013 6.096C 23.8013 4.896 24.5213 3.9 25.8533 3.9C 26.4293 3.9 26.8253 4.044 27.0773 4.176L 27.3173 3.372C 27.0293 3.216 26.4773 3.06 25.8533 3.06C 23.9573 3.06 22.7333 4.368 22.7333 6.156C 22.7333 7.932 23.8733 9.12 25.6253 9.12C 26.4053 9.12 27.0173 8.916 27.2933 8.784L 27.1133 7.992ZM 28.5323 9L 29.5882 9L 29.5882 5.496C 29.5882 5.292 29.6003 5.136 29.6603 4.992C 29.8643 4.416 30.3923 3.936 31.0763 3.936C 32.0723 3.936 32.4203 4.716 32.4203 5.652L 32.4203 9L 33.4763 9L 33.4763 5.544C 33.4763 3.54 32.2283 3.06 31.4483 3.06C 31.0523 3.06 30.6803 3.168 30.3682 3.36C 30.0442 3.528 29.7802 3.804 29.6122 4.104L 29.5882 4.104L 29.5882 0.48L 28.5323 0.48L 28.5323 9ZM 34.7925 8.712C 35.2005 8.952 35.7885 9.12 36.4245 9.12C 37.7805 9.12 38.5845 8.4 38.5845 7.368C 38.5845 6.504 38.0565 6 37.0605 5.628C 36.3045 5.328 35.9685 5.112 35.9685 4.632C 35.9685 4.2 36.3045 3.84 36.9285 3.84C 37.4685 3.84 37.8885 4.044 38.1165 4.176L 38.3685 3.42C 38.0565 3.216 37.5405 3.06 36.9525 3.06C 35.7165 3.06 34.9485 3.828 34.9485 4.764C 34.9485 5.448 35.4405 6.024 36.4965 6.408C 37.2645 6.696 37.5645 6.96 37.5645 7.464C 37.5645 7.956 37.2045 8.328 36.4485 8.328C 35.9205 8.328 35.3685 8.112 35.0445 7.92L 34.7925 8.712ZM 44.6143 6.288C 44.6383 6.168 44.6503 6.012 44.6503 5.796C 44.6503 4.728 44.1583 3.06 42.2623 3.06C 40.5703 3.06 39.5263 4.44 39.5263 6.192C 39.5263 7.932 40.6063 9.12 42.3823 9.12C 43.3063 9.12 43.9543 8.916 44.3263 8.748L 44.1343 7.992C 43.7503 8.16 43.2823 8.292 42.5263 8.292C 41.4703 8.292 40.5703 7.704 40.5463 6.288L 44.6143 6.288ZM 40.5583 5.532C 40.6423 4.8 41.0983 3.816 42.1783 3.816C 43.3543 3.816 43.6423 4.86 43.6303 5.532L 40.5583 5.532ZM 45.958 9L 46.99 9L 46.99 5.496C 46.99 5.316 47.014 5.136 47.074 4.98C 47.242 4.452 47.734 3.924 48.382 3.924C 49.186 3.924 49.594 4.584 49.594 5.508L 49.594 9L 50.626 9L 50.626 5.4C 50.626 5.22 50.662 5.028 50.71 4.872C 50.902 4.368 51.358 3.924 51.97 3.924C 52.81 3.924 53.23 4.584 53.23 5.712L 53.23 9L 54.262 9L 54.262 5.58C 54.262 3.564 53.122 3.06 52.342 3.06C 51.79 3.06 51.418 3.204 51.07 3.468C 50.83 3.648 50.59 3.888 50.41 4.224L 50.386 4.224C 50.134 3.54 49.534 3.06 48.754 3.06C 47.782 3.06 47.242 3.576 46.918 4.128L 46.882 4.128L 46.834 3.192L 45.91 3.192C 45.934 3.672 45.958 4.152 45.958 4.764L 45.958 9ZM 60.6338 6.288C 60.6578 6.168 60.6698 6.012 60.6698 5.796C 60.6698 4.728 60.1778 3.06 58.2818 3.06C 56.5898 3.06 55.5458 4.44 55.5458 6.192C 55.5458 7.932 56.6258 9.12 58.4018 9.12C 59.3258 9.12 59.9738 8.916 60.3458 8.748L 60.1538 7.992C 59.7698 8.16 59.3018 8.292 58.5458 8.292C 57.4898 8.292 56.5898 7.704 56.5658 6.288L 60.6338 6.288ZM 56.5778 5.532C 56.6618 4.8 57.1178 3.816 58.1978 3.816C 59.3738 3.816 59.6618 4.86 59.6498 5.532L 56.5778 5.532ZM 61.5816 8.712C 61.9896 8.952 62.5776 9.12 63.2136 9.12C 64.5696 9.12 65.3736 8.4 65.3736 7.368C 65.3736 6.504 64.8456 6 63.8496 5.628C 63.0936 5.328 62.7576 5.112 62.7576 4.632C 62.7576 4.2 63.0936 3.84 63.7176 3.84C 64.2576 3.84 64.6776 4.044 64.9056 4.176L 65.1576 3.42C 64.8456 3.216 64.3296 3.06 63.7416 3.06C 62.5056 3.06 61.7376 3.828 61.7376 4.764C 61.7376 5.448 62.2296 6.024 63.2856 6.408C 64.0536 6.696 64.3536 6.96 64.3536 7.464C 64.3536 7.956 63.9936 8.328 63.2376 8.328C 62.7096 8.328 62.1576 8.112 61.8336 7.92L 61.5816 8.712ZM 66.9754 2.124L 66.9754 3.192L 66.0754 3.192L 66.0754 3.996L 66.9754 3.996L 66.9754 7.152C 66.9754 7.836 67.0954 8.352 67.3834 8.676C 67.6354 8.952 68.0314 9.12 68.5234 9.12C 68.9314 9.12 69.2554 9.048 69.4594 8.976L 69.4114 8.172C 69.2554 8.22 69.0874 8.244 68.7994 8.244C 68.2114 8.244 68.0074 7.836 68.0074 7.116L 68.0074 3.996L 69.5194 3.996L 69.5194 3.192L 68.0074 3.192L 68.0074 1.8L 66.9754 2.124ZM 75.3057 6.288C 75.3297 6.168 75.3417 6.012 75.3417 5.796C 75.3417 4.728 74.8497 3.06 72.9537 3.06C 71.2617 3.06 70.2177 4.44 70.2177 6.192C 70.2177 7.932 71.2977 9.12 73.0737 9.12C 73.9977 9.12 74.6457 8.916 75.0177 8.748L 74.8257 7.992C 74.4417 8.16 73.9737 8.292 73.2177 8.292C 72.1617 8.292 71.2617 7.704 71.2377 6.288L 75.3057 6.288ZM 71.2497 5.532C 71.3337 4.8 71.7897 3.816 72.8697 3.816C 74.0457 3.816 74.3337 4.86 74.3217 5.532L 71.2497 5.532ZM 76.6494 9L 77.7054 9L 77.7054 5.892C 77.7054 5.724 77.7174 5.556 77.7414 5.4C 77.8854 4.62 78.4134 4.056 79.1574 4.056C 79.3014 4.056 79.4094 4.068 79.5174 4.08L 79.5174 3.084C 79.4214 3.072 79.3374 3.06 79.2294 3.06C 78.5214 3.06 77.8734 3.552 77.6094 4.332L 77.5734 4.332L 77.5254 3.192L 76.6014 3.192C 76.6374 3.732 76.6494 4.32 76.6494 5.004L 76.6494 9Z"/>
<path id="path5_fill" d="M 0 0L 600 0L 600 140L 0 140L 0 0Z"/>
<path id="path6_fill" d="M 29.5119 12.912L 31.2399 18L 33.4719 18L 27.9519 1.824L 25.4319 1.824L 19.9359 18L 22.0959 18L 23.7759 12.912L 29.5119 12.912ZM 24.2079 11.28L 25.7919 6.6C 26.1039 5.616 26.3679 4.608 26.5839 3.672L 26.6559 3.672C 26.8959 4.608 27.1359 5.568 27.4719 6.624L 29.0799 11.28L 24.2079 11.28ZM 34.8506 17.424C 35.6666 17.904 36.8426 18.24 38.1146 18.24C 40.8266 18.24 42.4346 16.8 42.4346 14.736C 42.4346 13.008 41.3786 12 39.3866 11.256C 37.8746 10.656 37.2026 10.224 37.2026 9.264C 37.2026 8.4 37.8746 7.68 39.1226 7.68C 40.2026 7.68 41.0426 8.088 41.4986 8.352L 42.0026 6.84C 41.3786 6.432 40.3466 6.12 39.1706 6.12C 36.6986 6.12 35.1626 7.656 35.1626 9.528C 35.1626 10.896 36.1466 12.048 38.2586 12.816C 39.7946 13.392 40.3946 13.92 40.3946 14.928C 40.3946 15.912 39.6746 16.656 38.1626 16.656C 37.1066 16.656 36.0026 16.224 35.3546 15.84L 34.8506 17.424ZM 44.3663 17.424C 45.1823 17.904 46.3583 18.24 47.6303 18.24C 50.3423 18.24 51.9502 16.8 51.9502 14.736C 51.9502 13.008 50.8942 12 48.9023 11.256C 47.3903 10.656 46.7182 10.224 46.7182 9.264C 46.7182 8.4 47.3903 7.68 48.6382 7.68C 49.7182 7.68 50.5583 8.088 51.0143 8.352L 51.5183 6.84C 50.8942 6.432 49.8623 6.12 48.6863 6.12C 46.2142 6.12 44.6782 7.656 44.6782 9.528C 44.6782 10.896 45.6623 12.048 47.7743 12.816C 49.3103 13.392 49.9102 13.92 49.9102 14.928C 49.9102 15.912 49.1902 16.656 47.6782 16.656C 46.6223 16.656 45.5183 16.224 44.8702 15.84L 44.3663 17.424ZM 64.0099 12.576C 64.0579 12.336 64.0819 12.024 64.0819 11.592C 64.0819 9.456 63.0979 6.12 59.3059 6.12C 55.9219 6.12 53.8339 8.88 53.8339 12.384C 53.8339 15.864 55.9939 18.24 59.5459 18.24C 61.3939 18.24 62.6899 17.832 63.4339 17.496L 63.0499 15.984C 62.2819 16.32 61.3459 16.584 59.8339 16.584C 57.7219 16.584 55.9219 15.408 55.8739 12.576L 64.0099 12.576ZM 55.8979 11.064C 56.0659 9.6 56.9779 7.632 59.1379 7.632C 61.4899 7.632 62.0659 9.72 62.0419 11.064L 55.8979 11.064ZM 65.9053 17.424C 66.7213 17.904 67.8973 18.24 69.1693 18.24C 71.8813 18.24 73.4893 16.8 73.4893 14.736C 73.4893 13.008 72.4333 12 70.4413 11.256C 68.9293 10.656 68.2573 10.224 68.2573 9.264C 68.2573 8.4 68.9293 7.68 70.1773 7.68C 71.2573 7.68 72.0973 8.088 72.5533 8.352L 73.0573 6.84C 72.4333 6.432 71.4013 6.12 70.2253 6.12C 67.7533 6.12 66.2173 7.656 66.2173 9.528C 66.2173 10.896 67.2013 12.048 69.3133 12.816C 70.8493 13.392 71.4493 13.92 71.4493 14.928C 71.4493 15.912 70.7293 16.656 69.2173 16.656C 68.1613 16.656 67.0573 16.224 66.4093 15.84L 65.9053 17.424ZM 75.4209 17.424C 76.2369 17.904 77.4129 18.24 78.6849 18.24C 81.3969 18.24 83.0049 16.8 83.0049 14.736C 83.0049 13.008 81.9489 12 79.9569 11.256C 78.4449 10.656 77.7729 10.224 77.7729 9.264C 77.7729 8.4 78.4449 7.68 79.6929 7.68C 80.7729 7.68 81.6129 8.088 82.0689 8.352L 82.5729 6.84C 81.9489 6.432 80.9169 6.12 79.7409 6.12C 77.2689 6.12 75.7329 7.656 75.7329 9.528C 75.7329 10.896 76.7169 12.048 78.8289 12.816C 80.3649 13.392 80.9649 13.92 80.9649 14.928C 80.9649 15.912 80.2449 16.656 78.7329 16.656C 77.6769 16.656 76.5729 16.224 75.9249 15.84L 75.4209 17.424ZM 85.7286 18L 87.7926 18L 87.7926 10.992C 87.7926 10.632 87.8406 10.272 87.9606 9.96C 88.2966 8.904 89.2806 7.848 90.5766 7.848C 92.1846 7.848 93.0006 9.168 93.0006 11.016L 93.0006 18L 95.0646 18L 95.0646 10.8C 95.0646 10.44 95.1366 10.056 95.2326 9.744C 95.6166 8.736 96.5286 7.848 97.7526 7.848C 99.4326 7.848 100.273 9.168 100.273 11.424L 100.273 18L 102.337 18L 102.337 11.16C 102.337 7.128 100.057 6.12 98.4966 6.12C 97.3926 6.12 96.6486 6.408 95.9526 6.936C 95.4726 7.296 94.9926 7.776 94.6326 8.448L 94.5846 8.448C 94.0806 7.08 92.8806 6.12 91.3206 6.12C 89.3766 6.12 88.2966 7.152 87.6486 8.256L 87.5766 8.256L 87.4806 6.384L 85.6326 6.384C 85.6806 7.344 85.7286 8.304 85.7286 9.528L 85.7286 18ZM 115.08 12.576C 115.128 12.336 115.152 12.024 115.152 11.592C 115.152 9.456 114.168 6.12 110.376 6.12C 106.992 6.12 104.904 8.88 104.904 12.384C 104.904 15.864 107.064 18.24 110.616 18.24C 112.464 18.24 113.76 17.832 114.504 17.496L 114.12 15.984C 113.352 16.32 112.416 16.584 110.904 16.584C 108.792 16.584 106.992 15.408 106.944 12.576L 115.08 12.576ZM 106.968 11.064C 107.136 9.6 108.048 7.632 110.208 7.632C 112.56 7.632 113.136 9.72 113.112 11.064L 106.968 11.064ZM 117.768 18L 119.88 18L 119.88 10.992C 119.88 10.656 119.928 10.272 120.024 10.008C 120.408 8.832 121.488 7.848 122.856 7.848C 124.848 7.848 125.544 9.432 125.544 11.304L 125.544 18L 127.656 18L 127.656 11.064C 127.656 7.08 125.16 6.12 123.552 6.12C 121.632 6.12 120.288 7.2 119.712 8.28L 119.664 8.28L 119.544 6.384L 117.672 6.384C 117.744 7.344 117.768 8.304 117.768 9.528L 117.768 18ZM 131.466 4.248L 131.466 6.384L 129.666 6.384L 129.666 7.992L 131.466 7.992L 131.466 14.304C 131.466 15.672 131.706 16.704 132.282 17.352C 132.786 17.904 133.578 18.24 134.562 18.24C 135.378 18.24 136.026 18.096 136.434 17.952L 136.338 16.344C 136.026 16.44 135.69 16.488 135.114 16.488C 133.938 16.488 133.53 15.672 133.53 14.232L 133.53 7.992L 136.554 7.992L 136.554 6.384L 133.53 6.384L 133.53 3.6L 131.466 4.248ZM 143.85 18.96L 150.57 1.56L 148.914 1.56L 142.242 18.96L 143.85 18.96ZM 165.754 8.688L 159.49 8.688L 159.49 3.576L 166.138 3.576L 166.138 1.824L 157.378 1.824L 157.378 18L 166.498 18L 166.498 16.248L 159.49 16.248L 159.49 10.416L 165.754 10.416L 165.754 8.688ZM 167.539 6.384L 171.955 18L 173.971 18L 178.531 6.384L 176.323 6.384L 174.067 12.888C 173.683 13.968 173.347 14.928 173.083 15.888L 173.011 15.888C 172.771 14.928 172.459 13.968 172.075 12.888L 169.795 6.384L 167.539 6.384ZM 188.624 10.872C 188.624 8.544 187.76 6.12 184.184 6.12C 182.72 6.12 181.304 6.528 180.344 7.128L 180.823 8.544C 181.639 7.992 182.767 7.68 183.871 7.68C 186.248 7.656 186.512 9.408 186.512 10.368L 186.512 10.608C 182.024 10.584 179.528 12.12 179.528 14.928C 179.528 16.608 180.727 18.264 183.079 18.264C 184.736 18.264 186.007 17.448 186.631 16.536L 186.703 16.536L 186.895 18L 188.791 18C 188.671 17.208 188.624 16.224 188.624 15.216L 188.624 10.872ZM 186.56 14.088C 186.56 14.304 186.536 14.544 186.464 14.76C 186.127 15.744 185.143 16.704 183.607 16.704C 182.551 16.704 181.639 16.08 181.639 14.688C 181.639 12.432 184.256 12.024 186.56 12.072L 186.56 14.088ZM 192.018 18L 194.13 18L 194.13 0.96L 192.018 0.96L 192.018 18ZM 207.41 6.384L 205.298 6.384L 205.298 13.488C 205.298 13.896 205.226 14.28 205.106 14.568C 204.721 15.528 203.738 16.512 202.322 16.512C 200.426 16.512 199.73 15 199.73 12.792L 199.73 6.384L 197.618 6.384L 197.618 13.176C 197.618 17.232 199.801 18.264 201.625 18.264C 203.689 18.264 204.938 17.04 205.465 16.104L 205.513 16.104L 205.633 18L 207.506 18C 207.434 17.088 207.41 16.032 207.41 14.808L 207.41 6.384ZM 219.092 10.872C 219.092 8.544 218.228 6.12 214.652 6.12C 213.188 6.12 211.772 6.528 210.812 7.128L 211.292 8.544C 212.108 7.992 213.236 7.68 214.34 7.68C 216.716 7.656 216.98 9.408 216.98 10.368L 216.98 10.608C 212.492 10.584 209.996 12.12 209.996 14.928C 209.996 16.608 211.196 18.264 213.548 18.264C 215.204 18.264 216.476 17.448 217.1 16.536L 217.172 16.536L 217.364 18L 219.26 18C 219.14 17.208 219.092 16.224 219.092 15.216L 219.092 10.872ZM 217.028 14.088C 217.028 14.304 217.004 14.544 216.932 14.76C 216.596 15.744 215.612 16.704 214.076 16.704C 213.02 16.704 212.108 16.08 212.108 14.688C 212.108 12.432 214.724 12.024 217.028 12.072L 217.028 14.088ZM 222.873 4.248L 222.873 6.384L 221.073 6.384L 221.073 7.992L 222.873 7.992L 222.873 14.304C 222.873 15.672 223.113 16.704 223.689 17.352C 224.193 17.904 224.985 18.24 225.969 18.24C 226.785 18.24 227.433 18.096 227.841 17.952L 227.745 16.344C 227.433 16.44 227.097 16.488 226.521 16.488C 225.345 16.488 224.937 15.672 224.937 14.232L 224.937 7.992L 227.961 7.992L 227.961 6.384L 224.937 6.384L 224.937 3.6L 222.873 4.248ZM 232.45 18L 232.45 6.384L 230.338 6.384L 230.338 18L 232.45 18ZM 231.37 4.416C 232.186 4.416 232.69 3.816 232.69 3.12C 232.69 2.376 232.162 1.8 231.394 1.8C 230.602 1.8 230.074 2.376 230.074 3.12C 230.074 3.816 230.578 4.416 231.346 4.416L 231.37 4.416ZM 240.715 18.264C 243.475 18.264 246.475 16.392 246.475 12.072C 246.475 8.544 244.219 6.12 240.883 6.12C 237.691 6.12 235.123 8.4 235.123 12.288C 235.123 15.96 237.571 18.264 240.691 18.264L 240.715 18.264ZM 240.763 16.68C 238.723 16.68 237.283 14.76 237.283 12.216C 237.283 10.008 238.363 7.704 240.835 7.704C 243.331 7.704 244.315 10.176 244.315 12.144C 244.315 14.784 242.803 16.68 240.787 16.68L 240.763 16.68ZM 249.135 18L 251.247 18L 251.247 10.992C 251.247 10.656 251.295 10.272 251.391 10.008C 251.775 8.832 252.855 7.848 254.223 7.848C 256.215 7.848 256.911 9.432 256.911 11.304L 256.911 18L 259.023 18L 259.023 11.064C 259.023 7.08 256.527 6.12 254.919 6.12C 252.999 6.12 251.655 7.2 251.079 8.28L 251.031 8.28L 250.911 6.384L 249.039 6.384C 249.111 7.344 249.135 8.304 249.135 9.528L 249.135 18ZM 262.567 20.808C 263.239 19.68 264.295 17.016 264.871 14.976L 262.519 15.216C 262.255 16.968 261.607 19.536 261.079 20.976L 262.567 20.808ZM 7.425 47L 9.537 47L 9.537 39.68L 15.633 39.68L 15.633 37.952L 9.537 37.952L 9.537 32.576L 16.137 32.576L 16.137 30.824L 7.425 30.824L 7.425 47ZM 23.0978 47.264C 25.8578 47.264 28.8577 45.392 28.8577 41.072C 28.8577 37.544 26.6017 35.12 23.2658 35.12C 20.0738 35.12 17.5057 37.4 17.5057 41.288C 17.5057 44.96 19.9537 47.264 23.0738 47.264L 23.0978 47.264ZM 23.1457 45.68C 21.1058 45.68 19.6657 43.76 19.6657 41.216C 19.6657 39.008 20.7458 36.704 23.2178 36.704C 25.7138 36.704 26.6977 39.176 26.6977 41.144C 26.6977 43.784 25.1857 45.68 23.1698 45.68L 23.1457 45.68ZM 31.5176 47L 33.6296 47L 33.6296 40.784C 33.6296 40.448 33.6536 40.112 33.7016 39.8C 33.9896 38.24 35.0456 37.112 36.5336 37.112C 36.8216 37.112 37.0376 37.136 37.2536 37.16L 37.2536 35.168C 37.0616 35.144 36.8936 35.12 36.6776 35.12C 35.2616 35.12 33.9656 36.104 33.4376 37.664L 33.3656 37.664L 33.2696 35.384L 31.4216 35.384C 31.4936 36.464 31.5176 37.64 31.5176 39.008L 31.5176 47ZM 38.5772 46.424C 39.3932 46.904 40.5692 47.24 41.8412 47.24C 44.5532 47.24 46.1612 45.8 46.1612 43.736C 46.1612 42.008 45.1052 41 43.1132 40.256C 41.6012 39.656 40.9292 39.224 40.9292 38.264C 40.9292 37.4 41.6012 36.68 42.8492 36.68C 43.9292 36.68 44.7692 37.088 45.2252 37.352L 45.7292 35.84C 45.1052 35.432 44.0732 35.12 42.8972 35.12C 40.4252 35.12 38.8892 36.656 38.8892 38.528C 38.8892 39.896 39.8732 41.048 41.9852 41.816C 43.5212 42.392 44.1212 42.92 44.1212 43.928C 44.1212 44.912 43.4012 45.656 41.8892 45.656C 40.8332 45.656 39.7292 45.224 39.0812 44.84L 38.5772 46.424ZM 56.8048 44.984C 56.2048 45.248 55.4128 45.536 54.2128 45.536C 51.9088 45.536 50.1808 43.88 50.1808 41.192C 50.1808 38.792 51.6208 36.8 54.2848 36.8C 55.4368 36.8 56.2288 37.088 56.7328 37.352L 57.2128 35.744C 56.6368 35.432 55.5328 35.12 54.2848 35.12C 50.4928 35.12 48.0448 37.736 48.0448 41.312C 48.0448 44.864 50.3248 47.24 53.8288 47.24C 55.3888 47.24 56.6128 46.832 57.1648 46.568L 56.8048 44.984ZM 59.6426 47L 61.7546 47L 61.7546 39.992C 61.7546 39.584 61.7786 39.272 61.8986 38.984C 62.3066 37.832 63.3626 36.872 64.7306 36.872C 66.7226 36.872 67.4186 38.432 67.4186 40.304L 67.4186 47L 69.5306 47L 69.5306 40.088C 69.5306 36.08 67.0346 35.12 65.4746 35.12C 64.6826 35.12 63.9386 35.336 63.3146 35.72C 62.6666 36.056 62.1386 36.608 61.8026 37.208L 61.7546 37.208L 61.7546 29.96L 59.6426 29.96L 59.6426 47ZM 82.6751 35.384L 80.5631 35.384L 80.5631 42.488C 80.5631 42.896 80.4911 43.28 80.3711 43.568C 79.9871 44.528 79.0031 45.512 77.5871 45.512C 75.6911 45.512 74.9951 44 74.9951 41.792L 74.9951 35.384L 72.8831 35.384L 72.8831 42.176C 72.8831 46.232 75.0671 47.264 76.8911 47.264C 78.9551 47.264 80.2031 46.04 80.7311 45.104L 80.7791 45.104L 80.8991 47L 82.7711 47C 82.6991 46.088 82.6751 45.032 82.6751 43.808L 82.6751 35.384ZM 86.1739 47L 88.2859 47L 88.2859 39.992C 88.2859 39.656 88.3339 39.272 88.4299 39.008C 88.8139 37.832 89.8939 36.848 91.2619 36.848C 93.2539 36.848 93.9499 38.432 93.9499 40.304L 93.9499 47L 96.0619 47L 96.0619 40.064C 96.0619 36.08 93.5659 35.12 91.9579 35.12C 90.0379 35.12 88.6939 36.2 88.1179 37.28L 88.0699 37.28L 87.9499 35.384L 86.0779 35.384C 86.1499 36.344 86.1739 37.304 86.1739 38.528L 86.1739 47ZM 109.422 38.552C 109.422 37.16 109.446 36.2 109.518 35.384L 107.646 35.384L 107.574 37.136L 107.526 37.136C 106.998 36.152 105.918 35.12 103.902 35.12C 101.214 35.12 98.6464 37.328 98.6464 41.264C 98.6464 44.504 100.71 46.952 103.59 46.952C 105.39 46.952 106.662 46.088 107.286 45.008L 107.334 45.008L 107.334 46.28C 107.334 49.232 105.75 50.36 103.59 50.36C 102.15 50.36 100.95 49.928 100.182 49.424L 99.6544 51.056C 100.59 51.68 102.126 52.016 103.518 52.016C 104.982 52.016 106.614 51.656 107.766 50.624C 108.87 49.592 109.422 47.984 109.422 45.296L 109.422 38.552ZM 107.31 42.032C 107.31 42.416 107.262 42.824 107.142 43.16C 106.71 44.528 105.534 45.344 104.214 45.344C 101.958 45.344 100.782 43.424 100.782 41.168C 100.782 38.456 102.222 36.752 104.238 36.752C 105.798 36.752 106.806 37.76 107.19 39.008C 107.286 39.296 107.31 39.608 107.31 39.944L 107.31 42.032ZM 127.699 35.384L 125.587 35.384L 125.587 42.488C 125.587 42.896 125.515 43.28 125.395 43.568C 125.011 44.528 124.027 45.512 122.611 45.512C 120.715 45.512 120.019 44 120.019 41.792L 120.019 35.384L 117.907 35.384L 117.907 42.176C 117.907 46.232 120.091 47.264 121.915 47.264C 123.979 47.264 125.227 46.04 125.755 45.104L 125.803 45.104L 125.923 47L 127.795 47C 127.723 46.088 127.699 45.032 127.699 43.808L 127.699 35.384ZM 131.197 47L 133.309 47L 133.309 39.992C 133.309 39.656 133.357 39.272 133.453 39.008C 133.837 37.832 134.917 36.848 136.285 36.848C 138.277 36.848 138.973 38.432 138.973 40.304L 138.973 47L 141.085 47L 141.085 40.064C 141.085 36.08 138.589 35.12 136.981 35.12C 135.061 35.12 133.717 36.2 133.141 37.28L 133.093 37.28L 132.973 35.384L 131.101 35.384C 131.173 36.344 131.197 37.304 131.197 38.528L 131.197 47ZM 152.43 29.96L 152.43 36.872L 152.382 36.872C 151.878 35.96 150.678 35.12 148.878 35.12C 146.07 35.12 143.646 37.472 143.67 41.36C 143.67 44.888 145.854 47.264 148.662 47.264C 150.558 47.264 151.95 46.28 152.598 44.984L 152.646 44.984L 152.742 47L 154.638 47C 154.566 46.208 154.542 45.032 154.542 44L 154.542 29.96L 152.43 29.96ZM 152.43 42.128C 152.43 42.464 152.406 42.752 152.334 43.016C 151.95 44.6 150.654 45.56 149.238 45.56C 146.982 45.56 145.806 43.616 145.806 41.24C 145.806 38.696 147.102 36.776 149.286 36.776C 150.87 36.776 152.022 37.88 152.334 39.2C 152.406 39.488 152.43 39.824 152.43 40.112L 152.43 42.128ZM 168.227 47L 174.011 30.824L 171.779 30.824L 169.043 38.816C 168.299 40.928 167.651 42.968 167.195 44.84L 167.147 44.84C 166.691 42.968 166.091 40.976 165.419 38.792L 162.899 30.824L 160.619 30.824L 165.923 47L 168.227 47ZM 184.244 41.576C 184.292 41.336 184.316 41.024 184.316 40.592C 184.316 38.456 183.332 35.12 179.54 35.12C 176.156 35.12 174.068 37.88 174.068 41.384C 174.068 44.864 176.228 47.24 179.78 47.24C 181.628 47.24 182.924 46.832 183.668 46.496L 183.284 44.984C 182.516 45.32 181.58 45.584 180.068 45.584C 177.956 45.584 176.156 44.408 176.108 41.576L 184.244 41.576ZM 176.132 40.064C 176.3 38.6 177.212 36.632 179.372 36.632C 181.724 36.632 182.3 38.72 182.276 40.064L 176.132 40.064ZM 186.932 47L 189.044 47L 189.044 40.784C 189.044 40.448 189.068 40.112 189.116 39.8C 189.404 38.24 190.46 37.112 191.948 37.112C 192.236 37.112 192.452 37.136 192.668 37.16L 192.668 35.168C 192.476 35.144 192.308 35.12 192.092 35.12C 190.676 35.12 189.38 36.104 188.852 37.664L 188.78 37.664L 188.684 35.384L 186.836 35.384C 186.908 36.464 186.932 37.64 186.932 39.008L 186.932 47ZM 194.049 35.384L 197.553 47L 199.473 47L 201.345 41.48C 201.753 40.232 202.113 39.008 202.401 37.616L 202.449 37.616C 202.737 38.984 203.073 40.136 203.481 41.456L 205.257 47L 207.177 47L 210.921 35.384L 208.833 35.384L 207.177 41.216C 206.793 42.584 206.481 43.808 206.289 44.984L 206.217 44.984C 205.953 43.808 205.617 42.56 205.185 41.192L 203.385 35.384L 201.609 35.384L 199.713 41.288C 199.329 42.56 198.945 43.808 198.681 44.984L 198.609 44.984C 198.393 43.784 198.081 42.56 197.769 41.264L 196.209 35.384L 194.049 35.384ZM 222.143 41.576C 222.191 41.336 222.215 41.024 222.215 40.592C 222.215 38.456 221.231 35.12 217.439 35.12C 214.055 35.12 211.967 37.88 211.967 41.384C 211.967 44.864 214.127 47.24 217.679 47.24C 219.527 47.24 220.823 46.832 221.567 46.496L 221.183 44.984C 220.415 45.32 219.479 45.584 217.967 45.584C 215.855 45.584 214.055 44.408 214.007 41.576L 222.143 41.576ZM 214.031 40.064C 214.199 38.6 215.111 36.632 217.271 36.632C 219.623 36.632 220.199 38.72 220.175 40.064L 214.031 40.064ZM 224.83 47L 226.942 47L 226.942 40.784C 226.942 40.448 226.966 40.112 227.014 39.8C 227.302 38.24 228.358 37.112 229.846 37.112C 230.134 37.112 230.35 37.136 230.566 37.16L 230.566 35.168C 230.374 35.144 230.206 35.12 229.99 35.12C 228.574 35.12 227.278 36.104 226.75 37.664L 226.678 37.664L 226.582 35.384L 224.734 35.384C 224.806 36.464 224.83 37.64 224.83 39.008L 224.83 47ZM 233.724 33.248L 233.724 35.384L 231.924 35.384L 231.924 36.992L 233.724 36.992L 233.724 43.304C 233.724 44.672 233.964 45.704 234.54 46.352C 235.044 46.904 235.836 47.24 236.82 47.24C 237.636 47.24 238.284 47.096 238.692 46.952L 238.596 45.344C 238.284 45.44 237.948 45.488 237.372 45.488C 236.196 45.488 235.788 44.672 235.788 43.232L 235.788 36.992L 238.812 36.992L 238.812 35.384L 235.788 35.384L 235.788 32.6L 233.724 33.248ZM 250.91 35.384L 248.798 35.384L 248.798 42.488C 248.798 42.896 248.726 43.28 248.606 43.568C 248.221 44.528 247.238 45.512 245.822 45.512C 243.926 45.512 243.23 44 243.23 41.792L 243.23 35.384L 241.118 35.384L 241.118 42.176C 241.118 46.232 243.301 47.264 245.125 47.264C 247.189 47.264 248.438 46.04 248.965 45.104L 249.013 45.104L 249.133 47L 251.006 47C 250.934 46.088 250.91 45.032 250.91 43.808L 250.91 35.384ZM 254.408 47L 256.52 47L 256.52 39.992C 256.52 39.656 256.568 39.272 256.664 39.008C 257.048 37.832 258.128 36.848 259.496 36.848C 261.488 36.848 262.184 38.432 262.184 40.304L 262.184 47L 264.296 47L 264.296 40.064C 264.296 36.08 261.8 35.12 260.192 35.12C 258.272 35.12 256.928 36.2 256.352 37.28L 256.304 37.28L 256.184 35.384L 254.312 35.384C 254.384 36.344 254.408 37.304 254.408 38.528L 254.408 47ZM 277.657 38.552C 277.657 37.16 277.681 36.2 277.753 35.384L 275.881 35.384L 275.809 37.136L 275.761 37.136C 275.233 36.152 274.153 35.12 272.137 35.12C 269.449 35.12 266.881 37.328 266.881 41.264C 266.881 44.504 268.945 46.952 271.825 46.952C 273.625 46.952 274.897 46.088 275.521 45.008L 275.569 45.008L 275.569 46.28C 275.569 49.232 273.985 50.36 271.825 50.36C 270.385 50.36 269.185 49.928 268.417 49.424L 267.889 51.056C 268.825 51.68 270.361 52.016 271.753 52.016C 273.217 52.016 274.849 51.656 276.001 50.624C 277.105 49.592 277.657 47.984 277.657 45.296L 277.657 38.552ZM 275.545 42.032C 275.545 42.416 275.497 42.824 275.377 43.16C 274.945 44.528 273.769 45.344 272.449 45.344C 270.193 45.344 269.017 43.424 269.017 41.168C 269.017 38.456 270.457 36.752 272.473 36.752C 274.033 36.752 275.041 37.76 275.425 39.008C 275.521 39.296 275.545 39.608 275.545 39.944L 275.545 42.032Z"/>
<path id="path7_fill" d="M 10.5244 8.688L 4.26043 8.688L 4.26043 3.576L 10.9084 3.576L 10.9084 1.824L 2.14843 1.824L 2.14843 18L 11.2684 18L 11.2684 16.248L 4.26043 16.248L 4.26043 10.416L 10.5244 10.416L 10.5244 8.688ZM 13.9129 18L 16.0249 18L 16.0249 10.992C 16.0249 10.656 16.0729 10.272 16.1689 10.008C 16.5529 8.832 17.6329 7.848 19.0009 7.848C 20.9929 7.848 21.6889 9.432 21.6889 11.304L 21.6889 18L 23.8009 18L 23.8009 11.064C 23.8009 7.08 21.3049 6.12 19.6969 6.12C 17.7769 6.12 16.4329 7.2 15.8569 8.28L 15.8089 8.28L 15.6889 6.384L 13.8169 6.384C 13.8889 7.344 13.9129 8.304 13.9129 9.528L 13.9129 18ZM 27.6117 4.248L 27.6117 6.384L 25.8117 6.384L 25.8117 7.992L 27.6117 7.992L 27.6117 14.304C 27.6117 15.672 27.8517 16.704 28.4277 17.352C 28.9317 17.904 29.7237 18.24 30.7077 18.24C 31.5237 18.24 32.1717 18.096 32.5797 17.952L 32.4837 16.344C 32.1717 16.44 31.8357 16.488 31.2597 16.488C 30.0837 16.488 29.6757 15.672 29.6757 14.232L 29.6757 7.992L 32.6997 7.992L 32.6997 6.384L 29.6757 6.384L 29.6757 3.6L 27.6117 4.248ZM 33.9679 6.384L 37.4719 18L 39.3919 18L 41.2639 12.48C 41.6719 11.232 42.0319 10.008 42.3199 8.616L 42.3679 8.616C 42.6559 9.984 42.9919 11.136 43.3999 12.456L 45.1759 18L 47.0959 18L 50.8399 6.384L 48.7519 6.384L 47.0959 12.216C 46.7119 13.584 46.3999 14.808 46.2079 15.984L 46.1359 15.984C 45.8719 14.808 45.5359 13.56 45.1039 12.192L 43.3039 6.384L 41.5279 6.384L 39.6319 12.288C 39.2479 13.56 38.8639 14.808 38.5999 15.984L 38.5279 15.984C 38.3119 14.784 37.9999 13.56 37.6879 12.264L 36.1279 6.384L 33.9679 6.384ZM 55.0718 18L 55.0718 6.384L 52.9598 6.384L 52.9598 18L 55.0718 18ZM 53.9918 4.416C 54.8078 4.416 55.3118 3.816 55.3118 3.12C 55.3118 2.376 54.7838 1.8 54.0158 1.8C 53.2238 1.8 52.6958 2.376 52.6958 3.12C 52.6958 3.816 53.1998 4.416 53.9678 4.416L 53.9918 4.416ZM 66.5048 15.984C 65.9048 16.248 65.1128 16.536 63.9128 16.536C 61.6088 16.536 59.8808 14.88 59.8808 12.192C 59.8808 9.792 61.3208 7.8 63.9848 7.8C 65.1368 7.8 65.9288 8.088 66.4328 8.352L 66.9128 6.744C 66.3368 6.432 65.2328 6.12 63.9848 6.12C 60.1928 6.12 57.7448 8.736 57.7448 12.312C 57.7448 15.864 60.0248 18.24 63.5288 18.24C 65.0888 18.24 66.3128 17.832 66.8648 17.568L 66.5048 15.984ZM 71.4546 0.96L 69.3426 0.96L 69.3426 18L 71.4546 18L 71.4546 13.632L 72.5346 12.432L 76.5186 18L 79.0866 18L 73.9746 11.16L 78.4626 6.384L 75.9426 6.384L 72.5106 10.392C 72.1746 10.8 71.7906 11.304 71.5026 11.712L 71.4546 11.712L 71.4546 0.96ZM 80.9911 18L 83.1031 18L 83.1031 0.96L 80.9911 0.96L 80.9911 18ZM 96.3829 6.384L 94.2709 6.384L 94.2709 13.488C 94.2709 13.896 94.1989 14.28 94.0789 14.568C 93.6949 15.528 92.7109 16.512 91.2949 16.512C 89.3989 16.512 88.7029 15 88.7029 12.792L 88.7029 6.384L 86.5909 6.384L 86.5909 13.176C 86.5909 17.232 88.7749 18.264 90.5989 18.264C 92.6629 18.264 93.9109 17.04 94.4389 16.104L 94.4869 16.104L 94.6069 18L 96.4789 18C 96.4069 17.088 96.3829 16.032 96.3829 14.808L 96.3829 6.384ZM 99.8817 18L 101.994 18L 101.994 10.992C 101.994 10.656 102.042 10.272 102.138 10.008C 102.522 8.832 103.602 7.848 104.97 7.848C 106.962 7.848 107.658 9.432 107.658 11.304L 107.658 18L 109.77 18L 109.77 11.064C 109.77 7.08 107.274 6.12 105.666 6.12C 103.746 6.12 102.402 7.2 101.826 8.28L 101.778 8.28L 101.658 6.384L 99.7857 6.384C 99.8577 7.344 99.8817 8.304 99.8817 9.528L 99.8817 18ZM 123.13 9.552C 123.13 8.16 123.154 7.2 123.226 6.384L 121.354 6.384L 121.282 8.136L 121.234 8.136C 120.706 7.152 119.626 6.12 117.61 6.12C 114.922 6.12 112.354 8.328 112.354 12.264C 112.354 15.504 114.418 17.952 117.298 17.952C 119.098 17.952 120.37 17.088 120.994 16.008L 121.042 16.008L 121.042 17.28C 121.042 20.232 119.458 21.36 117.298 21.36C 115.858 21.36 114.658 20.928 113.89 20.424L 113.362 22.056C 114.298 22.68 115.834 23.016 117.226 23.016C 118.69 23.016 120.322 22.656 121.474 21.624C 122.578 20.592 123.13 18.984 123.13 16.296L 123.13 9.552ZM 121.018 13.032C 121.018 13.416 120.97 13.824 120.85 14.16C 120.418 15.528 119.242 16.344 117.922 16.344C 115.666 16.344 114.49 14.424 114.49 12.168C 114.49 9.456 115.93 7.752 117.946 7.752C 119.506 7.752 120.514 8.76 120.898 10.008C 120.994 10.296 121.018 10.608 121.018 10.944L 121.018 13.032Z"/>
<path id="path8_fill" d="M 12.3128 18L 18.0968 1.824L 15.8648 1.824L 13.1288 9.816C 12.3848 11.928 11.7368 13.968 11.2808 15.84L 11.2328 15.84C 10.7768 13.968 10.1768 11.976 9.50481 9.792L 6.98481 1.824L 4.70481 1.824L 10.0088 18L 12.3128 18ZM 21.5046 18L 21.5046 6.384L 19.3926 6.384L 19.3926 18L 21.5046 18ZM 20.4246 4.416C 21.2406 4.416 21.7446 3.816 21.7446 3.12C 21.7446 2.376 21.2166 1.8 20.4486 1.8C 19.6566 1.8 19.1286 2.376 19.1286 3.12C 19.1286 3.816 19.6326 4.416 20.4006 4.416L 20.4246 4.416ZM 24.2256 17.424C 25.0416 17.904 26.2176 18.24 27.4896 18.24C 30.2016 18.24 31.8096 16.8 31.8096 14.736C 31.8096 13.008 30.7536 12 28.7616 11.256C 27.2496 10.656 26.5776 10.224 26.5776 9.264C 26.5776 8.4 27.2496 7.68 28.4976 7.68C 29.5776 7.68 30.4176 8.088 30.8736 8.352L 31.3776 6.84C 30.7536 6.432 29.7216 6.12 28.5456 6.12C 26.0736 6.12 24.5376 7.656 24.5376 9.528C 24.5376 10.896 25.5216 12.048 27.6336 12.816C 29.1696 13.392 29.7696 13.92 29.7696 14.928C 29.7696 15.912 29.0496 16.656 27.5376 16.656C 26.4816 16.656 25.3776 16.224 24.7296 15.84L 24.2256 17.424ZM 36.6452 18L 36.6452 6.384L 34.5333 6.384L 34.5333 18L 36.6452 18ZM 35.5652 4.416C 36.3813 4.416 36.8852 3.816 36.8852 3.12C 36.8852 2.376 36.3573 1.8 35.5892 1.8C 34.7972 1.8 34.2692 2.376 34.2692 3.12C 34.2692 3.816 34.7732 4.416 35.5412 4.416L 35.5652 4.416ZM 44.9102 18.264C 47.6702 18.264 50.6702 16.392 50.6702 12.072C 50.6702 8.544 48.4142 6.12 45.0782 6.12C 41.8862 6.12 39.3182 8.4 39.3182 12.288C 39.3182 15.96 41.7663 18.264 44.8863 18.264L 44.9102 18.264ZM 44.9582 16.68C 42.9183 16.68 41.4783 14.76 41.4783 12.216C 41.4783 10.008 42.5583 7.704 45.0303 7.704C 47.5263 7.704 48.5102 10.176 48.5102 12.144C 48.5102 14.784 46.9982 16.68 44.9823 16.68L 44.9582 16.68ZM 53.3301 18L 55.4421 18L 55.4421 10.992C 55.4421 10.656 55.4901 10.272 55.5861 10.008C 55.9701 8.832 57.0501 7.848 58.4181 7.848C 60.4101 7.848 61.1061 9.432 61.1061 11.304L 61.1061 18L 63.2181 18L 63.2181 11.064C 63.2181 7.08 60.7221 6.12 59.1141 6.12C 57.1941 6.12 55.8501 7.2 55.2741 8.28L 55.2261 8.28L 55.1061 6.384L 53.2341 6.384C 53.3061 7.344 53.3301 8.304 53.3301 9.528L 53.3301 18ZM 81.4486 6.384L 79.3366 6.384L 79.3366 13.488C 79.3366 13.896 79.2646 14.28 79.1446 14.568C 78.7606 15.528 77.7766 16.512 76.3606 16.512C 74.4646 16.512 73.7686 15 73.7686 12.792L 73.7686 6.384L 71.6566 6.384L 71.6566 13.176C 71.6566 17.232 73.8406 18.264 75.6646 18.264C 77.7286 18.264 78.9766 17.04 79.5046 16.104L 79.5526 16.104L 79.6726 18L 81.5446 18C 81.4726 17.088 81.4486 16.032 81.4486 14.808L 81.4486 6.384ZM 84.9473 18L 87.0593 18L 87.0593 10.992C 87.0593 10.656 87.1073 10.272 87.2033 10.008C 87.5873 8.832 88.6673 7.848 90.0353 7.848C 92.0273 7.848 92.7233 9.432 92.7233 11.304L 92.7233 18L 94.8353 18L 94.8353 11.064C 94.8353 7.08 92.3393 6.12 90.7313 6.12C 88.8113 6.12 87.4673 7.2 86.8913 8.28L 86.8433 8.28L 86.7233 6.384L 84.8513 6.384C 84.9233 7.344 84.9473 8.304 84.9473 9.528L 84.9473 18ZM 106.18 0.96L 106.18 7.872L 106.132 7.872C 105.628 6.96 104.428 6.12 102.628 6.12C 99.8198 6.12 97.3958 8.472 97.4198 12.36C 97.4198 15.888 99.6038 18.264 102.412 18.264C 104.308 18.264 105.7 17.28 106.348 15.984L 106.396 15.984L 106.492 18L 108.388 18C 108.316 17.208 108.292 16.032 108.292 15L 108.292 0.96L 106.18 0.96ZM 106.18 13.128C 106.18 13.464 106.156 13.752 106.084 14.016C 105.7 15.6 104.404 16.56 102.988 16.56C 100.732 16.56 99.5558 14.616 99.5558 12.24C 99.5558 9.696 100.852 7.776 103.036 7.776C 104.62 7.776 105.772 8.88 106.084 10.2C 106.156 10.488 106.18 10.824 106.18 11.112L 106.18 13.128ZM 116.965 18L 119.053 18L 119.053 11.832L 120.613 10.056L 125.917 18L 128.389 18L 122.077 8.688L 127.933 1.824L 125.341 1.824L 120.397 7.896C 119.989 8.424 119.557 9 119.125 9.624L 119.053 9.624L 119.053 1.824L 116.965 1.824L 116.965 18ZM 134.652 18.264C 137.412 18.264 140.412 16.392 140.412 12.072C 140.412 8.544 138.156 6.12 134.82 6.12C 131.628 6.12 129.06 8.4 129.06 12.288C 129.06 15.96 131.508 18.264 134.628 18.264L 134.652 18.264ZM 134.7 16.68C 132.66 16.68 131.22 14.76 131.22 12.216C 131.22 10.008 132.3 7.704 134.772 7.704C 137.268 7.704 138.252 10.176 138.252 12.144C 138.252 14.784 136.74 16.68 134.724 16.68L 134.7 16.68ZM 143.072 18L 145.184 18L 145.184 10.992C 145.184 10.656 145.232 10.272 145.328 10.008C 145.712 8.832 146.792 7.848 148.16 7.848C 150.152 7.848 150.848 9.432 150.848 11.304L 150.848 18L 152.96 18L 152.96 11.064C 152.96 7.08 150.464 6.12 148.856 6.12C 146.936 6.12 145.592 7.2 145.016 8.28L 144.968 8.28L 144.848 6.384L 142.976 6.384C 143.048 7.344 143.072 8.304 143.072 9.528L 143.072 18ZM 155.065 18L 164.497 18L 164.497 16.32L 157.705 16.32L 157.705 16.272C 158.233 15.696 158.713 15.096 159.193 14.472L 164.401 7.704L 164.401 6.384L 155.545 6.384L 155.545 8.064L 161.857 8.064L 161.857 8.112C 161.305 8.736 160.849 9.288 160.321 9.936L 155.065 16.776L 155.065 18ZM 175.822 12.576C 175.87 12.336 175.894 12.024 175.894 11.592C 175.894 9.456 174.91 6.12 171.118 6.12C 167.734 6.12 165.646 8.88 165.646 12.384C 165.646 15.864 167.806 18.24 171.358 18.24C 173.206 18.24 174.502 17.832 175.246 17.496L 174.862 15.984C 174.094 16.32 173.158 16.584 171.646 16.584C 169.534 16.584 167.734 15.408 167.686 12.576L 175.822 12.576ZM 167.71 11.064C 167.878 9.6 168.79 7.632 170.95 7.632C 173.302 7.632 173.878 9.72 173.854 11.064L 167.71 11.064ZM 178.51 22.752L 180.622 22.752L 180.622 16.44L 180.67 16.44C 181.366 17.592 182.686 18.264 184.246 18.264C 186.958 18.264 189.526 16.2 189.526 12.024C 189.526 8.496 187.414 6.12 184.582 6.12C 182.71 6.12 181.318 6.936 180.478 8.376L 180.43 8.376L 180.31 6.384L 178.414 6.384C 178.486 7.488 178.51 8.688 178.51 10.176L 178.51 22.752ZM 180.622 11.256C 180.622 10.992 180.694 10.68 180.742 10.416C 181.15 8.808 182.518 7.8 183.958 7.8C 186.19 7.8 187.39 9.792 187.39 12.12C 187.39 14.784 186.094 16.608 183.862 16.608C 182.374 16.608 181.078 15.6 180.718 14.136C 180.646 13.872 180.622 13.56 180.622 13.272L 180.622 11.256ZM 192.654 4.248L 192.654 6.384L 190.854 6.384L 190.854 7.992L 192.654 7.992L 192.654 14.304C 192.654 15.672 192.894 16.704 193.47 17.352C 193.974 17.904 194.766 18.24 195.75 18.24C 196.566 18.24 197.214 18.096 197.622 17.952L 197.526 16.344C 197.214 16.44 196.878 16.488 196.302 16.488C 195.126 16.488 194.718 15.672 194.718 14.232L 194.718 7.992L 197.742 7.992L 197.742 6.384L 194.718 6.384L 194.718 3.6L 192.654 4.248Z"/>
<path id="path9_fill" d="M 0 0L 600 0L 600 32L 0 32L 0 0Z"/>
<path id="path10_fill" d="M 53.8663 14L 55.4143 14L 54.6583 1.868L 52.6603 1.868L 50.5003 7.736C 49.9603 9.266 49.5283 10.616 49.2043 11.84L 49.1683 11.84C 48.8443 10.58 48.4483 9.23 47.9443 7.736L 45.8743 1.868L 43.8763 1.868L 43.0303 14L 44.5243 14L 44.8483 8.798C 44.9563 6.98 45.0463 4.946 45.0823 3.434L 45.1183 3.434C 45.4603 4.874 45.9283 6.44 46.5043 8.15L 48.4843 13.928L 49.6723 13.928L 51.8143 8.042C 52.4263 6.386 52.9123 4.838 53.3443 3.434L 53.3803 3.434C 53.3803 4.928 53.4883 6.998 53.5783 8.672L 53.8663 14ZM 64.0106 8.654C 64.0106 6.908 63.3626 5.09 60.6806 5.09C 59.5826 5.09 58.5206 5.396 57.8006 5.846L 58.1606 6.908C 58.7726 6.494 59.6186 6.26 60.4466 6.26C 62.2286 6.242 62.4266 7.556 62.4266 8.276L 62.4266 8.456C 59.0606 8.438 57.1886 9.59 57.1886 11.696C 57.1886 12.956 58.0886 14.198 59.8526 14.198C 61.0946 14.198 62.0486 13.586 62.5166 12.902L 62.5706 12.902L 62.7146 14L 64.1366 14C 64.0466 13.406 64.0106 12.668 64.0106 11.912L 64.0106 8.654ZM 62.4626 11.066C 62.4626 11.228 62.4446 11.408 62.3906 11.57C 62.1386 12.308 61.4006 13.028 60.2486 13.028C 59.4566 13.028 58.7726 12.56 58.7726 11.516C 58.7726 9.824 60.7346 9.518 62.4626 9.554L 62.4626 11.066ZM 65.9622 13.568C 66.5742 13.928 67.4562 14.18 68.4102 14.18C 70.4442 14.18 71.6502 13.1 71.6502 11.552C 71.6502 10.256 70.8582 9.5 69.3642 8.942C 68.2302 8.492 67.7262 8.168 67.7262 7.448C 67.7262 6.8 68.2302 6.26 69.1662 6.26C 69.9762 6.26 70.6062 6.566 70.9482 6.764L 71.3262 5.63C 70.8582 5.324 70.0842 5.09 69.2022 5.09C 67.3482 5.09 66.1962 6.242 66.1962 7.646C 66.1962 8.672 66.9342 9.536 68.5182 10.112C 69.6702 10.544 70.1202 10.94 70.1202 11.696C 70.1202 12.434 69.5802 12.992 68.4462 12.992C 67.6542 12.992 66.8262 12.668 66.3402 12.38L 65.9622 13.568ZM 74.0529 3.686L 74.0529 5.288L 72.7029 5.288L 72.7029 6.494L 74.0529 6.494L 74.0529 11.228C 74.0529 12.254 74.2329 13.028 74.6649 13.514C 75.0429 13.928 75.6369 14.18 76.3749 14.18C 76.9869 14.18 77.4729 14.072 77.7789 13.964L 77.7069 12.758C 77.4729 12.83 77.2209 12.866 76.7889 12.866C 75.9069 12.866 75.6009 12.254 75.6009 11.174L 75.6009 6.494L 77.8689 6.494L 77.8689 5.288L 75.6009 5.288L 75.6009 3.2L 74.0529 3.686ZM 86.5484 9.932C 86.5844 9.752 86.6024 9.518 86.6024 9.194C 86.6024 7.592 85.8644 5.09 83.0204 5.09C 80.4824 5.09 78.9164 7.16 78.9164 9.788C 78.9164 12.398 80.5364 14.18 83.2004 14.18C 84.5864 14.18 85.5584 13.874 86.1164 13.622L 85.8284 12.488C 85.2524 12.74 84.5504 12.938 83.4164 12.938C 81.8324 12.938 80.4824 12.056 80.4464 9.932L 86.5484 9.932ZM 80.4644 8.798C 80.5904 7.7 81.2744 6.224 82.8944 6.224C 84.6584 6.224 85.0904 7.79 85.0724 8.798L 80.4644 8.798ZM 88.564 14L 90.148 14L 90.148 9.338C 90.148 9.086 90.166 8.834 90.202 8.6C 90.418 7.43 91.21 6.584 92.326 6.584C 92.542 6.584 92.704 6.602 92.866 6.62L 92.866 5.126C 92.722 5.108 92.596 5.09 92.434 5.09C 91.372 5.09 90.4 5.828 90.004 6.998L 89.95 6.998L 89.878 5.288L 88.492 5.288C 88.546 6.098 88.564 6.98 88.564 8.006L 88.564 14ZM 95.2345 3.686L 95.2345 5.288L 93.8845 5.288L 93.8845 6.494L 95.2345 6.494L 95.2345 11.228C 95.2345 12.254 95.4145 13.028 95.8465 13.514C 96.2245 13.928 96.8185 14.18 97.5565 14.18C 98.1685 14.18 98.6545 14.072 98.9605 13.964L 98.8885 12.758C 98.6545 12.83 98.4025 12.866 97.9705 12.866C 97.0885 12.866 96.7825 12.254 96.7825 11.174L 96.7825 6.494L 99.0505 6.494L 99.0505 5.288L 96.7825 5.288L 96.7825 3.2L 95.2345 3.686ZM 100.834 14L 102.418 14L 102.418 8.744C 102.418 8.438 102.436 8.204 102.526 7.988C 102.832 7.124 103.624 6.404 104.65 6.404C 106.144 6.404 106.666 7.574 106.666 8.978L 106.666 14L 108.25 14L 108.25 8.816C 108.25 5.81 106.378 5.09 105.208 5.09C 104.614 5.09 104.056 5.252 103.588 5.54C 103.102 5.792 102.706 6.206 102.454 6.656L 102.418 6.656L 102.418 1.22L 100.834 1.22L 100.834 14ZM 117.82 9.932C 117.856 9.752 117.874 9.518 117.874 9.194C 117.874 7.592 117.136 5.09 114.292 5.09C 111.754 5.09 110.188 7.16 110.188 9.788C 110.188 12.398 111.808 14.18 114.472 14.18C 115.858 14.18 116.83 13.874 117.388 13.622L 117.1 12.488C 116.524 12.74 115.822 12.938 114.688 12.938C 113.104 12.938 111.754 12.056 111.718 9.932L 117.82 9.932ZM 111.736 8.798C 111.862 7.7 112.546 6.224 114.166 6.224C 115.93 6.224 116.362 7.79 116.344 8.798L 111.736 8.798ZM 119.241 13.568C 119.853 13.928 120.735 14.18 121.689 14.18C 123.723 14.18 124.929 13.1 124.929 11.552C 124.929 10.256 124.137 9.5 122.643 8.942C 121.509 8.492 121.005 8.168 121.005 7.448C 121.005 6.8 121.509 6.26 122.445 6.26C 123.255 6.26 123.885 6.566 124.227 6.764L 124.605 5.63C 124.137 5.324 123.363 5.09 122.481 5.09C 120.627 5.09 119.475 6.242 119.475 7.646C 119.475 8.672 120.213 9.536 121.797 10.112C 122.949 10.544 123.399 10.94 123.399 11.696C 123.399 12.434 122.859 12.992 121.725 12.992C 120.933 12.992 120.105 12.668 119.619 12.38L 119.241 13.568ZM 128.556 14L 128.556 5.288L 126.972 5.288L 126.972 14L 128.556 14ZM 127.746 3.812C 128.358 3.812 128.736 3.362 128.736 2.84C 128.736 2.282 128.34 1.85 127.764 1.85C 127.17 1.85 126.774 2.282 126.774 2.84C 126.774 3.362 127.152 3.812 127.728 3.812L 127.746 3.812ZM 130.597 13.568C 131.209 13.928 132.091 14.18 133.045 14.18C 135.079 14.18 136.285 13.1 136.285 11.552C 136.285 10.256 135.493 9.5 133.999 8.942C 132.865 8.492 132.361 8.168 132.361 7.448C 132.361 6.8 132.865 6.26 133.801 6.26C 134.611 6.26 135.241 6.566 135.583 6.764L 135.961 5.63C 135.493 5.324 134.719 5.09 133.837 5.09C 131.983 5.09 130.831 6.242 130.831 7.646C 130.831 8.672 131.569 9.536 133.153 10.112C 134.305 10.544 134.755 10.94 134.755 11.696C 134.755 12.434 134.215 12.992 133.081 12.992C 132.289 12.992 131.461 12.668 130.975 12.38L 130.597 13.568Z"/>
</defs>
</svg>
