<svg width="758" height="512" viewBox="0 0 758 512" version="1.1" xmlns="http://www.w3.org/2000/svg" xmlns:xlink="http://www.w3.org/1999/xlink" xmlns:figma="http://www.figma.com/figma/ns">
<title>Modulausrichtungen</title>
<desc>Created using Figma</desc>
<g id="Canvas" transform="translate(444 735)" figma:type="canvas">
<mask id="mask0_alpha" mask-type="alpha">
<path d="M -444 -735L 314 -735L 314 -223L -444 -223L -444 -735Z" fill="#FFFFFF"/>
</mask>
<g id="Modulausrichtungen" style="mix-blend-mode:normal;" mask="url(#mask0_alpha)" figma:type="frame">
<path d="M -444 -735L 314 -735L 314 -223L -444 -223L -444 -735Z" fill="transparent"/>
<g id="Semester" style="mix-blend-mode:normal;" figma:type="frame">
<g id="Semester" style="mix-blend-mode:normal;" figma:type="symbol">
<g id="1. Fachsemester" style="mix-blend-mode:normal;" figma:type="text">
<use xlink:href="#path0_fill" transform="translate(-443.5 -358)" style="mix-blend-mode:normal;"/>
</g>
<g id="Line" style="mix-blend-mode:normal;" figma:type="line">
<use xlink:href="#path1_stroke" transform="translate(-444 -362)" fill="#E0E0E0" style="mix-blend-mode:normal;"/>
</g>
</g>
<g id="Semester" style="mix-blend-mode:normal;" figma:type="instance">
<g id="2. Fachsemester" style="mix-blend-mode:normal;" figma:type="text">
<use xlink:href="#path2_fill" transform="translate(-443.5 -519)" style="mix-blend-mode:normal;"/>
</g>
<g id="Line" style="mix-blend-mode:normal;" figma:type="line">
<use xlink:href="#path1_stroke" transform="translate(-444 -523)" fill="#E0E0E0" style="mix-blend-mode:normal;"/>
</g>
</g>
<g id="Semester" style="mix-blend-mode:normal;" figma:type="instance">
<g id="3. Fachsemester" style="mix-blend-mode:normal;" figma:type="text">
<use xlink:href="#path3_fill" transform="translate(-443.5 -678)" style="mix-blend-mode:normal;"/>
</g>
<g id="Line" style="mix-blend-mode:normal;" figma:type="line">
<use xlink:href="#path1_stroke" transform="translate(-444 -682)" fill="#E0E0E0" style="mix-blend-mode:normal;"/>
</g>
</g>
<g id="Semester" style="mix-blend-mode:normal;" figma:type="instance">
<g id="4. Fachsemester" style="mix-blend-mode:normal;" figma:type="text">
<use xlink:href="#path4_fill" transform="translate(-443.5 -728)" style="mix-blend-mode:normal;"/>
</g>
<g id="Line" style="mix-blend-mode:normal;" figma:type="line">
<use xlink:href="#path1_stroke" transform="translate(-444 -732)" fill="#E0E0E0" style="mix-blend-mode:normal;"/>
</g>
</g>
</g>
<g id="Rectangle" style="mix-blend-mode:normal;" figma:type="rounded-rectangle">
<use xlink:href="#path5_fill" transform="translate(-286 -682)" fill="#252970" style="mix-blend-mode:normal;"/>
</g>
<g id="Grundlagen 6 CP pro Semester" style="mix-blend-mode:normal;" figma:type="text">
<use xlink:href="#path6_fill" transform="translate(-256 -488)" fill="#FFFFFF" style="mix-blend-mode:normal;"/>
</g>
<g id="Vision und Konzept" style="mix-blend-mode:normal;" figma:type="text">
<use xlink:href="#path7_fill" transform="translate(-443.5 -327)" style="mix-blend-mode:normal;"/>
</g>
<g id="Entwicklung" style="mix-blend-mode:normal;" figma:type="text">
<use xlink:href="#path8_fill" transform="translate(-443.5 -487)" style="mix-blend-mode:normal;"/>
</g>
<g id="Assessment / Evaluation, Forschung und Verwertung" style="mix-blend-mode:normal;" figma:type="text">
<use xlink:href="#path9_fill" transform="translate(-443.5 -647)" style="mix-blend-mode:normal;"/>
</g>
<g id="Rectangle" style="mix-blend-mode:normal;" figma:type="rounded-rectangle">
<use xlink:href="#path5_fill" transform="translate(-85 -682)" fill="#6D1233" style="mix-blend-mode:normal;"/>
</g>
<g id="Rectangle" style="mix-blend-mode:normal;" figma:type="rounded-rectangle">
<use xlink:href="#path5_fill" transform="translate(116 -682)" fill="#3C6600" style="mix-blend-mode:normal;"/>
</g>
<g id="Seminare 12 CP pro Semester" style="mix-blend-mode:normal;" figma:type="text">
<use xlink:href="#path10_fill" transform="translate(-60 -488)" fill="#FFFFFF" style="mix-blend-mode:normal;"/>
</g>
<g id="Projekte 12 CP pro Semester" style="mix-blend-mode:normal;" figma:type="text">
<use xlink:href="#path11_fill" transform="translate(142 -488)" fill="#FFFFFF" style="mix-blend-mode:normal;"/>
</g>
<g id="Masterthesis" style="mix-blend-mode:normal;" figma:type="frame">
<g id="Rectangle 3" style="mix-blend-mode:normal;" figma:type="rounded-rectangle">
<use xlink:href="#path12_fill" transform="translate(-286 -733)" fill="#333333" style="mix-blend-mode:normal;"/>
</g>
<g id="Masterthesis" style="mix-blend-mode:normal;" figma:type="text">
<use xlink:href="#path13_fill" transform="translate(-76 -725)" fill="#FFFFFF" style="mix-blend-mode:normal;"/>
</g>
</g>
</g>
</g>
<defs>
<path id="path0_fill" d="M 2.832 9L 3.852 9L 3.852 1.2L 2.952 1.2L 1.248 2.112L 1.452 2.916L 2.808 2.184L 2.832 2.184L 2.832 9ZM 7.48434 9.132C 7.92834 9.132 8.20434 8.808 8.20434 8.376C 8.20434 7.932 7.91634 7.62 7.49634 7.62C 7.07634 7.62 6.77634 7.932 6.77634 8.376C 6.77634 8.808 7.06434 9.132 7.47234 9.132L 7.48434 9.132ZM 12.0917 9L 13.1357 9L 13.1357 5.34L 16.1957 5.34L 16.1957 4.476L 13.1357 4.476L 13.1357 1.788L 16.4477 1.788L 16.4477 0.912L 12.0917 0.912L 12.0917 9ZM 21.4443 5.436C 21.4443 4.272 21.0123 3.06 19.2363 3.06C 18.5043 3.06 17.8083 3.264 17.3283 3.576L 17.5683 4.272C 17.9763 4.008 18.5403 3.84 19.0803 3.84C 20.2683 3.84 20.4003 4.704 20.4003 5.184L 20.4003 5.304C 18.1563 5.292 16.9083 6.06 16.9083 7.464C 16.9083 8.304 17.5083 9.132 18.6843 9.132C 19.5123 9.132 20.1363 8.724 20.4603 8.268L 20.4963 8.268L 20.5803 9L 21.5403 9C 21.4683 8.604 21.4443 8.112 21.4443 7.608L 21.4443 5.436ZM 20.4243 7.044C 20.4243 7.152 20.4003 7.272 20.3643 7.38C 20.1963 7.872 19.7163 8.352 18.9603 8.352C 18.4203 8.352 17.9643 8.028 17.9643 7.344C 17.9643 6.216 19.2723 6.012 20.4243 6.036L 20.4243 7.044ZM 27.1133 7.992C 26.8133 8.124 26.4173 8.28 25.8173 8.28C 24.6653 8.28 23.8013 7.452 23.8013 6.108C 23.8013 4.896 24.5213 3.912 25.8533 3.912C 26.4293 3.912 26.8253 4.044 27.0773 4.188L 27.3173 3.372C 27.0293 3.228 26.4773 3.072 25.8533 3.072C 23.9573 3.072 22.7333 4.368 22.7333 6.156C 22.7333 7.932 23.8733 9.132 25.6253 9.132C 26.4053 9.132 27.0173 8.928 27.2933 8.784L 27.1133 7.992ZM 28.5322 9L 29.5882 9L 29.5882 5.496C 29.5882 5.292 29.6003 5.136 29.6602 4.992C 29.8522 4.416 30.3923 3.936 31.0762 3.936C 32.0723 3.936 32.4203 4.728 32.4203 5.664L 32.4203 9L 33.4763 9L 33.4763 5.544C 33.4763 3.54 32.2283 3.06 31.4483 3.06C 31.0522 3.06 30.6803 3.18 30.3682 3.36C 30.0443 3.54 29.7803 3.804 29.6123 4.104L 29.5882 4.104L 29.5882 0.48L 28.5322 0.48L 28.5322 9ZM 34.7805 8.724C 35.1885 8.964 35.7765 9.132 36.4125 9.132C 37.7925 9.132 38.5845 8.4 38.5845 7.38C 38.5845 6.516 38.0685 6.012 37.0605 5.628C 36.3045 5.34 35.9565 5.124 35.9565 4.644C 35.9565 4.212 36.3045 3.852 36.9285 3.852C 37.4685 3.852 37.8885 4.044 38.1165 4.188L 38.3805 3.42C 38.0565 3.228 37.5405 3.06 36.9525 3.06C 35.7045 3.06 34.9485 3.828 34.9485 4.764C 34.9485 5.46 35.4405 6.036 36.4845 6.408C 37.2645 6.696 37.5645 6.972 37.5645 7.476C 37.5645 7.956 37.2045 8.34 36.4365 8.34C 35.9085 8.34 35.3565 8.124 35.0445 7.92L 34.7805 8.724ZM 44.6143 6.288C 44.6263 6.18 44.6503 6.012 44.6503 5.796C 44.6503 4.728 44.1463 3.06 42.2503 3.06C 40.5583 3.06 39.5263 4.44 39.5263 6.192C 39.5263 7.944 40.5943 9.132 42.3823 9.132C 43.3063 9.132 43.9423 8.928 44.3143 8.76L 44.1343 8.004C 43.7383 8.172 43.2823 8.304 42.5263 8.304C 41.4703 8.304 40.5583 7.716 40.5343 6.288L 44.6143 6.288ZM 40.5463 5.532C 40.6303 4.8 41.0983 3.816 42.1663 3.816C 43.3543 3.816 43.6423 4.86 43.6303 5.532L 40.5463 5.532ZM 45.958 9L 46.99 9L 46.99 5.496C 46.99 5.316 47.014 5.136 47.074 4.98C 47.242 4.452 47.722 3.924 48.382 3.924C 49.186 3.924 49.594 4.596 49.594 5.52L 49.594 9L 50.626 9L 50.626 5.412C 50.626 5.22 50.662 5.028 50.71 4.884C 50.89 4.368 51.358 3.924 51.958 3.924C 52.81 3.924 53.218 4.596 53.218 5.712L 53.218 9L 54.25 9L 54.25 5.58C 54.25 3.564 53.11 3.06 52.342 3.06C 51.79 3.06 51.406 3.204 51.058 3.468C 50.818 3.648 50.59 3.9 50.41 4.224L 50.386 4.224C 50.134 3.54 49.534 3.06 48.742 3.06C 47.782 3.06 47.242 3.576 46.918 4.128L 46.882 4.128L 46.834 3.192L 45.91 3.192C 45.946 3.672 45.958 4.164 45.958 4.764L 45.958 9ZM 60.6338 6.288C 60.6458 6.18 60.6698 6.012 60.6698 5.796C 60.6698 4.728 60.1658 3.06 58.2698 3.06C 56.5778 3.06 55.5458 4.44 55.5458 6.192C 55.5458 7.944 56.6138 9.132 58.4018 9.132C 59.3258 9.132 59.9618 8.928 60.3338 8.76L 60.1538 8.004C 59.7578 8.172 59.3018 8.304 58.5458 8.304C 57.4898 8.304 56.5778 7.716 56.5538 6.288L 60.6338 6.288ZM 56.5658 5.532C 56.6498 4.8 57.1178 3.816 58.1858 3.816C 59.3738 3.816 59.6618 4.86 59.6498 5.532L 56.5658 5.532ZM 61.5696 8.724C 61.9776 8.964 62.5656 9.132 63.2016 9.132C 64.5816 9.132 65.3736 8.4 65.3736 7.38C 65.3736 6.516 64.8576 6.012 63.8496 5.628C 63.0936 5.34 62.7456 5.124 62.7456 4.644C 62.7456 4.212 63.0936 3.852 63.7176 3.852C 64.2576 3.852 64.6776 4.044 64.9056 4.188L 65.1696 3.42C 64.8456 3.228 64.3296 3.06 63.7416 3.06C 62.4936 3.06 61.7376 3.828 61.7376 4.764C 61.7376 5.46 62.2296 6.036 63.2736 6.408C 64.0536 6.696 64.3536 6.972 64.3536 7.476C 64.3536 7.956 63.9936 8.34 63.2256 8.34C 62.6976 8.34 62.1456 8.124 61.8336 7.92L 61.5696 8.724ZM 66.9754 2.124L 66.9754 3.192L 66.0754 3.192L 66.0754 3.996L 66.9754 3.996L 66.9754 7.164C 66.9754 7.848 67.0834 8.364 67.3834 8.676C 67.6354 8.964 68.0314 9.132 68.5234 9.132C 68.9314 9.132 69.2554 9.06 69.4594 8.976L 69.4114 8.184C 69.2554 8.232 69.0874 8.256 68.7994 8.256C 68.2114 8.256 68.0074 7.848 68.0074 7.128L 68.0074 3.996L 69.5194 3.996L 69.5194 3.192L 68.0074 3.192L 68.0074 1.8L 66.9754 2.124ZM 75.3057 6.288C 75.3177 6.18 75.3417 6.012 75.3417 5.796C 75.3417 4.728 74.8377 3.06 72.9417 3.06C 71.2497 3.06 70.2177 4.44 70.2177 6.192C 70.2177 7.944 71.2857 9.132 73.0737 9.132C 73.9977 9.132 74.6337 8.928 75.0057 8.76L 74.8257 8.004C 74.4297 8.172 73.9737 8.304 73.2177 8.304C 72.1617 8.304 71.2497 7.716 71.2257 6.288L 75.3057 6.288ZM 71.2377 5.532C 71.3217 4.8 71.7897 3.816 72.8577 3.816C 74.0457 3.816 74.3337 4.86 74.3217 5.532L 71.2377 5.532ZM 76.6494 9L 77.6934 9L 77.6934 5.904C 77.6934 5.724 77.7174 5.556 77.7414 5.412C 77.8854 4.62 78.4134 4.056 79.1574 4.056C 79.3014 4.056 79.4094 4.068 79.5174 4.092L 79.5174 3.096C 79.4214 3.072 79.3374 3.06 79.2174 3.06C 78.5094 3.06 77.8734 3.552 77.6094 4.332L 77.5614 4.332L 77.5254 3.192L 76.6014 3.192C 76.6374 3.732 76.6494 4.32 76.6494 5.004L 76.6494 9Z"/>
<path id="path1_stroke" d="M 0 0L 1302 0L 1302 -1L 0 -1L 0 0Z"/>
<path id="path2_fill" d="M 5.52 9L 5.52 8.124L 2.028 8.124L 2.028 8.1L 2.64 7.524C 4.284 5.94 5.328 4.776 5.328 3.336C 5.328 2.22 4.62 1.068 2.952 1.068C 2.052 1.068 1.272 1.416 0.744 1.86L 1.08 2.604C 1.44 2.304 2.028 1.944 2.736 1.944C 3.9 1.944 4.272 2.676 4.272 3.468C 4.272 4.644 3.36 5.652 1.368 7.548L 0.54 8.352L 0.54 9L 5.52 9ZM 7.48434 9.132C 7.91634 9.132 8.20434 8.808 8.20434 8.376C 8.20434 7.932 7.91634 7.62 7.49634 7.62C 7.07634 7.62 6.77634 7.944 6.77634 8.376C 6.77634 8.808 7.06434 9.132 7.47234 9.132L 7.48434 9.132ZM 12.0797 9L 13.1357 9L 13.1357 5.34L 16.1837 5.34L 16.1837 4.476L 13.1357 4.476L 13.1357 1.788L 16.4357 1.788L 16.4357 0.912L 12.0797 0.912L 12.0797 9ZM 21.4563 5.436C 21.4563 4.272 21.0243 3.06 19.2363 3.06C 18.5043 3.06 17.7963 3.264 17.3163 3.564L 17.5563 4.272C 17.9643 3.996 18.5283 3.84 19.0803 3.84C 20.2683 3.828 20.4003 4.704 20.4003 5.184L 20.4003 5.304C 18.1563 5.292 16.9083 6.06 16.9083 7.464C 16.9083 8.304 17.5083 9.132 18.6843 9.132C 19.5123 9.132 20.1483 8.724 20.4603 8.268L 20.4963 8.268L 20.5923 9L 21.5403 9C 21.4803 8.604 21.4563 8.112 21.4563 7.608L 21.4563 5.436ZM 20.4243 7.044C 20.4243 7.152 20.4123 7.272 20.3763 7.38C 20.2083 7.872 19.7163 8.352 18.9483 8.352C 18.4203 8.352 17.9643 8.04 17.9643 7.344C 17.9643 6.216 19.2723 6.012 20.4243 6.036L 20.4243 7.044ZM 27.1133 7.992C 26.8133 8.124 26.4173 8.268 25.8173 8.268C 24.6653 8.268 23.8013 7.44 23.8013 6.096C 23.8013 4.896 24.5213 3.9 25.8533 3.9C 26.4293 3.9 26.8253 4.044 27.0773 4.176L 27.3173 3.372C 27.0293 3.216 26.4773 3.06 25.8533 3.06C 23.9573 3.06 22.7333 4.368 22.7333 6.156C 22.7333 7.932 23.8733 9.12 25.6253 9.12C 26.4053 9.12 27.0173 8.916 27.2933 8.784L 27.1133 7.992ZM 28.5323 9L 29.5882 9L 29.5882 5.496C 29.5882 5.292 29.6003 5.136 29.6603 4.992C 29.8643 4.416 30.3923 3.936 31.0763 3.936C 32.0723 3.936 32.4203 4.716 32.4203 5.652L 32.4203 9L 33.4763 9L 33.4763 5.544C 33.4763 3.54 32.2283 3.06 31.4483 3.06C 31.0523 3.06 30.6803 3.168 30.3682 3.36C 30.0442 3.528 29.7802 3.804 29.6122 4.104L 29.5882 4.104L 29.5882 0.48L 28.5323 0.48L 28.5323 9ZM 34.7925 8.712C 35.2005 8.952 35.7885 9.12 36.4245 9.12C 37.7805 9.12 38.5845 8.4 38.5845 7.368C 38.5845 6.504 38.0565 6 37.0605 5.628C 36.3045 5.328 35.9685 5.112 35.9685 4.632C 35.9685 4.2 36.3045 3.84 36.9285 3.84C 37.4685 3.84 37.8885 4.044 38.1165 4.176L 38.3685 3.42C 38.0565 3.216 37.5405 3.06 36.9525 3.06C 35.7165 3.06 34.9485 3.828 34.9485 4.764C 34.9485 5.448 35.4405 6.024 36.4965 6.408C 37.2645 6.696 37.5645 6.96 37.5645 7.464C 37.5645 7.956 37.2045 8.328 36.4485 8.328C 35.9205 8.328 35.3685 8.112 35.0445 7.92L 34.7925 8.712ZM 44.6143 6.288C 44.6383 6.168 44.6503 6.012 44.6503 5.796C 44.6503 4.728 44.1583 3.06 42.2623 3.06C 40.5703 3.06 39.5263 4.44 39.5263 6.192C 39.5263 7.932 40.6063 9.12 42.3823 9.12C 43.3063 9.12 43.9543 8.916 44.3263 8.748L 44.1343 7.992C 43.7503 8.16 43.2823 8.292 42.5263 8.292C 41.4703 8.292 40.5703 7.704 40.5463 6.288L 44.6143 6.288ZM 40.5583 5.532C 40.6423 4.8 41.0983 3.816 42.1783 3.816C 43.3543 3.816 43.6423 4.86 43.6303 5.532L 40.5583 5.532ZM 45.958 9L 46.99 9L 46.99 5.496C 46.99 5.316 47.014 5.136 47.074 4.98C 47.242 4.452 47.734 3.924 48.382 3.924C 49.186 3.924 49.594 4.584 49.594 5.508L 49.594 9L 50.626 9L 50.626 5.4C 50.626 5.22 50.662 5.028 50.71 4.872C 50.902 4.368 51.358 3.924 51.97 3.924C 52.81 3.924 53.23 4.584 53.23 5.712L 53.23 9L 54.262 9L 54.262 5.58C 54.262 3.564 53.122 3.06 52.342 3.06C 51.79 3.06 51.418 3.204 51.07 3.468C 50.83 3.648 50.59 3.888 50.41 4.224L 50.386 4.224C 50.134 3.54 49.534 3.06 48.754 3.06C 47.782 3.06 47.242 3.576 46.918 4.128L 46.882 4.128L 46.834 3.192L 45.91 3.192C 45.934 3.672 45.958 4.152 45.958 4.764L 45.958 9ZM 60.6338 6.288C 60.6578 6.168 60.6698 6.012 60.6698 5.796C 60.6698 4.728 60.1778 3.06 58.2818 3.06C 56.5898 3.06 55.5458 4.44 55.5458 6.192C 55.5458 7.932 56.6258 9.12 58.4018 9.12C 59.3258 9.12 59.9738 8.916 60.3458 8.748L 60.1538 7.992C 59.7698 8.16 59.3018 8.292 58.5458 8.292C 57.4898 8.292 56.5898 7.704 56.5658 6.288L 60.6338 6.288ZM 56.5778 5.532C 56.6618 4.8 57.1178 3.816 58.1978 3.816C 59.3738 3.816 59.6618 4.86 59.6498 5.532L 56.5778 5.532ZM 61.5816 8.712C 61.9896 8.952 62.5776 9.12 63.2136 9.12C 64.5696 9.12 65.3736 8.4 65.3736 7.368C 65.3736 6.504 64.8456 6 63.8496 5.628C 63.0936 5.328 62.7576 5.112 62.7576 4.632C 62.7576 4.2 63.0936 3.84 63.7176 3.84C 64.2576 3.84 64.6776 4.044 64.9056 4.176L 65.1576 3.42C 64.8456 3.216 64.3296 3.06 63.7416 3.06C 62.5056 3.06 61.7376 3.828 61.7376 4.764C 61.7376 5.448 62.2296 6.024 63.2856 6.408C 64.0536 6.696 64.3536 6.96 64.3536 7.464C 64.3536 7.956 63.9936 8.328 63.2376 8.328C 62.7096 8.328 62.1576 8.112 61.8336 7.92L 61.5816 8.712ZM 66.9754 2.124L 66.9754 3.192L 66.0754 3.192L 66.0754 3.996L 66.9754 3.996L 66.9754 7.152C 66.9754 7.836 67.0954 8.352 67.3834 8.676C 67.6354 8.952 68.0314 9.12 68.5234 9.12C 68.9314 9.12 69.2554 9.048 69.4594 8.976L 69.4114 8.172C 69.2554 8.22 69.0874 8.244 68.7994 8.244C 68.2114 8.244 68.0074 7.836 68.0074 7.116L 68.0074 3.996L 69.5194 3.996L 69.5194 3.192L 68.0074 3.192L 68.0074 1.8L 66.9754 2.124ZM 75.3057 6.288C 75.3297 6.168 75.3417 6.012 75.3417 5.796C 75.3417 4.728 74.8497 3.06 72.9537 3.06C 71.2617 3.06 70.2177 4.44 70.2177 6.192C 70.2177 7.932 71.2977 9.12 73.0737 9.12C 73.9977 9.12 74.6457 8.916 75.0177 8.748L 74.8257 7.992C 74.4417 8.16 73.9737 8.292 73.2177 8.292C 72.1617 8.292 71.2617 7.704 71.2377 6.288L 75.3057 6.288ZM 71.2497 5.532C 71.3337 4.8 71.7897 3.816 72.8697 3.816C 74.0457 3.816 74.3337 4.86 74.3217 5.532L 71.2497 5.532ZM 76.6494 9L 77.7054 9L 77.7054 5.892C 77.7054 5.724 77.7174 5.556 77.7414 5.4C 77.8854 4.62 78.4134 4.056 79.1574 4.056C 79.3014 4.056 79.4094 4.068 79.5174 4.08L 79.5174 3.084C 79.4214 3.072 79.3374 3.06 79.2294 3.06C 78.5214 3.06 77.8734 3.552 77.6094 4.332L 77.5734 4.332L 77.5254 3.192L 76.6014 3.192C 76.6374 3.732 76.6494 4.32 76.6494 5.004L 76.6494 9Z"/>
<path id="path3_fill" d="M 0.504 8.604C 0.888 8.856 1.656 9.132 2.532 9.132C 4.392 9.132 5.376 8.04 5.376 6.792C 5.376 5.7 4.596 4.98 3.636 4.8L 3.636 4.776C 4.584 4.428 5.076 3.744 5.076 2.928C 5.076 1.98 4.38 1.068 2.844 1.068C 2.004 1.068 1.212 1.368 0.792 1.668L 1.08 2.436C 1.416 2.196 2.016 1.92 2.64 1.92C 3.612 1.92 4.008 2.472 4.008 3.096C 4.008 4.02 3.036 4.416 2.268 4.416L 1.68 4.416L 1.68 5.208L 2.268 5.208C 3.288 5.208 4.272 5.676 4.284 6.768C 4.296 7.428 3.864 8.28 2.52 8.28C 1.776 8.28 1.092 7.98 0.792 7.8L 0.504 8.604ZM 7.48434 9.132C 7.91634 9.132 8.20434 8.808 8.20434 8.376C 8.20434 7.932 7.91634 7.62 7.49634 7.62C 7.07634 7.62 6.77634 7.944 6.77634 8.376C 6.77634 8.808 7.06434 9.132 7.47234 9.132L 7.48434 9.132ZM 12.0797 9L 13.1357 9L 13.1357 5.34L 16.1837 5.34L 16.1837 4.476L 13.1357 4.476L 13.1357 1.788L 16.4357 1.788L 16.4357 0.912L 12.0797 0.912L 12.0797 9ZM 21.4563 5.436C 21.4563 4.272 21.0243 3.06 19.2363 3.06C 18.5043 3.06 17.7963 3.264 17.3163 3.564L 17.5563 4.272C 17.9643 3.996 18.5283 3.84 19.0803 3.84C 20.2683 3.828 20.4003 4.704 20.4003 5.184L 20.4003 5.304C 18.1563 5.292 16.9083 6.06 16.9083 7.464C 16.9083 8.304 17.5083 9.132 18.6843 9.132C 19.5123 9.132 20.1483 8.724 20.4603 8.268L 20.4963 8.268L 20.5923 9L 21.5403 9C 21.4803 8.604 21.4563 8.112 21.4563 7.608L 21.4563 5.436ZM 20.4243 7.044C 20.4243 7.152 20.4123 7.272 20.3763 7.38C 20.2083 7.872 19.7163 8.352 18.9483 8.352C 18.4203 8.352 17.9643 8.04 17.9643 7.344C 17.9643 6.216 19.2723 6.012 20.4243 6.036L 20.4243 7.044ZM 27.1133 7.992C 26.8133 8.124 26.4173 8.268 25.8173 8.268C 24.6653 8.268 23.8013 7.44 23.8013 6.096C 23.8013 4.896 24.5213 3.9 25.8533 3.9C 26.4293 3.9 26.8253 4.044 27.0773 4.176L 27.3173 3.372C 27.0293 3.216 26.4773 3.06 25.8533 3.06C 23.9573 3.06 22.7333 4.368 22.7333 6.156C 22.7333 7.932 23.8733 9.12 25.6253 9.12C 26.4053 9.12 27.0173 8.916 27.2933 8.784L 27.1133 7.992ZM 28.5323 9L 29.5882 9L 29.5882 5.496C 29.5882 5.292 29.6003 5.136 29.6603 4.992C 29.8643 4.416 30.3923 3.936 31.0763 3.936C 32.0723 3.936 32.4203 4.716 32.4203 5.652L 32.4203 9L 33.4763 9L 33.4763 5.544C 33.4763 3.54 32.2283 3.06 31.4483 3.06C 31.0523 3.06 30.6803 3.168 30.3682 3.36C 30.0442 3.528 29.7802 3.804 29.6122 4.104L 29.5882 4.104L 29.5882 0.48L 28.5323 0.48L 28.5323 9ZM 34.7925 8.712C 35.2005 8.952 35.7885 9.12 36.4245 9.12C 37.7805 9.12 38.5845 8.4 38.5845 7.368C 38.5845 6.504 38.0565 6 37.0605 5.628C 36.3045 5.328 35.9685 5.112 35.9685 4.632C 35.9685 4.2 36.3045 3.84 36.9285 3.84C 37.4685 3.84 37.8885 4.044 38.1165 4.176L 38.3685 3.42C 38.0565 3.216 37.5405 3.06 36.9525 3.06C 35.7165 3.06 34.9485 3.828 34.9485 4.764C 34.9485 5.448 35.4405 6.024 36.4965 6.408C 37.2645 6.696 37.5645 6.96 37.5645 7.464C 37.5645 7.956 37.2045 8.328 36.4485 8.328C 35.9205 8.328 35.3685 8.112 35.0445 7.92L 34.7925 8.712ZM 44.6143 6.288C 44.6383 6.168 44.6503 6.012 44.6503 5.796C 44.6503 4.728 44.1583 3.06 42.2623 3.06C 40.5703 3.06 39.5263 4.44 39.5263 6.192C 39.5263 7.932 40.6063 9.12 42.3823 9.12C 43.3063 9.12 43.9543 8.916 44.3263 8.748L 44.1343 7.992C 43.7503 8.16 43.2823 8.292 42.5263 8.292C 41.4703 8.292 40.5703 7.704 40.5463 6.288L 44.6143 6.288ZM 40.5583 5.532C 40.6423 4.8 41.0983 3.816 42.1783 3.816C 43.3543 3.816 43.6423 4.86 43.6303 5.532L 40.5583 5.532ZM 45.958 9L 46.99 9L 46.99 5.496C 46.99 5.316 47.014 5.136 47.074 4.98C 47.242 4.452 47.734 3.924 48.382 3.924C 49.186 3.924 49.594 4.584 49.594 5.508L 49.594 9L 50.626 9L 50.626 5.4C 50.626 5.22 50.662 5.028 50.71 4.872C 50.902 4.368 51.358 3.924 51.97 3.924C 52.81 3.924 53.23 4.584 53.23 5.712L 53.23 9L 54.262 9L 54.262 5.58C 54.262 3.564 53.122 3.06 52.342 3.06C 51.79 3.06 51.418 3.204 51.07 3.468C 50.83 3.648 50.59 3.888 50.41 4.224L 50.386 4.224C 50.134 3.54 49.534 3.06 48.754 3.06C 47.782 3.06 47.242 3.576 46.918 4.128L 46.882 4.128L 46.834 3.192L 45.91 3.192C 45.934 3.672 45.958 4.152 45.958 4.764L 45.958 9ZM 60.6338 6.288C 60.6578 6.168 60.6698 6.012 60.6698 5.796C 60.6698 4.728 60.1778 3.06 58.2818 3.06C 56.5898 3.06 55.5458 4.44 55.5458 6.192C 55.5458 7.932 56.6258 9.12 58.4018 9.12C 59.3258 9.12 59.9738 8.916 60.3458 8.748L 60.1538 7.992C 59.7698 8.16 59.3018 8.292 58.5458 8.292C 57.4898 8.292 56.5898 7.704 56.5658 6.288L 60.6338 6.288ZM 56.5778 5.532C 56.6618 4.8 57.1178 3.816 58.1978 3.816C 59.3738 3.816 59.6618 4.86 59.6498 5.532L 56.5778 5.532ZM 61.5816 8.712C 61.9896 8.952 62.5776 9.12 63.2136 9.12C 64.5696 9.12 65.3736 8.4 65.3736 7.368C 65.3736 6.504 64.8456 6 63.8496 5.628C 63.0936 5.328 62.7576 5.112 62.7576 4.632C 62.7576 4.2 63.0936 3.84 63.7176 3.84C 64.2576 3.84 64.6776 4.044 64.9056 4.176L 65.1576 3.42C 64.8456 3.216 64.3296 3.06 63.7416 3.06C 62.5056 3.06 61.7376 3.828 61.7376 4.764C 61.7376 5.448 62.2296 6.024 63.2856 6.408C 64.0536 6.696 64.3536 6.96 64.3536 7.464C 64.3536 7.956 63.9936 8.328 63.2376 8.328C 62.7096 8.328 62.1576 8.112 61.8336 7.92L 61.5816 8.712ZM 66.9754 2.124L 66.9754 3.192L 66.0754 3.192L 66.0754 3.996L 66.9754 3.996L 66.9754 7.152C 66.9754 7.836 67.0954 8.352 67.3834 8.676C 67.6354 8.952 68.0314 9.12 68.5234 9.12C 68.9314 9.12 69.2554 9.048 69.4594 8.976L 69.4114 8.172C 69.2554 8.22 69.0874 8.244 68.7994 8.244C 68.2114 8.244 68.0074 7.836 68.0074 7.116L 68.0074 3.996L 69.5194 3.996L 69.5194 3.192L 68.0074 3.192L 68.0074 1.8L 66.9754 2.124ZM 75.3057 6.288C 75.3297 6.168 75.3417 6.012 75.3417 5.796C 75.3417 4.728 74.8497 3.06 72.9537 3.06C 71.2617 3.06 70.2177 4.44 70.2177 6.192C 70.2177 7.932 71.2977 9.12 73.0737 9.12C 73.9977 9.12 74.6457 8.916 75.0177 8.748L 74.8257 7.992C 74.4417 8.16 73.9737 8.292 73.2177 8.292C 72.1617 8.292 71.2617 7.704 71.2377 6.288L 75.3057 6.288ZM 71.2497 5.532C 71.3337 4.8 71.7897 3.816 72.8697 3.816C 74.0457 3.816 74.3337 4.86 74.3217 5.532L 71.2497 5.532ZM 76.6494 9L 77.7054 9L 77.7054 5.892C 77.7054 5.724 77.7174 5.556 77.7414 5.4C 77.8854 4.62 78.4134 4.056 79.1574 4.056C 79.3014 4.056 79.4094 4.068 79.5174 4.08L 79.5174 3.084C 79.4214 3.072 79.3374 3.06 79.2294 3.06C 78.5214 3.06 77.8734 3.552 77.6094 4.332L 77.5734 4.332L 77.5254 3.192L 76.6014 3.192C 76.6374 3.732 76.6494 4.32 76.6494 5.004L 76.6494 9Z"/>
<path id="path4_fill" d="M 4.8 9L 4.8 6.864L 5.892 6.864L 5.892 6.048L 4.8 6.048L 4.8 1.2L 3.66 1.2L 0.18 6.18L 0.18 6.864L 3.804 6.864L 3.804 9L 4.8 9ZM 1.248 6.048L 1.248 6.024L 3.156 3.372C 3.372 3.012 3.564 2.676 3.804 2.22L 3.84 2.22C 3.816 2.628 3.804 3.036 3.804 3.444L 3.804 6.048L 1.248 6.048ZM 7.48434 9.132C 7.91634 9.132 8.20434 8.808 8.20434 8.376C 8.20434 7.932 7.91634 7.62 7.49634 7.62C 7.07634 7.62 6.77634 7.944 6.77634 8.376C 6.77634 8.808 7.06434 9.132 7.47234 9.132L 7.48434 9.132ZM 12.0797 9L 13.1357 9L 13.1357 5.34L 16.1837 5.34L 16.1837 4.476L 13.1357 4.476L 13.1357 1.788L 16.4357 1.788L 16.4357 0.912L 12.0797 0.912L 12.0797 9ZM 21.4563 5.436C 21.4563 4.272 21.0243 3.06 19.2363 3.06C 18.5043 3.06 17.7963 3.264 17.3163 3.564L 17.5563 4.272C 17.9643 3.996 18.5283 3.84 19.0803 3.84C 20.2683 3.828 20.4003 4.704 20.4003 5.184L 20.4003 5.304C 18.1563 5.292 16.9083 6.06 16.9083 7.464C 16.9083 8.304 17.5083 9.132 18.6843 9.132C 19.5123 9.132 20.1483 8.724 20.4603 8.268L 20.4963 8.268L 20.5923 9L 21.5403 9C 21.4803 8.604 21.4563 8.112 21.4563 7.608L 21.4563 5.436ZM 20.4243 7.044C 20.4243 7.152 20.4123 7.272 20.3763 7.38C 20.2083 7.872 19.7163 8.352 18.9483 8.352C 18.4203 8.352 17.9643 8.04 17.9643 7.344C 17.9643 6.216 19.2723 6.012 20.4243 6.036L 20.4243 7.044ZM 27.1133 7.992C 26.8133 8.124 26.4173 8.268 25.8173 8.268C 24.6653 8.268 23.8013 7.44 23.8013 6.096C 23.8013 4.896 24.5213 3.9 25.8533 3.9C 26.4293 3.9 26.8253 4.044 27.0773 4.176L 27.3173 3.372C 27.0293 3.216 26.4773 3.06 25.8533 3.06C 23.9573 3.06 22.7333 4.368 22.7333 6.156C 22.7333 7.932 23.8733 9.12 25.6253 9.12C 26.4053 9.12 27.0173 8.916 27.2933 8.784L 27.1133 7.992ZM 28.5323 9L 29.5882 9L 29.5882 5.496C 29.5882 5.292 29.6003 5.136 29.6603 4.992C 29.8643 4.416 30.3923 3.936 31.0763 3.936C 32.0723 3.936 32.4203 4.716 32.4203 5.652L 32.4203 9L 33.4763 9L 33.4763 5.544C 33.4763 3.54 32.2283 3.06 31.4483 3.06C 31.0523 3.06 30.6803 3.168 30.3682 3.36C 30.0442 3.528 29.7802 3.804 29.6122 4.104L 29.5882 4.104L 29.5882 0.48L 28.5323 0.48L 28.5323 9ZM 34.7925 8.712C 35.2005 8.952 35.7885 9.12 36.4245 9.12C 37.7805 9.12 38.5845 8.4 38.5845 7.368C 38.5845 6.504 38.0565 6 37.0605 5.628C 36.3045 5.328 35.9685 5.112 35.9685 4.632C 35.9685 4.2 36.3045 3.84 36.9285 3.84C 37.4685 3.84 37.8885 4.044 38.1165 4.176L 38.3685 3.42C 38.0565 3.216 37.5405 3.06 36.9525 3.06C 35.7165 3.06 34.9485 3.828 34.9485 4.764C 34.9485 5.448 35.4405 6.024 36.4965 6.408C 37.2645 6.696 37.5645 6.96 37.5645 7.464C 37.5645 7.956 37.2045 8.328 36.4485 8.328C 35.9205 8.328 35.3685 8.112 35.0445 7.92L 34.7925 8.712ZM 44.6143 6.288C 44.6383 6.168 44.6503 6.012 44.6503 5.796C 44.6503 4.728 44.1583 3.06 42.2623 3.06C 40.5703 3.06 39.5263 4.44 39.5263 6.192C 39.5263 7.932 40.6063 9.12 42.3823 9.12C 43.3063 9.12 43.9543 8.916 44.3263 8.748L 44.1343 7.992C 43.7503 8.16 43.2823 8.292 42.5263 8.292C 41.4703 8.292 40.5703 7.704 40.5463 6.288L 44.6143 6.288ZM 40.5583 5.532C 40.6423 4.8 41.0983 3.816 42.1783 3.816C 43.3543 3.816 43.6423 4.86 43.6303 5.532L 40.5583 5.532ZM 45.958 9L 46.99 9L 46.99 5.496C 46.99 5.316 47.014 5.136 47.074 4.98C 47.242 4.452 47.734 3.924 48.382 3.924C 49.186 3.924 49.594 4.584 49.594 5.508L 49.594 9L 50.626 9L 50.626 5.4C 50.626 5.22 50.662 5.028 50.71 4.872C 50.902 4.368 51.358 3.924 51.97 3.924C 52.81 3.924 53.23 4.584 53.23 5.712L 53.23 9L 54.262 9L 54.262 5.58C 54.262 3.564 53.122 3.06 52.342 3.06C 51.79 3.06 51.418 3.204 51.07 3.468C 50.83 3.648 50.59 3.888 50.41 4.224L 50.386 4.224C 50.134 3.54 49.534 3.06 48.754 3.06C 47.782 3.06 47.242 3.576 46.918 4.128L 46.882 4.128L 46.834 3.192L 45.91 3.192C 45.934 3.672 45.958 4.152 45.958 4.764L 45.958 9ZM 60.6338 6.288C 60.6578 6.168 60.6698 6.012 60.6698 5.796C 60.6698 4.728 60.1778 3.06 58.2818 3.06C 56.5898 3.06 55.5458 4.44 55.5458 6.192C 55.5458 7.932 56.6258 9.12 58.4018 9.12C 59.3258 9.12 59.9738 8.916 60.3458 8.748L 60.1538 7.992C 59.7698 8.16 59.3018 8.292 58.5458 8.292C 57.4898 8.292 56.5898 7.704 56.5658 6.288L 60.6338 6.288ZM 56.5778 5.532C 56.6618 4.8 57.1178 3.816 58.1978 3.816C 59.3738 3.816 59.6618 4.86 59.6498 5.532L 56.5778 5.532ZM 61.5816 8.712C 61.9896 8.952 62.5776 9.12 63.2136 9.12C 64.5696 9.12 65.3736 8.4 65.3736 7.368C 65.3736 6.504 64.8456 6 63.8496 5.628C 63.0936 5.328 62.7576 5.112 62.7576 4.632C 62.7576 4.2 63.0936 3.84 63.7176 3.84C 64.2576 3.84 64.6776 4.044 64.9056 4.176L 65.1576 3.42C 64.8456 3.216 64.3296 3.06 63.7416 3.06C 62.5056 3.06 61.7376 3.828 61.7376 4.764C 61.7376 5.448 62.2296 6.024 63.2856 6.408C 64.0536 6.696 64.3536 6.96 64.3536 7.464C 64.3536 7.956 63.9936 8.328 63.2376 8.328C 62.7096 8.328 62.1576 8.112 61.8336 7.92L 61.5816 8.712ZM 66.9754 2.124L 66.9754 3.192L 66.0754 3.192L 66.0754 3.996L 66.9754 3.996L 66.9754 7.152C 66.9754 7.836 67.0954 8.352 67.3834 8.676C 67.6354 8.952 68.0314 9.12 68.5234 9.12C 68.9314 9.12 69.2554 9.048 69.4594 8.976L 69.4114 8.172C 69.2554 8.22 69.0874 8.244 68.7994 8.244C 68.2114 8.244 68.0074 7.836 68.0074 7.116L 68.0074 3.996L 69.5194 3.996L 69.5194 3.192L 68.0074 3.192L 68.0074 1.8L 66.9754 2.124ZM 75.3057 6.288C 75.3297 6.168 75.3417 6.012 75.3417 5.796C 75.3417 4.728 74.8497 3.06 72.9537 3.06C 71.2617 3.06 70.2177 4.44 70.2177 6.192C 70.2177 7.932 71.2977 9.12 73.0737 9.12C 73.9977 9.12 74.6457 8.916 75.0177 8.748L 74.8257 7.992C 74.4417 8.16 73.9737 8.292 73.2177 8.292C 72.1617 8.292 71.2617 7.704 71.2377 6.288L 75.3057 6.288ZM 71.2497 5.532C 71.3337 4.8 71.7897 3.816 72.8697 3.816C 74.0457 3.816 74.3337 4.86 74.3217 5.532L 71.2497 5.532ZM 76.6494 9L 77.7054 9L 77.7054 5.892C 77.7054 5.724 77.7174 5.556 77.7414 5.4C 77.8854 4.62 78.4134 4.056 79.1574 4.056C 79.3014 4.056 79.4094 4.068 79.5174 4.08L 79.5174 3.084C 79.4214 3.072 79.3374 3.06 79.2294 3.06C 78.5214 3.06 77.8734 3.552 77.6094 4.332L 77.5734 4.332L 77.5254 3.192L 76.6014 3.192C 76.6374 3.732 76.6494 4.32 76.6494 5.004L 76.6494 9Z"/>
<path id="path5_fill" d="M 0 0L 198 0L 198 432L 0 432L 0 0Z"/>
<path id="path6_fill" d="M 34.3309 7.628L 30.3349 7.628L 30.3349 8.888L 32.7829 8.888L 32.7829 12.506C 32.4229 12.686 31.7209 12.83 30.6949 12.83C 27.8509 12.83 26.0149 11.012 26.0149 7.934C 26.0149 4.892 27.9409 3.056 30.8929 3.056C 32.1169 3.056 32.9269 3.272 33.5749 3.578L 33.9709 2.3C 33.4489 2.048 32.3329 1.742 30.9289 1.742C 26.8609 1.742 24.3589 4.388 24.3589 8.006C 24.3589 9.896 25.0069 11.516 26.0509 12.524C 27.2389 13.658 28.7509 14.126 30.5869 14.126C 32.2249 14.126 33.6289 13.73 34.3309 13.46L 34.3309 7.628ZM 36.6617 14L 38.2457 14L 38.2457 9.338C 38.2457 9.086 38.2637 8.834 38.2997 8.6C 38.5157 7.43 39.3077 6.584 40.4237 6.584C 40.6397 6.584 40.8017 6.602 40.9637 6.62L 40.9637 5.126C 40.8197 5.108 40.6937 5.09 40.5317 5.09C 39.4697 5.09 38.4977 5.828 38.1017 6.998L 38.0477 6.998L 37.9757 5.288L 36.5897 5.288C 36.6437 6.098 36.6617 6.98 36.6617 8.006L 36.6617 14ZM 49.8403 5.288L 48.2563 5.288L 48.2563 10.616C 48.2563 10.922 48.2023 11.21 48.1123 11.426C 47.8243 12.146 47.0863 12.884 46.0243 12.884C 44.6023 12.884 44.0803 11.75 44.0803 10.094L 44.0803 5.288L 42.4963 5.288L 42.4963 10.382C 42.4963 13.424 44.1343 14.198 45.5023 14.198C 47.0503 14.198 47.9863 13.28 48.3823 12.578L 48.4183 12.578L 48.5083 14L 49.9123 14C 49.8583 13.316 49.8403 12.524 49.8403 11.606L 49.8403 5.288ZM 52.4644 14L 54.0484 14L 54.0484 8.744C 54.0484 8.492 54.0844 8.204 54.1564 8.006C 54.4444 7.124 55.2544 6.386 56.2804 6.386C 57.7744 6.386 58.2964 7.574 58.2964 8.978L 58.2964 14L 59.8804 14L 59.8804 8.798C 59.8804 5.81 58.0084 5.09 56.8024 5.09C 55.3624 5.09 54.3544 5.9 53.9224 6.71L 53.8864 6.71L 53.7964 5.288L 52.3924 5.288C 52.4464 6.008 52.4644 6.728 52.4644 7.646L 52.4644 14ZM 68.3888 1.22L 68.3888 6.404L 68.3528 6.404C 67.9748 5.72 67.0748 5.09 65.7248 5.09C 63.6188 5.09 61.8008 6.854 61.8188 9.77C 61.8188 12.416 63.4568 14.198 65.5628 14.198C 66.9848 14.198 68.0288 13.46 68.5148 12.488L 68.5508 12.488L 68.6228 14L 70.0448 14C 69.9908 13.406 69.9728 12.524 69.9728 11.75L 69.9728 1.22L 68.3888 1.22ZM 68.3888 10.346C 68.3888 10.598 68.3708 10.814 68.3168 11.012C 68.0288 12.2 67.0568 12.92 65.9948 12.92C 64.3028 12.92 63.4208 11.462 63.4208 9.68C 63.4208 7.772 64.3928 6.332 66.0308 6.332C 67.2188 6.332 68.0828 7.16 68.3168 8.15C 68.3708 8.366 68.3888 8.618 68.3888 8.834L 68.3888 10.346ZM 72.6089 14L 74.1929 14L 74.1929 1.22L 72.6089 1.22L 72.6089 14ZM 83.0008 8.654C 83.0008 6.908 82.3528 5.09 79.6708 5.09C 78.5728 5.09 77.5108 5.396 76.7908 5.846L 77.1508 6.908C 77.7628 6.494 78.6088 6.26 79.4368 6.26C 81.2188 6.242 81.4168 7.556 81.4168 8.276L 81.4168 8.456C 78.0508 8.438 76.1788 9.59 76.1788 11.696C 76.1788 12.956 77.0788 14.198 78.8428 14.198C 80.0848 14.198 81.0388 13.586 81.5068 12.902L 81.5608 12.902L 81.7048 14L 83.1268 14C 83.0368 13.406 83.0008 12.668 83.0008 11.912L 83.0008 8.654ZM 81.4528 11.066C 81.4528 11.228 81.4348 11.408 81.3808 11.57C 81.1288 12.308 80.3908 13.028 79.2388 13.028C 78.4468 13.028 77.7628 12.56 77.7628 11.516C 77.7628 9.824 79.7248 9.518 81.4528 9.554L 81.4528 11.066ZM 92.9984 7.664C 92.9984 6.62 93.0164 5.9 93.0704 5.288L 91.6664 5.288L 91.6124 6.602L 91.5764 6.602C 91.1804 5.864 90.3704 5.09 88.8584 5.09C 86.8424 5.09 84.9164 6.746 84.9164 9.698C 84.9164 12.128 86.4644 13.964 88.6244 13.964C 89.9744 13.964 90.9284 13.316 91.3964 12.506L 91.4324 12.506L 91.4324 13.46C 91.4324 15.674 90.2444 16.52 88.6244 16.52C 87.5444 16.52 86.6444 16.196 86.0684 15.818L 85.6724 17.042C 86.3744 17.51 87.5264 17.762 88.5704 17.762C 89.6684 17.762 90.8924 17.492 91.7564 16.718C 92.5844 15.944 92.9984 14.738 92.9984 12.722L 92.9984 7.664ZM 91.4144 10.274C 91.4144 10.562 91.3784 10.868 91.2884 11.12C 90.9644 12.146 90.0824 12.758 89.0924 12.758C 87.4004 12.758 86.5184 11.318 86.5184 9.626C 86.5184 7.592 87.5984 6.314 89.1104 6.314C 90.2804 6.314 91.0364 7.07 91.3244 8.006C 91.3964 8.222 91.4144 8.456 91.4144 8.708L 91.4144 10.274ZM 102.603 9.932C 102.639 9.752 102.657 9.518 102.657 9.194C 102.657 7.592 101.919 5.09 99.0751 5.09C 96.5371 5.09 94.9711 7.16 94.9711 9.788C 94.9711 12.398 96.5911 14.18 99.2551 14.18C 100.641 14.18 101.613 13.874 102.171 13.622L 101.883 12.488C 101.307 12.74 100.605 12.938 99.4711 12.938C 97.8871 12.938 96.5371 12.056 96.5011 9.932L 102.603 9.932ZM 96.5191 8.798C 96.6451 7.7 97.3291 6.224 98.9491 6.224C 100.713 6.224 101.145 7.79 101.127 8.798L 96.5191 8.798ZM 104.619 14L 106.203 14L 106.203 8.744C 106.203 8.492 106.239 8.204 106.311 8.006C 106.599 7.124 107.409 6.386 108.435 6.386C 109.929 6.386 110.451 7.574 110.451 8.978L 110.451 14L 112.035 14L 112.035 8.798C 112.035 5.81 110.163 5.09 108.957 5.09C 107.517 5.09 106.509 5.9 106.077 6.71L 106.041 6.71L 105.951 5.288L 104.547 5.288C 104.601 6.008 104.619 6.728 104.619 7.646L 104.619 14ZM 7.75851 23.12C 7.47051 23.12 7.07451 23.138 6.60651 23.21C 5.13051 23.39 3.83451 23.984 2.86251 24.938C 1.69251 26.09 0.882508 27.908 0.882508 30.212C 0.882508 33.254 2.52051 35.198 5.00451 35.198C 7.45251 35.198 8.91051 33.218 8.91051 31.058C 8.91051 28.79 7.45251 27.278 5.38251 27.278C 4.08651 27.278 3.09651 27.89 2.53851 28.646L 2.50251 28.646C 2.77251 26.702 4.06851 24.902 6.57051 24.506C 7.02051 24.434 7.43451 24.398 7.75851 24.416L 7.75851 23.12ZM 5.02251 33.974C 3.36651 33.974 2.46651 32.534 2.44851 30.608C 2.44851 30.32 2.52051 30.104 2.61051 29.924C 3.04251 29.06 3.94251 28.484 4.89651 28.484C 6.35451 28.484 7.30851 29.492 7.30851 31.166C 7.30851 32.84 6.39051 33.974 5.04051 33.974L 5.02251 33.974ZM 22.8355 33.344C 22.2055 33.65 21.2335 33.848 20.2615 33.848C 17.3275 33.848 15.6175 31.958 15.6175 28.988C 15.6175 25.82 17.5075 24.002 20.3515 24.002C 21.3595 24.002 22.2055 24.218 22.7815 24.506L 23.1775 23.21C 22.7635 23.012 21.7915 22.688 20.2975 22.688C 16.5355 22.688 13.9615 25.244 13.9615 29.042C 13.9615 33.02 16.5175 35.18 19.9375 35.18C 21.4135 35.18 22.5835 34.892 23.1415 34.604L 22.8355 33.344ZM 25.1229 35L 26.6889 35L 26.6889 30.122C 27.0489 30.212 27.4809 30.23 27.9489 30.23C 29.4789 30.23 30.8289 29.78 31.6569 28.898C 32.2869 28.268 32.6109 27.404 32.6109 26.306C 32.6109 25.244 32.1969 24.362 31.5309 23.786C 30.8109 23.138 29.6769 22.778 28.1289 22.778C 26.8689 22.778 25.8789 22.886 25.1229 23.03L 25.1229 35ZM 26.6889 24.146C 26.9589 24.074 27.4809 24.02 28.1649 24.02C 29.8929 24.02 31.0269 24.794 31.0269 26.396C 31.0269 28.052 29.8749 28.97 27.9849 28.97C 27.4629 28.97 27.0309 28.934 26.6889 28.844L 26.6889 24.146ZM 38.4634 38.564L 40.0474 38.564L 40.0474 33.83L 40.0834 33.83C 40.6054 34.694 41.5954 35.198 42.7654 35.198C 44.7994 35.198 46.7254 33.65 46.7254 30.518C 46.7254 27.872 45.1414 26.09 43.0174 26.09C 41.6134 26.09 40.5694 26.702 39.9394 27.782L 39.9034 27.782L 39.8134 26.288L 38.3914 26.288C 38.4454 27.116 38.4634 28.016 38.4634 29.132L 38.4634 38.564ZM 40.0474 29.942C 40.0474 29.744 40.1014 29.51 40.1374 29.312C 40.4434 28.106 41.4694 27.35 42.5494 27.35C 44.2234 27.35 45.1234 28.844 45.1234 30.59C 45.1234 32.588 44.1514 33.956 42.4774 33.956C 41.3614 33.956 40.3894 33.2 40.1194 32.102C 40.0654 31.904 40.0474 31.67 40.0474 31.454L 40.0474 29.942ZM 48.7115 35L 50.2955 35L 50.2955 30.338C 50.2955 30.086 50.3135 29.834 50.3495 29.6C 50.5655 28.43 51.3575 27.584 52.4735 27.584C 52.6895 27.584 52.8515 27.602 53.0135 27.62L 53.0135 26.126C 52.8695 26.108 52.7435 26.09 52.5815 26.09C 51.5195 26.09 50.5475 26.828 50.1515 27.998L 50.0975 27.998L 50.0255 26.288L 48.6395 26.288C 48.6935 27.098 48.7115 27.98 48.7115 29.006L 48.7115 35ZM 57.9884 35.198C 60.0584 35.198 62.3084 33.794 62.3084 30.554C 62.3084 27.908 60.6164 26.09 58.1144 26.09C 55.7204 26.09 53.7944 27.8 53.7944 30.716C 53.7944 33.47 55.6304 35.198 57.9704 35.198L 57.9884 35.198ZM 58.0244 34.01C 56.4944 34.01 55.4144 32.57 55.4144 30.662C 55.4144 29.006 56.2244 27.278 58.0784 27.278C 59.9504 27.278 60.6884 29.132 60.6884 30.608C 60.6884 32.588 59.5544 34.01 58.0424 34.01L 58.0244 34.01ZM 67.5597 34.388C 68.2077 34.82 69.4857 35.18 70.6557 35.18C 73.5177 35.18 74.8857 33.542 74.8857 31.688C 74.8857 29.906 73.8597 28.934 71.8077 28.124C 70.1337 27.476 69.3957 26.918 69.3957 25.802C 69.3957 24.974 70.0257 23.984 71.6817 23.984C 72.7797 23.984 73.5897 24.326 73.9677 24.56L 74.3997 23.264C 73.8777 22.976 72.9597 22.688 71.7357 22.688C 69.3777 22.688 67.8117 24.092 67.8117 25.982C 67.8117 27.674 69.0357 28.718 71.0157 29.402C 72.6537 30.014 73.3017 30.68 73.3017 31.814C 73.3017 33.038 72.3657 33.866 70.7637 33.866C 69.6837 33.866 68.6757 33.524 67.9737 33.092L 67.5597 34.388ZM 84.1021 30.932C 84.1381 30.752 84.1561 30.518 84.1561 30.194C 84.1561 28.592 83.4181 26.09 80.5741 26.09C 78.0361 26.09 76.4701 28.16 76.4701 30.788C 76.4701 33.398 78.0901 35.18 80.7541 35.18C 82.1401 35.18 83.1121 34.874 83.6701 34.622L 83.3821 33.488C 82.8061 33.74 82.1041 33.938 80.9701 33.938C 79.3861 33.938 78.0361 33.056 78.0001 30.932L 84.1021 30.932ZM 78.0181 29.798C 78.1441 28.7 78.8281 27.224 80.4481 27.224C 82.2121 27.224 82.6441 28.79 82.6261 29.798L 78.0181 29.798ZM 86.1177 35L 87.6657 35L 87.6657 29.744C 87.6657 29.474 87.7017 29.204 87.7917 28.97C 88.0437 28.178 88.7817 27.386 89.7537 27.386C 90.9597 27.386 91.5717 28.376 91.5717 29.762L 91.5717 35L 93.1197 35L 93.1197 29.6C 93.1197 29.33 93.1737 29.042 93.2457 28.808C 93.5337 28.052 94.2177 27.386 95.1357 27.386C 96.3957 27.386 97.0257 28.376 97.0257 30.068L 97.0257 35L 98.5737 35L 98.5737 29.87C 98.5737 26.846 96.8637 26.09 95.6937 26.09C 94.8657 26.09 94.3077 26.306 93.7857 26.702C 93.4257 26.972 93.0657 27.332 92.7957 27.836L 92.7597 27.836C 92.3817 26.81 91.4817 26.09 90.3117 26.09C 88.8537 26.09 88.0437 26.864 87.5577 27.692L 87.5037 27.692L 87.4317 26.288L 86.0457 26.288C 86.0817 27.008 86.1177 27.728 86.1177 28.646L 86.1177 35ZM 108.131 30.932C 108.167 30.752 108.185 30.518 108.185 30.194C 108.185 28.592 107.447 26.09 104.603 26.09C 102.065 26.09 100.499 28.16 100.499 30.788C 100.499 33.398 102.119 35.18 104.783 35.18C 106.169 35.18 107.141 34.874 107.699 34.622L 107.411 33.488C 106.835 33.74 106.133 33.938 104.999 33.938C 103.415 33.938 102.065 33.056 102.029 30.932L 108.131 30.932ZM 102.047 29.798C 102.173 28.7 102.857 27.224 104.477 27.224C 106.241 27.224 106.673 28.79 106.655 29.798L 102.047 29.798ZM 109.553 34.568C 110.165 34.928 111.047 35.18 112.001 35.18C 114.035 35.18 115.241 34.1 115.241 32.552C 115.241 31.256 114.449 30.5 112.955 29.942C 111.821 29.492 111.317 29.168 111.317 28.448C 111.317 27.8 111.821 27.26 112.757 27.26C 113.567 27.26 114.197 27.566 114.539 27.764L 114.917 26.63C 114.449 26.324 113.675 26.09 112.793 26.09C 110.939 26.09 109.787 27.242 109.787 28.646C 109.787 29.672 110.525 30.536 112.109 31.112C 113.261 31.544 113.711 31.94 113.711 32.696C 113.711 33.434 113.171 33.992 112.037 33.992C 111.245 33.992 110.417 33.668 109.931 33.38L 109.553 34.568ZM 117.644 24.686L 117.644 26.288L 116.294 26.288L 116.294 27.494L 117.644 27.494L 117.644 32.228C 117.644 33.254 117.824 34.028 118.256 34.514C 118.634 34.928 119.228 35.18 119.966 35.18C 120.578 35.18 121.064 35.072 121.37 34.964L 121.298 33.758C 121.064 33.83 120.812 33.866 120.38 33.866C 119.498 33.866 119.192 33.254 119.192 32.174L 119.192 27.494L 121.46 27.494L 121.46 26.288L 119.192 26.288L 119.192 24.2L 117.644 24.686ZM 130.139 30.932C 130.175 30.752 130.193 30.518 130.193 30.194C 130.193 28.592 129.455 26.09 126.611 26.09C 124.073 26.09 122.507 28.16 122.507 30.788C 122.507 33.398 124.127 35.18 126.791 35.18C 128.177 35.18 129.149 34.874 129.707 34.622L 129.419 33.488C 128.843 33.74 128.141 33.938 127.007 33.938C 125.423 33.938 124.073 33.056 124.037 30.932L 130.139 30.932ZM 124.055 29.798C 124.181 28.7 124.865 27.224 126.485 27.224C 128.249 27.224 128.681 28.79 128.663 29.798L 124.055 29.798ZM 132.155 35L 133.739 35L 133.739 30.338C 133.739 30.086 133.757 29.834 133.793 29.6C 134.009 28.43 134.801 27.584 135.917 27.584C 136.133 27.584 136.295 27.602 136.457 27.62L 136.457 26.126C 136.313 26.108 136.187 26.09 136.025 26.09C 134.963 26.09 133.991 26.828 133.595 27.998L 133.541 27.998L 133.469 26.288L 132.083 26.288C 132.137 27.098 132.155 27.98 132.155 29.006L 132.155 35Z"/>
<path id="path7_fill" d="M 3.096 9L 7.356 0.912L 6.252 0.912L 3.684 5.964C 3.24 6.816 3 7.416 2.796 7.92L 2.76 7.92C 2.748 7.392 2.7 6.924 2.604 6.096L 2.016 0.912L 0.996 0.912L 2.004 9L 3.096 9ZM 7.707 9L 8.823 3.192L 7.827 3.192L 6.711 9L 7.707 9ZM 8.583 2.196C 8.967 2.196 9.243 1.92 9.255 1.524C 9.255 1.164 9.027 0.9 8.667 0.9C 8.307 0.9 8.007 1.188 8.007 1.572C 8.007 1.932 8.235 2.196 8.583 2.196ZM 9.22519 8.724C 9.48919 8.928 10.0412 9.12 10.6652 9.12C 11.8892 9.12 12.8852 8.436 12.8852 7.212C 12.8852 6.564 12.4412 6.06 11.7932 5.688C 11.2772 5.4 11.0012 5.136 11.0012 4.716C 11.0012 4.212 11.4332 3.84 12.0332 3.84C 12.4652 3.84 12.8372 3.984 13.0412 4.104L 13.3172 3.348C 13.1012 3.204 12.6332 3.06 12.1052 3.06C 10.8812 3.06 10.0052 3.84 10.0052 4.86C 10.0052 5.448 10.3772 5.964 11.0492 6.336C 11.6492 6.672 11.8532 6.948 11.8532 7.404C 11.8532 7.92 11.4212 8.352 10.7492 8.352C 10.2812 8.352 9.77719 8.16 9.50119 7.992L 9.22519 8.724ZM 14.9258 9L 16.0418 3.192L 15.0457 3.192L 13.9298 9L 14.9258 9ZM 15.8018 2.196C 16.1857 2.196 16.4617 1.92 16.4737 1.524C 16.4737 1.164 16.2458 0.9 15.8857 0.9C 15.5258 0.9 15.2257 1.188 15.2257 1.572C 15.2257 1.932 15.4537 2.196 15.8018 2.196ZM 19.9719 3.06C 18.0879 3.06 16.7559 4.836 16.7559 6.744C 16.7559 8.052 17.5719 9.132 19.0239 9.132C 20.9679 9.132 22.2399 7.272 22.2399 5.484C 22.2399 4.248 21.5439 3.06 19.9719 3.06ZM 19.8639 3.852C 20.9079 3.852 21.2199 4.8 21.2199 5.472C 21.2199 6.828 20.3319 8.34 19.1559 8.34C 18.3039 8.34 17.7879 7.656 17.7879 6.708C 17.7759 5.376 18.6159 3.852 19.8639 3.852ZM 23.9375 9L 24.4655 6.18C 24.7295 4.74 25.7375 3.888 26.4455 3.888C 27.1295 3.888 27.3575 4.32 27.3575 4.908C 27.3575 5.148 27.3215 5.424 27.2735 5.652L 26.6375 9L 27.6335 9L 28.2815 5.616C 28.3415 5.304 28.3895 4.932 28.3895 4.68C 28.3895 3.456 27.6095 3.06 26.9135 3.06C 26.0615 3.06 25.2815 3.516 24.7655 4.332L 24.7415 4.332L 24.8855 3.192L 23.9975 3.192C 23.9255 3.672 23.8535 4.236 23.7215 4.884L 22.9415 9L 23.9375 9ZM 36.1993 3.192L 35.6353 6.168C 35.3953 7.452 34.4713 8.292 33.7513 8.292C 33.0673 8.292 32.8153 7.884 32.8153 7.284C 32.8153 7.032 32.8513 6.756 32.9233 6.432L 33.5353 3.192L 32.5393 3.192L 31.9153 6.48C 31.8433 6.864 31.8073 7.176 31.8073 7.452C 31.8073 8.772 32.5873 9.132 33.3313 9.132C 34.0993 9.132 34.8673 8.664 35.3833 7.908L 35.4073 7.908L 35.2513 9L 36.1513 9C 36.2113 8.52 36.2953 7.956 36.4153 7.308L 37.1953 3.192L 36.1993 3.192ZM 38.8437 9L 39.3717 6.18C 39.6357 4.74 40.6437 3.888 41.3517 3.888C 42.0357 3.888 42.2637 4.32 42.2637 4.908C 42.2637 5.148 42.2277 5.424 42.1797 5.652L 41.5437 9L 42.5397 9L 43.1877 5.616C 43.2477 5.304 43.2957 4.932 43.2957 4.68C 43.2957 3.456 42.5157 3.06 41.8197 3.06C 40.9677 3.06 40.1877 3.516 39.6717 4.332L 39.6477 4.332L 39.7917 3.192L 38.9037 3.192C 38.8317 3.672 38.7597 4.236 38.6277 4.884L 37.8477 9L 38.8437 9ZM 49.4419 0.48L 48.9259 3.264C 48.6739 3.144 48.2659 3.06 47.8939 3.06C 45.8419 3.06 44.3059 4.956 44.3059 7.02C 44.3059 8.208 44.9179 9.132 46.0459 9.132C 46.8739 9.132 47.6059 8.676 48.1339 7.848L 48.1579 7.848L 48.0019 9L 48.9139 9C 48.9499 8.436 49.0459 7.764 49.1659 7.164L 50.4379 0.48L 49.4419 0.48ZM 48.3739 6.132C 48.1219 7.44 47.1979 8.316 46.4299 8.316C 45.5779 8.316 45.3379 7.584 45.3379 6.888C 45.3379 5.34 46.4179 3.864 47.8099 3.864C 48.2299 3.864 48.5659 3.972 48.7699 4.104L 48.3739 6.132ZM 52.7782 9L 53.7623 9L 54.3503 5.928L 55.3222 5.028L 57.0862 9L 58.1782 9L 56.0902 4.392L 59.4982 0.912L 58.2503 0.912L 55.4062 3.936C 55.1662 4.212 54.8903 4.5 54.6142 4.836L 54.5542 4.848L 55.3102 0.912L 54.3143 0.912L 52.7782 9ZM 62.1243 3.06C 60.2403 3.06 58.9083 4.836 58.9083 6.744C 58.9083 8.052 59.7243 9.132 61.1763 9.132C 63.1203 9.132 64.3923 7.272 64.3923 5.484C 64.3923 4.248 63.6963 3.06 62.1243 3.06ZM 62.0163 3.852C 63.0603 3.852 63.3723 4.8 63.3723 5.472C 63.3723 6.828 62.4843 8.34 61.3083 8.34C 60.4563 8.34 59.9403 7.656 59.9403 6.708C 59.9283 5.376 60.7683 3.852 62.0163 3.852ZM 66.0898 9L 66.6178 6.18C 66.8818 4.74 67.8898 3.888 68.5978 3.888C 69.2818 3.888 69.5098 4.32 69.5098 4.908C 69.5098 5.148 69.4738 5.424 69.4258 5.652L 68.7898 9L 69.7858 9L 70.4338 5.616C 70.4938 5.304 70.5418 4.932 70.5418 4.68C 70.5418 3.456 69.7618 3.06 69.0658 3.06C 68.2138 3.06 67.4338 3.516 66.9178 4.332L 66.8938 4.332L 67.0378 3.192L 66.1498 3.192C 66.0778 3.672 66.0058 4.236 65.8738 4.884L 65.0938 9L 66.0898 9ZM 70.916 9L 75.356 9L 75.512 8.184L 72.296 8.184L 72.296 8.148C 72.668 7.824 72.98 7.512 73.496 6.948L 76.28 3.852L 76.412 3.192L 72.236 3.192L 72.08 4.008L 75.056 4.008L 75.044 4.044C 74.66 4.416 74.336 4.716 73.844 5.256L 71.024 8.388L 70.916 9ZM 80.4698 7.92C 80.1098 8.112 79.5938 8.328 78.9098 8.328C 78.3098 8.328 77.8418 8.064 77.6138 7.548C 77.4818 7.236 77.4458 6.696 77.4938 6.444C 79.6418 6.48 81.3578 6.072 81.3578 4.548C 81.3578 3.72 80.7578 3.06 79.6538 3.06C 77.7818 3.06 76.4858 5.04 76.4858 6.792C 76.4858 8.076 77.1578 9.12 78.6938 9.12C 79.4738 9.12 80.1818 8.916 80.6138 8.664L 80.4698 7.92ZM 80.3978 4.584C 80.3978 5.484 79.1738 5.688 77.6138 5.676C 77.8538 4.764 78.5618 3.84 79.5098 3.84C 80.0378 3.84 80.3978 4.104 80.3978 4.584ZM 82.3313 11.376L 82.7993 8.868L 82.8233 8.868C 83.0513 9 83.4593 9.132 84.0833 9.132C 86.0153 9.132 87.4793 7.2 87.4793 5.16C 87.4793 4.092 86.9513 3.06 85.6913 3.06C 84.8993 3.06 84.1313 3.528 83.6033 4.284L 83.5793 4.284L 83.7473 3.192L 82.8353 3.192C 82.7513 3.78 82.6313 4.56 82.5113 5.256L 81.3473 11.376L 82.3313 11.376ZM 83.2673 6.408C 83.5673 4.788 84.5513 3.888 85.3313 3.888C 86.1713 3.888 86.4473 4.62 86.4473 5.232C 86.4473 6.756 85.3673 8.352 84.0833 8.352C 83.6153 8.352 83.2313 8.232 82.9793 8.028L 83.2673 6.408ZM 89.74 1.884L 89.488 3.192L 88.66 3.192L 88.504 3.972L 89.344 3.972L 88.768 6.912C 88.684 7.332 88.648 7.668 88.648 8.004C 88.648 8.592 88.984 9.132 89.872 9.132C 90.16 9.132 90.46 9.096 90.64 9.024L 90.688 8.244C 90.556 8.268 90.388 8.28 90.22 8.28C 89.836 8.28 89.668 8.076 89.668 7.728C 89.668 7.416 89.716 7.116 89.776 6.792L 90.316 3.972L 91.708 3.972L 91.864 3.192L 90.472 3.192L 90.772 1.632L 89.74 1.884Z"/>
<path id="path8_fill" d="M 5.196 4.356L 2.256 4.356L 2.748 1.764L 5.868 1.764L 6.036 0.912L 1.908 0.912L 0.372 9L 4.68 9L 4.848 8.148L 1.536 8.148L 2.088 5.196L 5.028 5.196L 5.196 4.356ZM 6.96872 9L 7.49672 6.18C 7.76072 4.74 8.76872 3.888 9.47672 3.888C 10.1607 3.888 10.3887 4.32 10.3887 4.908C 10.3887 5.148 10.3527 5.424 10.3047 5.652L 9.66872 9L 10.6647 9L 11.3127 5.616C 11.3727 5.304 11.4207 4.932 11.4207 4.68C 11.4207 3.456 10.6407 3.06 9.94472 3.06C 9.09272 3.06 8.31272 3.516 7.79672 4.332L 7.77272 4.332L 7.91672 3.192L 7.02872 3.192C 6.95672 3.672 6.88472 4.236 6.75272 4.884L 5.97272 9L 6.96872 9ZM 13.9549 1.884L 13.7029 3.192L 12.8749 3.192L 12.7189 3.972L 13.5589 3.972L 12.9829 6.912C 12.8989 7.332 12.8629 7.668 12.8629 8.004C 12.8629 8.592 13.1989 9.132 14.0869 9.132C 14.3749 9.132 14.6749 9.096 14.8549 9.024L 14.9029 8.244C 14.7709 8.268 14.6029 8.28 14.4349 8.28C 14.0509 8.28 13.8829 8.076 13.8829 7.728C 13.8829 7.416 13.9309 7.116 13.9909 6.792L 14.5309 3.972L 15.9229 3.972L 16.0789 3.192L 14.6869 3.192L 14.9869 1.632L 13.9549 1.884ZM 16.6695 3.192L 17.2095 9L 18.1335 9L 19.8015 5.82C 20.0655 5.304 20.2335 4.86 20.4735 4.308L 20.4975 4.308C 20.4975 4.812 20.5215 5.304 20.5815 5.844L 20.9655 9L 21.8895 9L 24.7575 3.192L 23.7495 3.192L 22.1775 6.552C 21.9495 7.104 21.7815 7.548 21.6255 8.016L 21.6015 8.016C 21.6135 7.632 21.5655 7.14 21.5055 6.504L 21.1455 3.192L 20.2815 3.192L 18.5535 6.564C 18.2655 7.14 18.0495 7.644 17.9175 8.016L 17.8815 8.016C 17.8935 7.548 17.9055 7.176 17.8575 6.456L 17.6535 3.192L 16.6695 3.192ZM 25.7539 9L 26.8699 3.192L 25.8739 3.192L 24.7579 9L 25.7539 9ZM 26.6299 2.196C 27.0139 2.196 27.2899 1.92 27.3019 1.524C 27.3019 1.164 27.0739 0.9 26.7139 0.9C 26.3539 0.9 26.0539 1.188 26.0539 1.572C 26.0539 1.932 26.2819 2.196 26.6299 2.196ZM 31.4001 7.98C 31.1001 8.124 30.6441 8.304 30.0561 8.304C 29.1081 8.304 28.6161 7.692 28.6161 6.756C 28.6161 5.388 29.5641 3.9 31.0761 3.9C 31.5081 3.9 31.8321 4.008 32.0601 4.116L 32.3481 3.324C 32.1681 3.228 31.6761 3.072 31.1361 3.072C 29.0481 3.072 27.5841 4.896 27.5841 6.876C 27.5841 8.112 28.3161 9.12 29.8161 9.12C 30.5961 9.12 31.1961 8.916 31.4961 8.772L 31.4001 7.98ZM 33.5703 9L 33.9903 6.792L 34.7223 6.132L 36.1143 9L 37.2183 9L 35.4783 5.58L 38.0103 3.192L 36.7863 3.192L 34.7343 5.232C 34.5903 5.4 34.3743 5.616 34.1943 5.82L 34.1703 5.82L 35.1903 0.48L 34.1943 0.48L 32.5863 9L 33.5703 9ZM 39.125 9L 40.757 0.48L 39.761 0.48L 38.141 9L 39.125 9ZM 45.5392 3.192L 44.9752 6.168C 44.7352 7.452 43.8112 8.292 43.0912 8.292C 42.4072 8.292 42.1552 7.884 42.1552 7.284C 42.1552 7.032 42.1912 6.756 42.2632 6.432L 42.8752 3.192L 41.8792 3.192L 41.2552 6.48C 41.1832 6.864 41.1472 7.176 41.1472 7.452C 41.1472 8.772 41.9272 9.132 42.6712 9.132C 43.4392 9.132 44.2072 8.664 44.7232 7.908L 44.7472 7.908L 44.5912 9L 45.4912 9C 45.5512 8.52 45.6352 7.956 45.7552 7.308L 46.5352 3.192L 45.5392 3.192ZM 48.1836 9L 48.7116 6.18C 48.9756 4.74 49.9836 3.888 50.6916 3.888C 51.3756 3.888 51.6036 4.32 51.6036 4.908C 51.6036 5.148 51.5676 5.424 51.5196 5.652L 50.8836 9L 51.8796 9L 52.5276 5.616C 52.5876 5.304 52.6356 4.932 52.6356 4.68C 52.6356 3.456 51.8556 3.06 51.1596 3.06C 50.3076 3.06 49.5276 3.516 49.0116 4.332L 48.9876 4.332L 49.1316 3.192L 48.2436 3.192C 48.1716 3.672 48.0996 4.236 47.9676 4.884L 47.1876 9L 48.1836 9ZM 53.3697 11.1C 53.7417 11.34 54.4017 11.508 55.1097 11.508C 55.7817 11.508 56.5617 11.364 57.1377 10.86C 57.7497 10.344 58.0737 9.492 58.3137 8.268L 59.2017 3.468C 58.7457 3.252 58.0137 3.06 57.3417 3.06C 55.0977 3.06 53.6457 5.016 53.6577 6.984C 53.6577 8.016 54.2577 9 55.4217 9C 56.2257 9 56.9337 8.592 57.4377 7.764L 57.4737 7.764L 57.2817 8.628C 56.9337 10.2 56.1657 10.704 55.1937 10.704C 54.5817 10.704 54.0057 10.536 53.6577 10.32L 53.3697 11.1ZM 57.7377 5.988C 57.5217 7.128 56.6577 8.208 55.8057 8.208C 54.9177 8.208 54.6897 7.452 54.6897 6.816C 54.7017 5.376 55.6977 3.864 57.1497 3.864C 57.5697 3.864 57.9297 3.972 58.1097 4.056L 57.7377 5.988Z"/>
<path id="path9_fill" d="M 4.812 6.444L 5.136 9L 6.156 9L 5.04 0.912L 3.864 0.912L -0.324 9L 0.732 9L 2.016 6.444L 4.812 6.444ZM 2.376 5.652L 3.588 3.3C 3.828 2.808 4.032 2.304 4.248 1.824L 4.272 1.824C 4.308 2.304 4.368 2.892 4.416 3.312L 4.728 5.652L 2.376 5.652ZM 6.98691 8.724C 7.25091 8.928 7.80291 9.12 8.42691 9.12C 9.65091 9.12 10.6469 8.436 10.6469 7.212C 10.6469 6.564 10.2029 6.06 9.55491 5.688C 9.03891 5.4 8.76291 5.136 8.76291 4.716C 8.76291 4.212 9.19491 3.84 9.79491 3.84C 10.2269 3.84 10.5989 3.984 10.8029 4.104L 11.0789 3.348C 10.8629 3.204 10.3949 3.06 9.86691 3.06C 8.64291 3.06 7.76691 3.84 7.76691 4.86C 7.76691 5.448 8.13891 5.964 8.81091 6.336C 9.41091 6.672 9.61491 6.948 9.61491 7.404C 9.61491 7.92 9.18291 8.352 8.51091 8.352C 8.04291 8.352 7.53891 8.16 7.26291 7.992L 6.98691 8.724ZM 11.4635 8.724C 11.7275 8.928 12.2795 9.12 12.9035 9.12C 14.1275 9.12 15.1235 8.436 15.1235 7.212C 15.1235 6.564 14.6795 6.06 14.0315 5.688C 13.5155 5.4 13.2395 5.136 13.2395 4.716C 13.2395 4.212 13.6715 3.84 14.2715 3.84C 14.7035 3.84 15.0755 3.984 15.2795 4.104L 15.5555 3.348C 15.3395 3.204 14.8715 3.06 14.3435 3.06C 13.1195 3.06 12.2435 3.84 12.2435 4.86C 12.2435 5.448 12.6155 5.964 13.2875 6.336C 13.8875 6.672 14.0915 6.948 14.0915 7.404C 14.0915 7.92 13.6595 8.352 12.9875 8.352C 12.5195 8.352 12.0155 8.16 11.7395 7.992L 11.4635 8.724ZM 20.212 7.92C 19.852 8.112 19.336 8.328 18.652 8.328C 18.052 8.328 17.584 8.064 17.356 7.548C 17.224 7.236 17.188 6.696 17.236 6.444C 19.384 6.48 21.1 6.072 21.1 4.548C 21.1 3.72 20.5 3.06 19.396 3.06C 17.524 3.06 16.228 5.04 16.228 6.792C 16.228 8.076 16.9 9.12 18.436 9.12C 19.216 9.12 19.924 8.916 20.356 8.664L 20.212 7.92ZM 20.14 4.584C 20.14 5.484 18.916 5.688 17.356 5.676C 17.596 4.764 18.304 3.84 19.252 3.84C 19.78 3.84 20.14 4.104 20.14 4.584ZM 21.3775 8.724C 21.6415 8.928 22.1935 9.12 22.8175 9.12C 24.0415 9.12 25.0375 8.436 25.0375 7.212C 25.0375 6.564 24.5935 6.06 23.9455 5.688C 23.4295 5.4 23.1535 5.136 23.1535 4.716C 23.1535 4.212 23.5855 3.84 24.1855 3.84C 24.6175 3.84 24.9895 3.984 25.1935 4.104L 25.4695 3.348C 25.2535 3.204 24.7855 3.06 24.2575 3.06C 23.0335 3.06 22.1575 3.84 22.1575 4.86C 22.1575 5.448 22.5295 5.964 23.2015 6.336C 23.8015 6.672 24.0055 6.948 24.0055 7.404C 24.0055 7.92 23.5735 8.352 22.9015 8.352C 22.4335 8.352 21.9295 8.16 21.6535 7.992L 21.3775 8.724ZM 25.8541 8.724C 26.1181 8.928 26.6701 9.12 27.2941 9.12C 28.5181 9.12 29.5141 8.436 29.5141 7.212C 29.5141 6.564 29.0701 6.06 28.4221 5.688C 27.9061 5.4 27.6301 5.136 27.6301 4.716C 27.6301 4.212 28.0621 3.84 28.6621 3.84C 29.0941 3.84 29.4661 3.984 29.6701 4.104L 29.9461 3.348C 29.7301 3.204 29.2621 3.06 28.7341 3.06C 27.5101 3.06 26.6341 3.84 26.6341 4.86C 26.6341 5.448 27.0061 5.964 27.6781 6.336C 28.2781 6.672 28.4821 6.948 28.4821 7.404C 28.4821 7.92 28.0501 8.352 27.3781 8.352C 26.9101 8.352 26.4061 8.16 26.1301 7.992L 25.8541 8.724ZM 31.5307 9L 32.0707 6.084C 32.2987 4.848 33.1987 3.888 33.9307 3.888C 34.6627 3.888 34.7947 4.392 34.7947 4.884C 34.7947 5.112 34.7707 5.34 34.7227 5.592L 34.0747 9L 35.0347 9L 35.5987 6.024C 35.8387 4.728 36.6907 3.888 37.4107 3.888C 38.0587 3.888 38.2867 4.284 38.2867 4.896C 38.2867 5.136 38.2507 5.436 38.2027 5.652L 37.5787 9L 38.5507 9L 39.1987 5.568C 39.2587 5.244 39.2947 4.86 39.2947 4.584C 39.2947 3.492 38.5627 3.06 37.8907 3.06C 37.0147 3.072 36.2707 3.516 35.7547 4.356C 35.7067 3.624 35.2867 3.06 34.3987 3.06C 33.6307 3.06 32.8987 3.48 32.3587 4.284L 32.3227 4.284L 32.4787 3.192L 31.6027 3.192C 31.5427 3.672 31.4587 4.236 31.3387 4.884L 30.5587 9L 31.5307 9ZM 44.2941 7.92C 43.9341 8.112 43.4181 8.328 42.7341 8.328C 42.1341 8.328 41.6661 8.064 41.4381 7.548C 41.3061 7.236 41.2701 6.696 41.3181 6.444C 43.4661 6.48 45.1821 6.072 45.1821 4.548C 45.1821 3.72 44.5821 3.06 43.4781 3.06C 41.6061 3.06 40.3101 5.04 40.3101 6.792C 40.3101 8.076 40.9821 9.12 42.5181 9.12C 43.2981 9.12 44.0061 8.916 44.4381 8.664L 44.2941 7.92ZM 44.2221 4.584C 44.2221 5.484 42.9981 5.688 41.4381 5.676C 41.6781 4.764 42.3861 3.84 43.3341 3.84C 43.8621 3.84 44.2221 4.104 44.2221 4.584ZM 46.6836 9L 47.2116 6.18C 47.4756 4.74 48.4836 3.888 49.1916 3.888C 49.8756 3.888 50.1036 4.32 50.1036 4.908C 50.1036 5.148 50.0676 5.424 50.0196 5.652L 49.3836 9L 50.3796 9L 51.0276 5.616C 51.0876 5.304 51.1356 4.932 51.1356 4.68C 51.1356 3.456 50.3556 3.06 49.6596 3.06C 48.8076 3.06 48.0276 3.516 47.5116 4.332L 47.4876 4.332L 47.6316 3.192L 46.7436 3.192C 46.6716 3.672 46.5996 4.236 46.4676 4.884L 45.6876 9L 46.6836 9ZM 53.6697 1.884L 53.4177 3.192L 52.5897 3.192L 52.4337 3.972L 53.2737 3.972L 52.6977 6.912C 52.6137 7.332 52.5777 7.668 52.5777 8.004C 52.5777 8.592 52.9137 9.132 53.8017 9.132C 54.0897 9.132 54.3897 9.096 54.5697 9.024L 54.6177 8.244C 54.4857 8.268 54.3177 8.28 54.1497 8.28C 53.7657 8.28 53.5977 8.076 53.5977 7.728C 53.5977 7.416 53.6457 7.116 53.7057 6.792L 54.2457 3.972L 55.6377 3.972L 55.7937 3.192L 54.4017 3.192L 54.7017 1.632L 53.6697 1.884ZM 57.8591 9.48L 62.6951 0.78L 61.8791 0.78L 57.0551 9.48L 57.8591 9.48ZM 68.9929 4.356L 66.0529 4.356L 66.5449 1.764L 69.6649 1.764L 69.8329 0.912L 65.7049 0.912L 64.1689 9L 68.4769 9L 68.6449 8.148L 65.3329 8.148L 65.8849 5.196L 68.8249 5.196L 68.9929 4.356ZM 69.9518 3.192L 70.9598 9L 71.9438 9L 75.1718 3.192L 74.0798 3.192L 72.3038 6.576C 71.9678 7.236 71.8118 7.62 71.6918 7.932L 71.6558 7.932C 71.6318 7.608 71.5598 7.164 71.4758 6.504L 70.9718 3.192L 69.9518 3.192ZM 79.7136 9C 79.6896 8.352 79.7736 7.32 79.9656 6.312L 80.5536 3.288C 80.1576 3.156 79.5456 3.06 78.9936 3.06C 76.4616 3.06 74.9736 5.196 74.9736 7.212C 74.9736 8.316 75.6216 9.132 76.6416 9.132C 77.4696 9.132 78.2616 8.7 78.8976 7.5L 78.9216 7.5C 78.8496 8.1 78.7896 8.652 78.7896 9L 79.7136 9ZM 79.1016 5.688C 78.8136 7.236 77.8296 8.316 77.0016 8.316C 76.2336 8.316 76.0056 7.68 76.0056 7.032C 76.0176 5.424 77.2416 3.852 78.7416 3.852C 79.0776 3.852 79.2936 3.9 79.4376 3.936L 79.1016 5.688ZM 82.2031 9L 83.8351 0.48L 82.8391 0.48L 81.2191 9L 82.2031 9ZM 88.6173 3.192L 88.0533 6.168C 87.8133 7.452 86.8893 8.292 86.1693 8.292C 85.4853 8.292 85.2333 7.884 85.2333 7.284C 85.2333 7.032 85.2693 6.756 85.3413 6.432L 85.9533 3.192L 84.9573 3.192L 84.3333 6.48C 84.2613 6.864 84.2253 7.176 84.2253 7.452C 84.2253 8.772 85.0053 9.132 85.7493 9.132C 86.5173 9.132 87.2853 8.664 87.8013 7.908L 87.8253 7.908L 87.6693 9L 88.5693 9C 88.6293 8.52 88.7133 7.956 88.8333 7.308L 89.6133 3.192L 88.6173 3.192ZM 94.9831 9C 94.9591 8.352 95.0431 7.32 95.2351 6.312L 95.8231 3.288C 95.4271 3.156 94.8151 3.06 94.2631 3.06C 91.7311 3.06 90.2431 5.196 90.2431 7.212C 90.2431 8.316 90.8911 9.132 91.9111 9.132C 92.7391 9.132 93.5311 8.7 94.1671 7.5L 94.1911 7.5C 94.1191 8.1 94.0591 8.652 94.0591 9L 94.9831 9ZM 94.3711 5.688C 94.0831 7.236 93.0991 8.316 92.2711 8.316C 91.5031 8.316 91.2751 7.68 91.2751 7.032C 91.2871 5.424 92.5111 3.852 94.0111 3.852C 94.3471 3.852 94.5631 3.9 94.7071 3.936L 94.3711 5.688ZM 98.0486 1.884L 97.7966 3.192L 96.9686 3.192L 96.8126 3.972L 97.6526 3.972L 97.0766 6.912C 96.9926 7.332 96.9566 7.668 96.9566 8.004C 96.9566 8.592 97.2926 9.132 98.1806 9.132C 98.4686 9.132 98.7686 9.096 98.9486 9.024L 98.9966 8.244C 98.8646 8.268 98.6966 8.28 98.5286 8.28C 98.1446 8.28 97.9766 8.076 97.9766 7.728C 97.9766 7.416 98.0246 7.116 98.0846 6.792L 98.6246 3.972L 100.017 3.972L 100.173 3.192L 98.7806 3.192L 99.0806 1.632L 98.0486 1.884ZM 101.234 9L 102.35 3.192L 101.354 3.192L 100.238 9L 101.234 9ZM 102.11 2.196C 102.494 2.196 102.77 1.92 102.782 1.524C 102.782 1.164 102.554 0.9 102.194 0.9C 101.834 0.9 101.534 1.188 101.534 1.572C 101.534 1.932 101.762 2.196 102.11 2.196ZM 106.281 3.06C 104.397 3.06 103.065 4.836 103.065 6.744C 103.065 8.052 103.881 9.132 105.333 9.132C 107.277 9.132 108.549 7.272 108.549 5.484C 108.549 4.248 107.853 3.06 106.281 3.06ZM 106.173 3.852C 107.217 3.852 107.529 4.8 107.529 5.472C 107.529 6.828 106.641 8.34 105.465 8.34C 104.613 8.34 104.097 7.656 104.097 6.708C 104.085 5.376 104.925 3.852 106.173 3.852ZM 110.246 9L 110.774 6.18C 111.038 4.74 112.046 3.888 112.754 3.888C 113.438 3.888 113.666 4.32 113.666 4.908C 113.666 5.148 113.63 5.424 113.582 5.652L 112.946 9L 113.942 9L 114.59 5.616C 114.65 5.304 114.698 4.932 114.698 4.68C 114.698 3.456 113.918 3.06 113.222 3.06C 112.37 3.06 111.59 3.516 111.074 4.332L 111.05 4.332L 111.194 3.192L 110.306 3.192C 110.234 3.672 110.162 4.236 110.03 4.884L 109.25 9L 110.246 9ZM 115.576 10.404C 115.996 9.84 116.74 8.508 117.172 7.488L 115.984 7.608C 115.72 8.484 115.18 9.768 114.808 10.476L 115.576 10.404ZM 0.372 23L 1.368 23L 2.064 19.34L 4.92 19.34L 5.088 18.488L 2.22 18.488L 2.748 15.764L 5.856 15.764L 6.012 14.912L 1.908 14.912L 0.372 23ZM 8.87428 17.06C 6.99028 17.06 5.65828 18.836 5.65828 20.744C 5.65828 22.052 6.47428 23.132 7.92628 23.132C 9.87028 23.132 11.1423 21.272 11.1423 19.484C 11.1423 18.248 10.4463 17.06 8.87428 17.06ZM 8.76628 17.852C 9.81028 17.852 10.1223 18.8 10.1223 19.472C 10.1223 20.828 9.23428 22.34 8.05828 22.34C 7.20628 22.34 6.69028 21.656 6.69028 20.708C 6.67828 19.376 7.51828 17.852 8.76628 17.852ZM 12.8398 23L 13.3198 20.444C 13.5718 19.088 14.3398 18.044 15.2038 18.044C 15.3118 18.044 15.4078 18.056 15.4678 18.068L 15.6598 17.084C 15.5878 17.072 15.4678 17.06 15.3838 17.06C 14.6038 17.06 13.9798 17.66 13.6078 18.452L 13.5718 18.452C 13.6318 18.008 13.6798 17.6 13.7278 17.192L 12.8518 17.192C 12.7918 17.732 12.6958 18.5 12.5518 19.256L 11.8438 23L 12.8398 23ZM 15.4361 22.724C 15.7001 22.928 16.2521 23.12 16.8761 23.12C 18.1001 23.12 19.0961 22.436 19.0961 21.212C 19.0961 20.564 18.6521 20.06 18.0041 19.688C 17.4881 19.4 17.2121 19.136 17.2121 18.716C 17.2121 18.212 17.6441 17.84 18.2441 17.84C 18.6761 17.84 19.0481 17.984 19.2521 18.104L 19.5281 17.348C 19.3121 17.204 18.8441 17.06 18.3161 17.06C 17.0921 17.06 16.2161 17.84 16.2161 18.86C 16.2161 19.448 16.5881 19.964 17.2601 20.336C 17.8601 20.672 18.0641 20.948 18.0641 21.404C 18.0641 21.92 17.6321 22.352 16.9601 22.352C 16.4921 22.352 15.9881 22.16 15.7121 21.992L 15.4361 22.724ZM 24.0407 21.98C 23.7407 22.124 23.2847 22.304 22.6967 22.304C 21.7487 22.304 21.2567 21.692 21.2567 20.756C 21.2567 19.388 22.2047 17.9 23.7167 17.9C 24.1487 17.9 24.4727 18.008 24.7007 18.116L 24.9887 17.324C 24.8087 17.228 24.3167 17.072 23.7767 17.072C 21.6887 17.072 20.2247 18.896 20.2247 20.876C 20.2247 22.112 20.9567 23.12 22.4567 23.12C 23.2367 23.12 23.8367 22.916 24.1367 22.772L 24.0407 21.98ZM 26.2109 23L 26.7509 20.096C 26.9909 18.788 27.9629 17.888 28.7309 17.888C 29.3789 17.888 29.6309 18.308 29.6309 18.848C 29.6309 19.172 29.5949 19.436 29.5589 19.652L 28.9109 23L 29.9069 23L 30.5549 19.604C 30.6149 19.304 30.6509 18.932 30.6509 18.62C 30.6509 17.468 29.8709 17.06 29.2109 17.06C 28.3349 17.06 27.6269 17.516 27.1349 18.224L 27.1109 18.224L 27.8309 14.48L 26.8349 14.48L 25.2149 23L 26.2109 23ZM 36.2345 17.192L 35.6705 20.168C 35.4305 21.452 34.5065 22.292 33.7865 22.292C 33.1025 22.292 32.8505 21.884 32.8505 21.284C 32.8505 21.032 32.8865 20.756 32.9585 20.432L 33.5705 17.192L 32.5745 17.192L 31.9505 20.48C 31.8785 20.864 31.8425 21.176 31.8425 21.452C 31.8425 22.772 32.6225 23.132 33.3665 23.132C 34.1345 23.132 34.9025 22.664 35.4185 21.908L 35.4425 21.908L 35.2865 23L 36.1865 23C 36.2465 22.52 36.3305 21.956 36.4505 21.308L 37.2305 17.192L 36.2345 17.192ZM 38.8789 23L 39.4069 20.18C 39.6709 18.74 40.6789 17.888 41.3869 17.888C 42.0709 17.888 42.2989 18.32 42.2989 18.908C 42.2989 19.148 42.2629 19.424 42.2149 19.652L 41.5789 23L 42.5749 23L 43.2229 19.616C 43.2829 19.304 43.3309 18.932 43.3309 18.68C 43.3309 17.456 42.5509 17.06 41.8549 17.06C 41.0029 17.06 40.2229 17.516 39.7069 18.332L 39.6829 18.332L 39.8269 17.192L 38.9389 17.192C 38.8669 17.672 38.7949 18.236 38.6629 18.884L 37.8829 23L 38.8789 23ZM 44.065 25.1C 44.437 25.34 45.097 25.508 45.805 25.508C 46.477 25.508 47.257 25.364 47.833 24.86C 48.445 24.344 48.769 23.492 49.009 22.268L 49.897 17.468C 49.441 17.252 48.709 17.06 48.037 17.06C 45.793 17.06 44.341 19.016 44.353 20.984C 44.353 22.016 44.953 23 46.117 23C 46.921 23 47.629 22.592 48.133 21.764L 48.169 21.764L 47.977 22.628C 47.629 24.2 46.861 24.704 45.889 24.704C 45.277 24.704 44.701 24.536 44.353 24.32L 44.065 25.1ZM 48.433 19.988C 48.217 21.128 47.353 22.208 46.501 22.208C 45.613 22.208 45.385 21.452 45.385 20.816C 45.397 19.376 46.393 17.864 47.845 17.864C 48.265 17.864 48.625 17.972 48.805 18.056L 48.433 19.988ZM 57.4337 17.192L 56.8697 20.168C 56.6297 21.452 55.7057 22.292 54.9857 22.292C 54.3017 22.292 54.0497 21.884 54.0497 21.284C 54.0497 21.032 54.0857 20.756 54.1577 20.432L 54.7697 17.192L 53.7737 17.192L 53.1497 20.48C 53.0777 20.864 53.0417 21.176 53.0417 21.452C 53.0417 22.772 53.8217 23.132 54.5657 23.132C 55.3337 23.132 56.1017 22.664 56.6177 21.908L 56.6417 21.908L 56.4857 23L 57.3857 23C 57.4457 22.52 57.5297 21.956 57.6497 21.308L 58.4297 17.192L 57.4337 17.192ZM 60.0781 23L 60.6061 20.18C 60.8701 18.74 61.8781 17.888 62.5861 17.888C 63.2701 17.888 63.4981 18.32 63.4981 18.908C 63.4981 19.148 63.4621 19.424 63.4141 19.652L 62.7781 23L 63.7741 23L 64.4221 19.616C 64.4821 19.304 64.5301 18.932 64.5301 18.68C 64.5301 17.456 63.7501 17.06 63.0541 17.06C 62.2021 17.06 61.4221 17.516 60.9061 18.332L 60.8821 18.332L 61.0261 17.192L 60.1381 17.192C 60.0661 17.672 59.9941 18.236 59.8621 18.884L 59.0821 23L 60.0781 23ZM 70.6762 14.48L 70.1603 17.264C 69.9083 17.144 69.5002 17.06 69.1282 17.06C 67.0762 17.06 65.5403 18.956 65.5403 21.02C 65.5403 22.208 66.1522 23.132 67.2802 23.132C 68.1082 23.132 68.8402 22.676 69.3683 21.848L 69.3923 21.848L 69.2362 23L 70.1483 23C 70.1843 22.436 70.2802 21.764 70.4002 21.164L 71.6723 14.48L 70.6762 14.48ZM 69.6082 20.132C 69.3563 21.44 68.4322 22.316 67.6642 22.316C 66.8122 22.316 66.5722 21.584 66.5722 20.888C 66.5722 19.34 67.6523 17.864 69.0443 17.864C 69.4643 17.864 69.8003 17.972 70.0042 18.104L 69.6082 20.132ZM 76.7366 23L 80.9966 14.912L 79.8926 14.912L 77.3246 19.964C 76.8806 20.816 76.6406 21.416 76.4366 21.92L 76.4006 21.92C 76.3886 21.392 76.3406 20.924 76.2446 20.096L 75.6566 14.912L 74.6366 14.912L 75.6446 23L 76.7366 23ZM 84.1378 21.92C 83.7778 22.112 83.2618 22.328 82.5778 22.328C 81.9778 22.328 81.5098 22.064 81.2818 21.548C 81.1498 21.236 81.1138 20.696 81.1618 20.444C 83.3098 20.48 85.0258 20.072 85.0258 18.548C 85.0258 17.72 84.4258 17.06 83.3218 17.06C 81.4498 17.06 80.1538 19.04 80.1538 20.792C 80.1538 22.076 80.8258 23.12 82.3618 23.12C 83.1418 23.12 83.8498 22.916 84.2818 22.664L 84.1378 21.92ZM 84.0658 18.584C 84.0658 19.484 82.8418 19.688 81.2818 19.676C 81.5218 18.764 82.2298 17.84 83.1778 17.84C 83.7058 17.84 84.0658 18.104 84.0658 18.584ZM 86.5273 23L 87.0073 20.444C 87.2593 19.088 88.0273 18.044 88.8913 18.044C 88.9993 18.044 89.0953 18.056 89.1553 18.068L 89.3473 17.084C 89.2753 17.072 89.1553 17.06 89.0713 17.06C 88.2913 17.06 87.6673 17.66 87.2953 18.452L 87.2593 18.452C 87.3193 18.008 87.3673 17.6 87.4153 17.192L 86.5393 17.192C 86.4793 17.732 86.3833 18.5 86.2393 19.256L 85.5313 23L 86.5273 23ZM 89.982 17.192L 90.522 23L 91.446 23L 93.114 19.82C 93.378 19.304 93.546 18.86 93.786 18.308L 93.81 18.308C 93.81 18.812 93.834 19.304 93.894 19.844L 94.278 23L 95.202 23L 98.07 17.192L 97.062 17.192L 95.49 20.552C 95.262 21.104 95.094 21.548 94.938 22.016L 94.914 22.016C 94.926 21.632 94.878 21.14 94.818 20.504L 94.458 17.192L 93.594 17.192L 91.866 20.564C 91.578 21.14 91.362 21.644 91.23 22.016L 91.194 22.016C 91.206 21.548 91.218 21.176 91.17 20.456L 90.966 17.192L 89.982 17.192ZM 102.021 21.92C 101.661 22.112 101.145 22.328 100.461 22.328C 99.8606 22.328 99.3926 22.064 99.1646 21.548C 99.0326 21.236 98.9966 20.696 99.0446 20.444C 101.193 20.48 102.909 20.072 102.909 18.548C 102.909 17.72 102.309 17.06 101.205 17.06C 99.3326 17.06 98.0366 19.04 98.0366 20.792C 98.0366 22.076 98.7086 23.12 100.245 23.12C 101.025 23.12 101.733 22.916 102.165 22.664L 102.021 21.92ZM 101.949 18.584C 101.949 19.484 100.725 19.688 99.1646 19.676C 99.4046 18.764 100.113 17.84 101.061 17.84C 101.589 17.84 101.949 18.104 101.949 18.584ZM 104.41 23L 104.89 20.444C 105.142 19.088 105.91 18.044 106.774 18.044C 106.882 18.044 106.978 18.056 107.038 18.068L 107.23 17.084C 107.158 17.072 107.038 17.06 106.954 17.06C 106.174 17.06 105.55 17.66 105.178 18.452L 105.142 18.452C 105.202 18.008 105.25 17.6 105.298 17.192L 104.422 17.192C 104.362 17.732 104.266 18.5 104.122 19.256L 103.414 23L 104.41 23ZM 109.111 15.884L 108.859 17.192L 108.031 17.192L 107.875 17.972L 108.715 17.972L 108.139 20.912C 108.055 21.332 108.019 21.668 108.019 22.004C 108.019 22.592 108.355 23.132 109.243 23.132C 109.531 23.132 109.831 23.096 110.011 23.024L 110.059 22.244C 109.927 22.268 109.759 22.28 109.591 22.28C 109.207 22.28 109.039 22.076 109.039 21.728C 109.039 21.416 109.087 21.116 109.147 20.792L 109.687 17.972L 111.079 17.972L 111.235 17.192L 109.843 17.192L 110.143 15.632L 109.111 15.884ZM 115.969 17.192L 115.405 20.168C 115.165 21.452 114.241 22.292 113.521 22.292C 112.837 22.292 112.585 21.884 112.585 21.284C 112.585 21.032 112.621 20.756 112.693 20.432L 113.305 17.192L 112.309 17.192L 111.685 20.48C 111.613 20.864 111.577 21.176 111.577 21.452C 111.577 22.772 112.357 23.132 113.101 23.132C 113.869 23.132 114.637 22.664 115.153 21.908L 115.177 21.908L 115.021 23L 115.921 23C 115.981 22.52 116.065 21.956 116.185 21.308L 116.965 17.192L 115.969 17.192ZM 118.613 23L 119.141 20.18C 119.405 18.74 120.413 17.888 121.121 17.888C 121.805 17.888 122.033 18.32 122.033 18.908C 122.033 19.148 121.997 19.424 121.949 19.652L 121.313 23L 122.309 23L 122.957 19.616C 123.017 19.304 123.065 18.932 123.065 18.68C 123.065 17.456 122.285 17.06 121.589 17.06C 120.737 17.06 119.957 17.516 119.441 18.332L 119.417 18.332L 119.561 17.192L 118.673 17.192C 118.601 17.672 118.529 18.236 118.397 18.884L 117.617 23L 118.613 23ZM 123.799 25.1C 124.171 25.34 124.831 25.508 125.539 25.508C 126.211 25.508 126.991 25.364 127.567 24.86C 128.179 24.344 128.503 23.492 128.743 22.268L 129.631 17.468C 129.175 17.252 128.443 17.06 127.771 17.06C 125.527 17.06 124.075 19.016 124.087 20.984C 124.087 22.016 124.687 23 125.851 23C 126.655 23 127.363 22.592 127.867 21.764L 127.903 21.764L 127.711 22.628C 127.363 24.2 126.595 24.704 125.623 24.704C 125.011 24.704 124.435 24.536 124.087 24.32L 123.799 25.1ZM 128.167 19.988C 127.951 21.128 127.087 22.208 126.235 22.208C 125.347 22.208 125.119 21.452 125.119 20.816C 125.131 19.376 126.127 17.864 127.579 17.864C 127.999 17.864 128.359 17.972 128.539 18.056L 128.167 19.988Z"/>
<path id="path10_fill" d="M 38.4415 13.388C 39.0895 13.82 40.3675 14.18 41.5375 14.18C 44.3995 14.18 45.7675 12.542 45.7675 10.688C 45.7675 8.906 44.7415 7.934 42.6895 7.124C 41.0155 6.476 40.2775 5.918 40.2775 4.802C 40.2775 3.974 40.9075 2.984 42.5635 2.984C 43.6615 2.984 44.4715 3.326 44.8495 3.56L 45.2815 2.264C 44.7595 1.976 43.8415 1.688 42.6175 1.688C 40.2595 1.688 38.6935 3.092 38.6935 4.982C 38.6935 6.674 39.9175 7.718 41.8975 8.402C 43.5355 9.014 44.1835 9.68 44.1835 10.814C 44.1835 12.038 43.2475 12.866 41.6455 12.866C 40.5655 12.866 39.5575 12.524 38.8555 12.092L 38.4415 13.388ZM 54.984 9.932C 55.02 9.752 55.038 9.518 55.038 9.194C 55.038 7.592 54.3 5.09 51.456 5.09C 48.918 5.09 47.352 7.16 47.352 9.788C 47.352 12.398 48.972 14.18 51.636 14.18C 53.022 14.18 53.994 13.874 54.552 13.622L 54.264 12.488C 53.688 12.74 52.986 12.938 51.852 12.938C 50.268 12.938 48.918 12.056 48.882 9.932L 54.984 9.932ZM 48.9 8.798C 49.026 7.7 49.71 6.224 51.33 6.224C 53.094 6.224 53.526 7.79 53.508 8.798L 48.9 8.798ZM 56.9995 14L 58.5475 14L 58.5475 8.744C 58.5475 8.474 58.5835 8.204 58.6735 7.97C 58.9255 7.178 59.6635 6.386 60.6355 6.386C 61.8415 6.386 62.4535 7.376 62.4535 8.762L 62.4535 14L 64.0015 14L 64.0015 8.6C 64.0015 8.33 64.0555 8.042 64.1275 7.808C 64.4155 7.052 65.0995 6.386 66.0175 6.386C 67.2775 6.386 67.9075 7.376 67.9075 9.068L 67.9075 14L 69.4555 14L 69.4555 8.87C 69.4555 5.846 67.7455 5.09 66.5755 5.09C 65.7475 5.09 65.1895 5.306 64.6675 5.702C 64.3075 5.972 63.9475 6.332 63.6775 6.836L 63.6415 6.836C 63.2635 5.81 62.3635 5.09 61.1935 5.09C 59.7355 5.09 58.9255 5.864 58.4395 6.692L 58.3855 6.692L 58.3135 5.288L 56.9275 5.288C 56.9635 6.008 56.9995 6.728 56.9995 7.646L 56.9995 14ZM 73.5953 14L 73.5953 5.288L 72.0113 5.288L 72.0113 14L 73.5953 14ZM 72.7853 3.812C 73.3973 3.812 73.7753 3.362 73.7753 2.84C 73.7753 2.282 73.3793 1.85 72.8033 1.85C 72.2093 1.85 71.8133 2.282 71.8133 2.84C 71.8133 3.362 72.1913 3.812 72.7673 3.812L 72.7853 3.812ZM 76.23 14L 77.814 14L 77.814 8.744C 77.814 8.492 77.85 8.204 77.922 8.006C 78.21 7.124 79.02 6.386 80.046 6.386C 81.54 6.386 82.062 7.574 82.062 8.978L 82.062 14L 83.646 14L 83.646 8.798C 83.646 5.81 81.774 5.09 80.568 5.09C 79.128 5.09 78.12 5.9 77.688 6.71L 77.652 6.71L 77.562 5.288L 76.158 5.288C 76.212 6.008 76.23 6.728 76.23 7.646L 76.23 14ZM 92.3524 8.654C 92.3524 6.908 91.7044 5.09 89.0224 5.09C 87.9244 5.09 86.8624 5.396 86.1424 5.846L 86.5024 6.908C 87.1144 6.494 87.9604 6.26 88.7884 6.26C 90.5704 6.242 90.7684 7.556 90.7684 8.276L 90.7684 8.456C 87.4024 8.438 85.5304 9.59 85.5304 11.696C 85.5304 12.956 86.4304 14.198 88.1944 14.198C 89.4364 14.198 90.3904 13.586 90.8584 12.902L 90.9124 12.902L 91.0564 14L 92.4784 14C 92.3884 13.406 92.3524 12.668 92.3524 11.912L 92.3524 8.654ZM 90.8044 11.066C 90.8044 11.228 90.7864 11.408 90.7324 11.57C 90.4804 12.308 89.7424 13.028 88.5904 13.028C 87.7984 13.028 87.1144 12.56 87.1144 11.516C 87.1144 9.824 89.0764 9.518 90.8044 9.554L 90.8044 11.066ZM 94.898 14L 96.482 14L 96.482 9.338C 96.482 9.086 96.5 8.834 96.536 8.6C 96.752 7.43 97.544 6.584 98.66 6.584C 98.876 6.584 99.038 6.602 99.2 6.62L 99.2 5.126C 99.056 5.108 98.93 5.09 98.768 5.09C 97.706 5.09 96.734 5.828 96.338 6.998L 96.284 6.998L 96.212 5.288L 94.826 5.288C 94.88 6.098 94.898 6.98 94.898 8.006L 94.898 14ZM 107.613 9.932C 107.649 9.752 107.667 9.518 107.667 9.194C 107.667 7.592 106.929 5.09 104.085 5.09C 101.547 5.09 99.9809 7.16 99.9809 9.788C 99.9809 12.398 101.601 14.18 104.265 14.18C 105.651 14.18 106.623 13.874 107.181 13.622L 106.893 12.488C 106.317 12.74 105.615 12.938 104.481 12.938C 102.897 12.938 101.547 12.056 101.511 9.932L 107.613 9.932ZM 101.529 8.798C 101.655 7.7 102.339 6.224 103.959 6.224C 105.723 6.224 106.155 7.79 106.137 8.798L 101.529 8.798ZM 4.40425 35L 5.93425 35L 5.93425 23.3L 4.58425 23.3L 2.02825 24.668L 2.33425 25.874L 4.36825 24.776L 4.40425 24.776L 4.40425 35ZM 17.6648 35L 17.6648 33.686L 12.4268 33.686L 12.4268 33.65L 13.3448 32.786C 15.8108 30.41 17.3768 28.664 17.3768 26.504C 17.3768 24.83 16.3148 23.102 13.8128 23.102C 12.4628 23.102 11.2928 23.624 10.5008 24.29L 11.0048 25.406C 11.5448 24.956 12.4268 24.416 13.4888 24.416C 15.2348 24.416 15.7928 25.514 15.7928 26.702C 15.7928 28.466 14.4248 29.978 11.4368 32.822L 10.1948 34.028L 10.1948 35L 17.6648 35ZM 31.9497 33.344C 31.3197 33.65 30.3477 33.848 29.3757 33.848C 26.4417 33.848 24.7317 31.958 24.7317 28.988C 24.7317 25.82 26.6217 24.002 29.4657 24.002C 30.4737 24.002 31.3197 24.218 31.8957 24.506L 32.2917 23.21C 31.8777 23.012 30.9057 22.688 29.4117 22.688C 25.6497 22.688 23.0757 25.244 23.0757 29.042C 23.0757 33.02 25.6317 35.18 29.0517 35.18C 30.5277 35.18 31.6977 34.892 32.2557 34.604L 31.9497 33.344ZM 34.2371 35L 35.8031 35L 35.8031 30.122C 36.1631 30.212 36.5951 30.23 37.0631 30.23C 38.5931 30.23 39.9431 29.78 40.7711 28.898C 41.4011 28.268 41.7251 27.404 41.7251 26.306C 41.7251 25.244 41.3111 24.362 40.6451 23.786C 39.9251 23.138 38.7911 22.778 37.2431 22.778C 35.9831 22.778 34.9931 22.886 34.2371 23.03L 34.2371 35ZM 35.8031 24.146C 36.0731 24.074 36.5951 24.02 37.2791 24.02C 39.0071 24.02 40.1411 24.794 40.1411 26.396C 40.1411 28.052 38.9891 28.97 37.0991 28.97C 36.5771 28.97 36.1451 28.934 35.8031 28.844L 35.8031 24.146ZM 47.5777 38.564L 49.1617 38.564L 49.1617 33.83L 49.1977 33.83C 49.7197 34.694 50.7097 35.198 51.8797 35.198C 53.9137 35.198 55.8397 33.65 55.8397 30.518C 55.8397 27.872 54.2557 26.09 52.1317 26.09C 50.7277 26.09 49.6837 26.702 49.0537 27.782L 49.0177 27.782L 48.9277 26.288L 47.5057 26.288C 47.5597 27.116 47.5777 28.016 47.5777 29.132L 47.5777 38.564ZM 49.1617 29.942C 49.1617 29.744 49.2157 29.51 49.2517 29.312C 49.5577 28.106 50.5837 27.35 51.6637 27.35C 53.3377 27.35 54.2377 28.844 54.2377 30.59C 54.2377 32.588 53.2657 33.956 51.5917 33.956C 50.4757 33.956 49.5037 33.2 49.2337 32.102C 49.1797 31.904 49.1617 31.67 49.1617 31.454L 49.1617 29.942ZM 57.8257 35L 59.4097 35L 59.4097 30.338C 59.4097 30.086 59.4277 29.834 59.4637 29.6C 59.6797 28.43 60.4717 27.584 61.5877 27.584C 61.8037 27.584 61.9657 27.602 62.1277 27.62L 62.1277 26.126C 61.9837 26.108 61.8577 26.09 61.6957 26.09C 60.6337 26.09 59.6617 26.828 59.2657 27.998L 59.2117 27.998L 59.1397 26.288L 57.7537 26.288C 57.8077 27.098 57.8257 27.98 57.8257 29.006L 57.8257 35ZM 67.1026 35.198C 69.1726 35.198 71.4226 33.794 71.4226 30.554C 71.4226 27.908 69.7306 26.09 67.2286 26.09C 64.8346 26.09 62.9086 27.8 62.9086 30.716C 62.9086 33.47 64.7446 35.198 67.0846 35.198L 67.1026 35.198ZM 67.1386 34.01C 65.6086 34.01 64.5286 32.57 64.5286 30.662C 64.5286 29.006 65.3386 27.278 67.1926 27.278C 69.0646 27.278 69.8026 29.132 69.8026 30.608C 69.8026 32.588 68.6686 34.01 67.1566 34.01L 67.1386 34.01ZM 76.674 34.388C 77.322 34.82 78.6 35.18 79.77 35.18C 82.632 35.18 84 33.542 84 31.688C 84 29.906 82.974 28.934 80.922 28.124C 79.248 27.476 78.51 26.918 78.51 25.802C 78.51 24.974 79.14 23.984 80.796 23.984C 81.894 23.984 82.704 24.326 83.082 24.56L 83.514 23.264C 82.992 22.976 82.074 22.688 80.85 22.688C 78.492 22.688 76.926 24.092 76.926 25.982C 76.926 27.674 78.15 28.718 80.13 29.402C 81.768 30.014 82.416 30.68 82.416 31.814C 82.416 33.038 81.48 33.866 79.878 33.866C 78.798 33.866 77.79 33.524 77.088 33.092L 76.674 34.388ZM 93.2164 30.932C 93.2524 30.752 93.2704 30.518 93.2704 30.194C 93.2704 28.592 92.5324 26.09 89.6884 26.09C 87.1504 26.09 85.5844 28.16 85.5844 30.788C 85.5844 33.398 87.2044 35.18 89.8684 35.18C 91.2544 35.18 92.2264 34.874 92.7844 34.622L 92.4964 33.488C 91.9204 33.74 91.2184 33.938 90.0844 33.938C 88.5004 33.938 87.1504 33.056 87.1144 30.932L 93.2164 30.932ZM 87.1324 29.798C 87.2584 28.7 87.9424 27.224 89.5624 27.224C 91.3264 27.224 91.7584 28.79 91.7404 29.798L 87.1324 29.798ZM 95.232 35L 96.78 35L 96.78 29.744C 96.78 29.474 96.816 29.204 96.906 28.97C 97.158 28.178 97.896 27.386 98.868 27.386C 100.074 27.386 100.686 28.376 100.686 29.762L 100.686 35L 102.234 35L 102.234 29.6C 102.234 29.33 102.288 29.042 102.36 28.808C 102.648 28.052 103.332 27.386 104.25 27.386C 105.51 27.386 106.14 28.376 106.14 30.068L 106.14 35L 107.688 35L 107.688 29.87C 107.688 26.846 105.978 26.09 104.808 26.09C 103.98 26.09 103.422 26.306 102.9 26.702C 102.54 26.972 102.18 27.332 101.91 27.836L 101.874 27.836C 101.496 26.81 100.596 26.09 99.426 26.09C 97.968 26.09 97.158 26.864 96.672 27.692L 96.618 27.692L 96.546 26.288L 95.16 26.288C 95.196 27.008 95.232 27.728 95.232 28.646L 95.232 35ZM 117.246 30.932C 117.282 30.752 117.3 30.518 117.3 30.194C 117.3 28.592 116.562 26.09 113.718 26.09C 111.18 26.09 109.614 28.16 109.614 30.788C 109.614 33.398 111.234 35.18 113.898 35.18C 115.284 35.18 116.256 34.874 116.814 34.622L 116.526 33.488C 115.95 33.74 115.248 33.938 114.114 33.938C 112.53 33.938 111.18 33.056 111.144 30.932L 117.246 30.932ZM 111.162 29.798C 111.288 28.7 111.972 27.224 113.592 27.224C 115.356 27.224 115.788 28.79 115.77 29.798L 111.162 29.798ZM 118.667 34.568C 119.279 34.928 120.161 35.18 121.115 35.18C 123.149 35.18 124.355 34.1 124.355 32.552C 124.355 31.256 123.563 30.5 122.069 29.942C 120.935 29.492 120.431 29.168 120.431 28.448C 120.431 27.8 120.935 27.26 121.871 27.26C 122.681 27.26 123.311 27.566 123.653 27.764L 124.031 26.63C 123.563 26.324 122.789 26.09 121.907 26.09C 120.053 26.09 118.901 27.242 118.901 28.646C 118.901 29.672 119.639 30.536 121.223 31.112C 122.375 31.544 122.825 31.94 122.825 32.696C 122.825 33.434 122.285 33.992 121.151 33.992C 120.359 33.992 119.531 33.668 119.045 33.38L 118.667 34.568ZM 126.758 24.686L 126.758 26.288L 125.408 26.288L 125.408 27.494L 126.758 27.494L 126.758 32.228C 126.758 33.254 126.938 34.028 127.37 34.514C 127.748 34.928 128.342 35.18 129.08 35.18C 129.692 35.18 130.178 35.072 130.484 34.964L 130.412 33.758C 130.178 33.83 129.926 33.866 129.494 33.866C 128.612 33.866 128.306 33.254 128.306 32.174L 128.306 27.494L 130.574 27.494L 130.574 26.288L 128.306 26.288L 128.306 24.2L 126.758 24.686ZM 139.254 30.932C 139.29 30.752 139.308 30.518 139.308 30.194C 139.308 28.592 138.57 26.09 135.726 26.09C 133.188 26.09 131.621 28.16 131.621 30.788C 131.621 33.398 133.242 35.18 135.905 35.18C 137.291 35.18 138.264 34.874 138.822 34.622L 138.534 33.488C 137.958 33.74 137.255 33.938 136.121 33.938C 134.537 33.938 133.188 33.056 133.151 30.932L 139.254 30.932ZM 133.169 29.798C 133.296 28.7 133.98 27.224 135.6 27.224C 137.364 27.224 137.796 28.79 137.778 29.798L 133.169 29.798ZM 141.269 35L 142.853 35L 142.853 30.338C 142.853 30.086 142.871 29.834 142.907 29.6C 143.123 28.43 143.915 27.584 145.031 27.584C 145.247 27.584 145.409 27.602 145.571 27.62L 145.571 26.126C 145.427 26.108 145.301 26.09 145.139 26.09C 144.077 26.09 143.105 26.828 142.709 27.998L 142.655 27.998L 142.583 26.288L 141.197 26.288C 141.251 27.098 141.269 27.98 141.269 29.006L 141.269 35Z"/>
<path id="path11_fill" d="M 43.5711 14L 45.1371 14L 45.1371 9.122C 45.4971 9.212 45.9291 9.23 46.3971 9.23C 47.9271 9.23 49.2771 8.78 50.1051 7.898C 50.7351 7.268 51.0591 6.404 51.0591 5.306C 51.0591 4.244 50.6451 3.362 49.9791 2.786C 49.2591 2.138 48.1251 1.778 46.5771 1.778C 45.3171 1.778 44.3271 1.886 43.5711 2.03L 43.5711 14ZM 45.1371 3.146C 45.4071 3.074 45.9291 3.02 46.6131 3.02C 48.3411 3.02 49.4751 3.794 49.4751 5.396C 49.4751 7.052 48.3231 7.97 46.4331 7.97C 45.9111 7.97 45.4791 7.934 45.1371 7.844L 45.1371 3.146ZM 52.816 14L 54.4 14L 54.4 9.338C 54.4 9.086 54.418 8.834 54.454 8.6C 54.67 7.43 55.462 6.584 56.578 6.584C 56.794 6.584 56.956 6.602 57.118 6.62L 57.118 5.126C 56.974 5.108 56.848 5.09 56.686 5.09C 55.624 5.09 54.652 5.828 54.256 6.998L 54.202 6.998L 54.13 5.288L 52.744 5.288C 52.798 6.098 52.816 6.98 52.816 8.006L 52.816 14ZM 62.0928 14.198C 64.1628 14.198 66.4128 12.794 66.4128 9.554C 66.4128 6.908 64.7208 5.09 62.2188 5.09C 59.8248 5.09 57.8988 6.8 57.8988 9.716C 57.8988 12.47 59.7348 14.198 62.0748 14.198L 62.0928 14.198ZM 62.1288 13.01C 60.5988 13.01 59.5188 11.57 59.5188 9.662C 59.5188 8.006 60.3288 6.278 62.1828 6.278C 64.0548 6.278 64.7928 8.132 64.7928 9.608C 64.7928 11.588 63.6588 13.01 62.1468 13.01L 62.1288 13.01ZM 66.4458 17.798C 67.2918 17.798 68.4438 17.51 69.1458 16.808C 69.9198 16.016 70.1898 14.918 70.1898 13.226L 70.1898 5.288L 68.6058 5.288L 68.6058 12.614C 68.6058 14.702 68.4258 15.404 67.9938 15.89C 67.6158 16.304 67.0037 16.502 66.2657 16.556L 66.4458 17.798ZM 69.3798 3.812C 70.0097 3.812 70.3697 3.362 70.3697 2.84C 70.3697 2.282 69.9917 1.85 69.3978 1.85C 68.8038 1.85 68.4077 2.282 68.4077 2.84C 68.4077 3.362 68.7858 3.812 69.3618 3.812L 69.3798 3.812ZM 79.7867 9.932C 79.8227 9.752 79.8407 9.518 79.8407 9.194C 79.8407 7.592 79.1027 5.09 76.2587 5.09C 73.7207 5.09 72.1547 7.16 72.1547 9.788C 72.1547 12.398 73.7747 14.18 76.4387 14.18C 77.8247 14.18 78.7967 13.874 79.3547 13.622L 79.0667 12.488C 78.4907 12.74 77.7887 12.938 76.6547 12.938C 75.0707 12.938 73.7207 12.056 73.6847 9.932L 79.7867 9.932ZM 73.7027 8.798C 73.8287 7.7 74.5127 6.224 76.1327 6.224C 77.8967 6.224 78.3287 7.79 78.3107 8.798L 73.7027 8.798ZM 83.3863 1.22L 81.8023 1.22L 81.8023 14L 83.3863 14L 83.3863 10.724L 84.1963 9.824L 87.1843 14L 89.1103 14L 85.2763 8.87L 88.6423 5.288L 86.7523 5.288L 84.1783 8.294C 83.9263 8.6 83.6383 8.978 83.4223 9.284L 83.3863 9.284L 83.3863 1.22ZM 90.5998 3.686L 90.5998 5.288L 89.2498 5.288L 89.2498 6.494L 90.5998 6.494L 90.5998 11.228C 90.5998 12.254 90.7798 13.028 91.2118 13.514C 91.5898 13.928 92.1838 14.18 92.9218 14.18C 93.5338 14.18 94.0198 14.072 94.3258 13.964L 94.2538 12.758C 94.0198 12.83 93.7678 12.866 93.3358 12.866C 92.4538 12.866 92.1478 12.254 92.1478 11.174L 92.1478 6.494L 94.4158 6.494L 94.4158 5.288L 92.1478 5.288L 92.1478 3.2L 90.5998 3.686ZM 103.095 9.932C 103.131 9.752 103.149 9.518 103.149 9.194C 103.149 7.592 102.411 5.09 99.5673 5.09C 97.0293 5.09 95.4633 7.16 95.4633 9.788C 95.4633 12.398 97.0833 14.18 99.7473 14.18C 101.133 14.18 102.105 13.874 102.663 13.622L 102.375 12.488C 101.799 12.74 101.097 12.938 99.9633 12.938C 98.3793 12.938 97.0293 12.056 96.9933 9.932L 103.095 9.932ZM 97.0113 8.798C 97.1373 7.7 97.8213 6.224 99.4413 6.224C 101.205 6.224 101.637 7.79 101.619 8.798L 97.0113 8.798ZM 4.40425 35L 5.93425 35L 5.93425 23.3L 4.58425 23.3L 2.02825 24.668L 2.33425 25.874L 4.36825 24.776L 4.40425 24.776L 4.40425 35ZM 17.6648 35L 17.6648 33.686L 12.4268 33.686L 12.4268 33.65L 13.3448 32.786C 15.8108 30.41 17.3768 28.664 17.3768 26.504C 17.3768 24.83 16.3148 23.102 13.8128 23.102C 12.4628 23.102 11.2928 23.624 10.5008 24.29L 11.0048 25.406C 11.5448 24.956 12.4268 24.416 13.4888 24.416C 15.2348 24.416 15.7928 25.514 15.7928 26.702C 15.7928 28.466 14.4248 29.978 11.4368 32.822L 10.1948 34.028L 10.1948 35L 17.6648 35ZM 31.9497 33.344C 31.3197 33.65 30.3477 33.848 29.3757 33.848C 26.4417 33.848 24.7317 31.958 24.7317 28.988C 24.7317 25.82 26.6217 24.002 29.4657 24.002C 30.4737 24.002 31.3197 24.218 31.8957 24.506L 32.2917 23.21C 31.8777 23.012 30.9057 22.688 29.4117 22.688C 25.6497 22.688 23.0757 25.244 23.0757 29.042C 23.0757 33.02 25.6317 35.18 29.0517 35.18C 30.5277 35.18 31.6977 34.892 32.2557 34.604L 31.9497 33.344ZM 34.2371 35L 35.8031 35L 35.8031 30.122C 36.1631 30.212 36.5951 30.23 37.0631 30.23C 38.5931 30.23 39.9431 29.78 40.7711 28.898C 41.4011 28.268 41.7251 27.404 41.7251 26.306C 41.7251 25.244 41.3111 24.362 40.6451 23.786C 39.9251 23.138 38.7911 22.778 37.2431 22.778C 35.9831 22.778 34.9931 22.886 34.2371 23.03L 34.2371 35ZM 35.8031 24.146C 36.0731 24.074 36.5951 24.02 37.2791 24.02C 39.0071 24.02 40.1411 24.794 40.1411 26.396C 40.1411 28.052 38.9891 28.97 37.0991 28.97C 36.5771 28.97 36.1451 28.934 35.8031 28.844L 35.8031 24.146ZM 47.5777 38.564L 49.1617 38.564L 49.1617 33.83L 49.1977 33.83C 49.7197 34.694 50.7097 35.198 51.8797 35.198C 53.9137 35.198 55.8397 33.65 55.8397 30.518C 55.8397 27.872 54.2557 26.09 52.1317 26.09C 50.7277 26.09 49.6837 26.702 49.0537 27.782L 49.0177 27.782L 48.9277 26.288L 47.5057 26.288C 47.5597 27.116 47.5777 28.016 47.5777 29.132L 47.5777 38.564ZM 49.1617 29.942C 49.1617 29.744 49.2157 29.51 49.2517 29.312C 49.5577 28.106 50.5837 27.35 51.6637 27.35C 53.3377 27.35 54.2377 28.844 54.2377 30.59C 54.2377 32.588 53.2657 33.956 51.5917 33.956C 50.4757 33.956 49.5037 33.2 49.2337 32.102C 49.1797 31.904 49.1617 31.67 49.1617 31.454L 49.1617 29.942ZM 57.8257 35L 59.4097 35L 59.4097 30.338C 59.4097 30.086 59.4277 29.834 59.4637 29.6C 59.6797 28.43 60.4717 27.584 61.5877 27.584C 61.8037 27.584 61.9657 27.602 62.1277 27.62L 62.1277 26.126C 61.9837 26.108 61.8577 26.09 61.6957 26.09C 60.6337 26.09 59.6617 26.828 59.2657 27.998L 59.2117 27.998L 59.1397 26.288L 57.7537 26.288C 57.8077 27.098 57.8257 27.98 57.8257 29.006L 57.8257 35ZM 67.1026 35.198C 69.1726 35.198 71.4226 33.794 71.4226 30.554C 71.4226 27.908 69.7306 26.09 67.2286 26.09C 64.8346 26.09 62.9086 27.8 62.9086 30.716C 62.9086 33.47 64.7446 35.198 67.0846 35.198L 67.1026 35.198ZM 67.1386 34.01C 65.6086 34.01 64.5286 32.57 64.5286 30.662C 64.5286 29.006 65.3386 27.278 67.1926 27.278C 69.0646 27.278 69.8026 29.132 69.8026 30.608C 69.8026 32.588 68.6686 34.01 67.1566 34.01L 67.1386 34.01ZM 76.674 34.388C 77.322 34.82 78.6 35.18 79.77 35.18C 82.632 35.18 84 33.542 84 31.688C 84 29.906 82.974 28.934 80.922 28.124C 79.248 27.476 78.51 26.918 78.51 25.802C 78.51 24.974 79.14 23.984 80.796 23.984C 81.894 23.984 82.704 24.326 83.082 24.56L 83.514 23.264C 82.992 22.976 82.074 22.688 80.85 22.688C 78.492 22.688 76.926 24.092 76.926 25.982C 76.926 27.674 78.15 28.718 80.13 29.402C 81.768 30.014 82.416 30.68 82.416 31.814C 82.416 33.038 81.48 33.866 79.878 33.866C 78.798 33.866 77.79 33.524 77.088 33.092L 76.674 34.388ZM 93.2164 30.932C 93.2524 30.752 93.2704 30.518 93.2704 30.194C 93.2704 28.592 92.5324 26.09 89.6884 26.09C 87.1504 26.09 85.5844 28.16 85.5844 30.788C 85.5844 33.398 87.2044 35.18 89.8684 35.18C 91.2544 35.18 92.2264 34.874 92.7844 34.622L 92.4964 33.488C 91.9204 33.74 91.2184 33.938 90.0844 33.938C 88.5004 33.938 87.1504 33.056 87.1144 30.932L 93.2164 30.932ZM 87.1324 29.798C 87.2584 28.7 87.9424 27.224 89.5624 27.224C 91.3264 27.224 91.7584 28.79 91.7404 29.798L 87.1324 29.798ZM 95.232 35L 96.78 35L 96.78 29.744C 96.78 29.474 96.816 29.204 96.906 28.97C 97.158 28.178 97.896 27.386 98.868 27.386C 100.074 27.386 100.686 28.376 100.686 29.762L 100.686 35L 102.234 35L 102.234 29.6C 102.234 29.33 102.288 29.042 102.36 28.808C 102.648 28.052 103.332 27.386 104.25 27.386C 105.51 27.386 106.14 28.376 106.14 30.068L 106.14 35L 107.688 35L 107.688 29.87C 107.688 26.846 105.978 26.09 104.808 26.09C 103.98 26.09 103.422 26.306 102.9 26.702C 102.54 26.972 102.18 27.332 101.91 27.836L 101.874 27.836C 101.496 26.81 100.596 26.09 99.426 26.09C 97.968 26.09 97.158 26.864 96.672 27.692L 96.618 27.692L 96.546 26.288L 95.16 26.288C 95.196 27.008 95.232 27.728 95.232 28.646L 95.232 35ZM 117.246 30.932C 117.282 30.752 117.3 30.518 117.3 30.194C 117.3 28.592 116.562 26.09 113.718 26.09C 111.18 26.09 109.614 28.16 109.614 30.788C 109.614 33.398 111.234 35.18 113.898 35.18C 115.284 35.18 116.256 34.874 116.814 34.622L 116.526 33.488C 115.95 33.74 115.248 33.938 114.114 33.938C 112.53 33.938 111.18 33.056 111.144 30.932L 117.246 30.932ZM 111.162 29.798C 111.288 28.7 111.972 27.224 113.592 27.224C 115.356 27.224 115.788 28.79 115.77 29.798L 111.162 29.798ZM 118.667 34.568C 119.279 34.928 120.161 35.18 121.115 35.18C 123.149 35.18 124.355 34.1 124.355 32.552C 124.355 31.256 123.563 30.5 122.069 29.942C 120.935 29.492 120.431 29.168 120.431 28.448C 120.431 27.8 120.935 27.26 121.871 27.26C 122.681 27.26 123.311 27.566 123.653 27.764L 124.031 26.63C 123.563 26.324 122.789 26.09 121.907 26.09C 120.053 26.09 118.901 27.242 118.901 28.646C 118.901 29.672 119.639 30.536 121.223 31.112C 122.375 31.544 122.825 31.94 122.825 32.696C 122.825 33.434 122.285 33.992 121.151 33.992C 120.359 33.992 119.531 33.668 119.045 33.38L 118.667 34.568ZM 126.758 24.686L 126.758 26.288L 125.408 26.288L 125.408 27.494L 126.758 27.494L 126.758 32.228C 126.758 33.254 126.938 34.028 127.37 34.514C 127.748 34.928 128.342 35.18 129.08 35.18C 129.692 35.18 130.178 35.072 130.484 34.964L 130.412 33.758C 130.178 33.83 129.926 33.866 129.494 33.866C 128.612 33.866 128.306 33.254 128.306 32.174L 128.306 27.494L 130.574 27.494L 130.574 26.288L 128.306 26.288L 128.306 24.2L 126.758 24.686ZM 139.254 30.932C 139.29 30.752 139.308 30.518 139.308 30.194C 139.308 28.592 138.57 26.09 135.726 26.09C 133.188 26.09 131.621 28.16 131.621 30.788C 131.621 33.398 133.242 35.18 135.905 35.18C 137.291 35.18 138.264 34.874 138.822 34.622L 138.534 33.488C 137.958 33.74 137.255 33.938 136.121 33.938C 134.537 33.938 133.188 33.056 133.151 30.932L 139.254 30.932ZM 133.169 29.798C 133.296 28.7 133.98 27.224 135.6 27.224C 137.364 27.224 137.796 28.79 137.778 29.798L 133.169 29.798ZM 141.269 35L 142.853 35L 142.853 30.338C 142.853 30.086 142.871 29.834 142.907 29.6C 143.123 28.43 143.915 27.584 145.031 27.584C 145.247 27.584 145.409 27.602 145.571 27.62L 145.571 26.126C 145.427 26.108 145.301 26.09 145.139 26.09C 144.077 26.09 143.105 26.828 142.709 27.998L 142.655 27.998L 142.583 26.288L 141.197 26.288C 141.251 27.098 141.269 27.98 141.269 29.006L 141.269 35Z"/>
<path id="path12_fill" d="M 0 0L 600 0L 600 32L 0 32L 0 0Z"/>
<path id="path13_fill" d="M 53.8663 14L 55.4143 14L 54.6583 1.868L 52.6603 1.868L 50.5003 7.736C 49.9603 9.266 49.5283 10.616 49.2043 11.84L 49.1683 11.84C 48.8443 10.58 48.4483 9.23 47.9443 7.736L 45.8743 1.868L 43.8763 1.868L 43.0303 14L 44.5243 14L 44.8483 8.798C 44.9563 6.98 45.0463 4.946 45.0823 3.434L 45.1183 3.434C 45.4603 4.874 45.9283 6.44 46.5043 8.15L 48.4843 13.928L 49.6723 13.928L 51.8143 8.042C 52.4263 6.386 52.9123 4.838 53.3443 3.434L 53.3803 3.434C 53.3803 4.928 53.4883 6.998 53.5783 8.672L 53.8663 14ZM 64.0106 8.654C 64.0106 6.908 63.3626 5.09 60.6806 5.09C 59.5826 5.09 58.5206 5.396 57.8006 5.846L 58.1606 6.908C 58.7726 6.494 59.6186 6.26 60.4466 6.26C 62.2286 6.242 62.4266 7.556 62.4266 8.276L 62.4266 8.456C 59.0606 8.438 57.1886 9.59 57.1886 11.696C 57.1886 12.956 58.0886 14.198 59.8526 14.198C 61.0946 14.198 62.0486 13.586 62.5166 12.902L 62.5706 12.902L 62.7146 14L 64.1366 14C 64.0466 13.406 64.0106 12.668 64.0106 11.912L 64.0106 8.654ZM 62.4626 11.066C 62.4626 11.228 62.4446 11.408 62.3906 11.57C 62.1386 12.308 61.4006 13.028 60.2486 13.028C 59.4566 13.028 58.7726 12.56 58.7726 11.516C 58.7726 9.824 60.7346 9.518 62.4626 9.554L 62.4626 11.066ZM 65.9622 13.568C 66.5742 13.928 67.4562 14.18 68.4102 14.18C 70.4442 14.18 71.6502 13.1 71.6502 11.552C 71.6502 10.256 70.8582 9.5 69.3642 8.942C 68.2302 8.492 67.7262 8.168 67.7262 7.448C 67.7262 6.8 68.2302 6.26 69.1662 6.26C 69.9762 6.26 70.6062 6.566 70.9482 6.764L 71.3262 5.63C 70.8582 5.324 70.0842 5.09 69.2022 5.09C 67.3482 5.09 66.1962 6.242 66.1962 7.646C 66.1962 8.672 66.9342 9.536 68.5182 10.112C 69.6702 10.544 70.1202 10.94 70.1202 11.696C 70.1202 12.434 69.5802 12.992 68.4462 12.992C 67.6542 12.992 66.8262 12.668 66.3402 12.38L 65.9622 13.568ZM 74.0529 3.686L 74.0529 5.288L 72.7029 5.288L 72.7029 6.494L 74.0529 6.494L 74.0529 11.228C 74.0529 12.254 74.2329 13.028 74.6649 13.514C 75.0429 13.928 75.6369 14.18 76.3749 14.18C 76.9869 14.18 77.4729 14.072 77.7789 13.964L 77.7069 12.758C 77.4729 12.83 77.2209 12.866 76.7889 12.866C 75.9069 12.866 75.6009 12.254 75.6009 11.174L 75.6009 6.494L 77.8689 6.494L 77.8689 5.288L 75.6009 5.288L 75.6009 3.2L 74.0529 3.686ZM 86.5484 9.932C 86.5844 9.752 86.6024 9.518 86.6024 9.194C 86.6024 7.592 85.8644 5.09 83.0204 5.09C 80.4824 5.09 78.9164 7.16 78.9164 9.788C 78.9164 12.398 80.5364 14.18 83.2004 14.18C 84.5864 14.18 85.5584 13.874 86.1164 13.622L 85.8284 12.488C 85.2524 12.74 84.5504 12.938 83.4164 12.938C 81.8324 12.938 80.4824 12.056 80.4464 9.932L 86.5484 9.932ZM 80.4644 8.798C 80.5904 7.7 81.2744 6.224 82.8944 6.224C 84.6584 6.224 85.0904 7.79 85.0724 8.798L 80.4644 8.798ZM 88.564 14L 90.148 14L 90.148 9.338C 90.148 9.086 90.166 8.834 90.202 8.6C 90.418 7.43 91.21 6.584 92.326 6.584C 92.542 6.584 92.704 6.602 92.866 6.62L 92.866 5.126C 92.722 5.108 92.596 5.09 92.434 5.09C 91.372 5.09 90.4 5.828 90.004 6.998L 89.95 6.998L 89.878 5.288L 88.492 5.288C 88.546 6.098 88.564 6.98 88.564 8.006L 88.564 14ZM 95.2345 3.686L 95.2345 5.288L 93.8845 5.288L 93.8845 6.494L 95.2345 6.494L 95.2345 11.228C 95.2345 12.254 95.4145 13.028 95.8465 13.514C 96.2245 13.928 96.8185 14.18 97.5565 14.18C 98.1685 14.18 98.6545 14.072 98.9605 13.964L 98.8885 12.758C 98.6545 12.83 98.4025 12.866 97.9705 12.866C 97.0885 12.866 96.7825 12.254 96.7825 11.174L 96.7825 6.494L 99.0505 6.494L 99.0505 5.288L 96.7825 5.288L 96.7825 3.2L 95.2345 3.686ZM 100.834 14L 102.418 14L 102.418 8.744C 102.418 8.438 102.436 8.204 102.526 7.988C 102.832 7.124 103.624 6.404 104.65 6.404C 106.144 6.404 106.666 7.574 106.666 8.978L 106.666 14L 108.25 14L 108.25 8.816C 108.25 5.81 106.378 5.09 105.208 5.09C 104.614 5.09 104.056 5.252 103.588 5.54C 103.102 5.792 102.706 6.206 102.454 6.656L 102.418 6.656L 102.418 1.22L 100.834 1.22L 100.834 14ZM 117.82 9.932C 117.856 9.752 117.874 9.518 117.874 9.194C 117.874 7.592 117.136 5.09 114.292 5.09C 111.754 5.09 110.188 7.16 110.188 9.788C 110.188 12.398 111.808 14.18 114.472 14.18C 115.858 14.18 116.83 13.874 117.388 13.622L 117.1 12.488C 116.524 12.74 115.822 12.938 114.688 12.938C 113.104 12.938 111.754 12.056 111.718 9.932L 117.82 9.932ZM 111.736 8.798C 111.862 7.7 112.546 6.224 114.166 6.224C 115.93 6.224 116.362 7.79 116.344 8.798L 111.736 8.798ZM 119.241 13.568C 119.853 13.928 120.735 14.18 121.689 14.18C 123.723 14.18 124.929 13.1 124.929 11.552C 124.929 10.256 124.137 9.5 122.643 8.942C 121.509 8.492 121.005 8.168 121.005 7.448C 121.005 6.8 121.509 6.26 122.445 6.26C 123.255 6.26 123.885 6.566 124.227 6.764L 124.605 5.63C 124.137 5.324 123.363 5.09 122.481 5.09C 120.627 5.09 119.475 6.242 119.475 7.646C 119.475 8.672 120.213 9.536 121.797 10.112C 122.949 10.544 123.399 10.94 123.399 11.696C 123.399 12.434 122.859 12.992 121.725 12.992C 120.933 12.992 120.105 12.668 119.619 12.38L 119.241 13.568ZM 128.556 14L 128.556 5.288L 126.972 5.288L 126.972 14L 128.556 14ZM 127.746 3.812C 128.358 3.812 128.736 3.362 128.736 2.84C 128.736 2.282 128.34 1.85 127.764 1.85C 127.17 1.85 126.774 2.282 126.774 2.84C 126.774 3.362 127.152 3.812 127.728 3.812L 127.746 3.812ZM 130.597 13.568C 131.209 13.928 132.091 14.18 133.045 14.18C 135.079 14.18 136.285 13.1 136.285 11.552C 136.285 10.256 135.493 9.5 133.999 8.942C 132.865 8.492 132.361 8.168 132.361 7.448C 132.361 6.8 132.865 6.26 133.801 6.26C 134.611 6.26 135.241 6.566 135.583 6.764L 135.961 5.63C 135.493 5.324 134.719 5.09 133.837 5.09C 131.983 5.09 130.831 6.242 130.831 7.646C 130.831 8.672 131.569 9.536 133.153 10.112C 134.305 10.544 134.755 10.94 134.755 11.696C 134.755 12.434 134.215 12.992 133.081 12.992C 132.289 12.992 131.461 12.668 130.975 12.38L 130.597 13.568Z"/>
</defs>
</svg>
