<?xml version="1.0" encoding="UTF-8" standalone="no"?>
<svg width="452px" height="376px" viewBox="0 0 452 376" version="1.1" xmlns="http://www.w3.org/2000/svg" xmlns:xlink="http://www.w3.org/1999/xlink" xmlns:sketch="http://www.bohemiancoding.com/sketch/ns">
    <!-- Generator: Sketch 3.3.3 (12081) - http://www.bohemiancoding.com/sketch -->
    <title>box</title>
    <desc>Created with Sketch.</desc>
    <defs></defs>
    <g id="Page-1" stroke="none" stroke-width="1" fill="none" fill-rule="evenodd" sketch:type="MSPage">
        <path d="M219.6582,41.4473 L68.0362,137.1783 L4.7362,97.5183 L157.6112,2.1693 L219.6582,41.4473 Z" id="Fill-1" fill="#E3632A" sketch:type="MSShapeGroup"></path>
        <path d="M451.4375,187.9082 L298.4005,282.9422 L229.1265,239.3962 L382.0145,143.9642 L451.4375,187.9082 Z" id="Fill-2" fill="#E3632A" sketch:type="MSShapeGroup"></path>
        <path d="M0,185.9911 L151.285,282.0951 L219.712,239.3231 L68.033,143.0291 L0,185.9911 Z" id="Fill-3" fill="#E3632A" sketch:type="MSShapeGroup"></path>
        <path d="M151.6631,287.874 L69.5641,236.089 L69.5641,279.171 L221.5641,375.137 L221.5641,244.119 L151.6631,287.874 Z" id="Fill-4" fill="#000000" sketch:type="MSShapeGroup"></path>
        <path d="M69.5645,144.3555 L221.3945,240.3885 L66.8145,142.5495 L69.5645,144.3555 Z" id="Fill-5" fill="#231F1F" sketch:type="MSShapeGroup"></path>
        <path d="M379.5645,145.2437 L225.6845,241.2877 L379.5645,145.3517 L379.5645,145.2437 Z" id="Fill-6" fill="#231F1F" sketch:type="MSShapeGroup"></path>
        <path d="M298.2465,288.8728 L226.5645,243.4908 L226.5645,375.9998 L379.7525,280.6198 L379.8935,238.1918 L298.2465,288.8728 Z" id="Fill-7" fill="#000000" sketch:type="MSShapeGroup"></path>
        <path d="M72.752,140.1396 L221.565,45.9926 L221.565,87.9746 L192.915,105.7866 L175.293,94.5316 L135.565,118.9366 L135.565,145.2436 L122.665,137.1786 L95.092,154.1986 L72.752,140.1396 Z" id="Fill-8" fill="#000000" sketch:type="MSShapeGroup"></path>
        <path d="M226.5645,45.4741 L377.2125,140.9971 L343.3205,162.1221 L311.0985,141.4681 L303.8555,145.7751 L294.5645,140.2071 L294.5645,130.2581 L226.7935,87.5301 L226.5645,45.4741 Z" id="Fill-9" fill="#000000" sketch:type="MSShapeGroup"></path>
        <path d="M382.0146,137.9946 L229.0576,41.3976 L294.1746,0.2426 L447.3136,97.4856 L382.0146,137.9946 Z" id="Fill-10" fill="#E3632A" sketch:type="MSShapeGroup"></path>
        <path d="M212.1738,161.2319 L144.7678,118.5649 L174.5668,100.0949 L241.0628,143.2479 L212.1738,161.2319 Z" id="Fill-11" fill="#C23B3E" sketch:type="MSShapeGroup"></path>
        <path d="M192.6216,181.8135 L140.5646,148.9245 L140.5646,122.5985 L207.7846,165.8735 L207.7586,181.9945 L197.9336,188.1705 L197.8616,201.7355 L192.5386,204.9915 L192.6216,181.8135 Z" id="Fill-12" fill="#231F1F" sketch:type="MSShapeGroup"></path>
        <path d="M241.1523,161.3164 L212.8143,178.8364 L212.8143,167.6074 L241.1523,149.9854 L241.1523,161.3164 Z" id="Fill-13" fill="#231F1F" sketch:type="MSShapeGroup"></path>
        <path d="M163.1738,197.2988 L100.0848,157.4348 L122.5488,143.3808 L185.6108,183.3298 L163.1738,197.2988 Z" id="Fill-14" fill="#A42E82" sketch:type="MSShapeGroup"></path>
        <path d="M187.5488,208.1113 L183.6808,210.6083 L167.9808,200.2973 L187.5488,188.0493 L187.5488,208.1113 Z" id="Fill-15" fill="#231F1F" sketch:type="MSShapeGroup"></path>
        <path d="M224.0645,236.6611 L188.4255,213.4531 L200.6265,205.8821 L236.6625,228.7431 L224.0645,236.6611 Z" id="Fill-16" fill="#231F1F" sketch:type="MSShapeGroup"></path>
        <path d="M251.6738,218.9863 L205.1108,189.5533 L238.8258,168.5273 L285.3128,198.0683 L251.6738,218.9863 Z" id="Fill-17" fill="#7C2262" sketch:type="MSShapeGroup"></path>
        <path d="M260.7676,148.748 L197.5676,108.832 L224.5406,92.01 L287.6716,132.006 L260.7676,148.748 Z" id="Fill-18" fill="#A42E82" sketch:type="MSShapeGroup"></path>
        <path d="M289.5996,142.7192 L263.2576,159.1472 L263.2576,153.0872 L289.5996,136.6962 L289.5996,142.7192 Z" id="Fill-19" fill="#231F1F" sketch:type="MSShapeGroup"></path>
        <path d="M253.9268,172.001 L246.1708,167.049 L246.1708,145.443 L258.2578,153.076 L258.2568,162.266 L253.8928,165.281 L253.9268,172.001 Z" id="Fill-20" fill="#231F1F" sketch:type="MSShapeGroup"></path>
        <path d="M299.2051,148.748 L275.8141,163.228 L275.9021,176.226 L260.7091,166.629 L294.3321,145.661 L299.2051,148.748 Z" id="Fill-21" fill="#231F1F" sketch:type="MSShapeGroup"></path>
        <path d="M310.8809,182.3193 L283.0039,164.9133 L310.6579,147.6193 L338.1469,164.8873 L310.8809,182.3193 Z" id="Fill-22" fill="#C23B3E" sketch:type="MSShapeGroup"></path>
        <path d="M290.2568,195.1738 L280.9398,189.2988 L280.9398,169.4238 L306.0408,185.3188 L290.2568,195.1738 Z" id="Fill-23" fill="#231F1F" sketch:type="MSShapeGroup"></path>
        <path d="M275.8301,186.0332 L260.5641,176.2512 L260.5641,172.3432 L275.8301,182.0942 L275.8301,186.0332 Z" id="Fill-24" fill="#231F1F" sketch:type="MSShapeGroup"></path>
        <path d="M241.2402,225.666 L202.9002,201.326 L202.9002,194.143 L246.9822,221.979 L241.2402,225.666 Z" id="Fill-25" fill="#231F1F" sketch:type="MSShapeGroup"></path>
    </g>
</svg>