<svg width="60px" height="71px" viewBox="0 0 60 71" xmlns="http://www.w3.org/2000/svg">
  <defs>
    <linearGradient x1="50.0011543%" y1="-1.15214129%" x2="50.0011543%" y2="90.3662703%" id="linearGradient-1">
      <stop stop-color="#0066B3" offset="0%"/>
      <stop stop-color="#DDF3FE" offset="87.08%"/>
    </linearGradient>
    <radialGradient cx="49.1575416%" cy="88.5755708%" fx="49.1575416%" fy="88.5755708%" r="77.7528166%" gradientTransform="matrix(.9503 0 0 1 .024 0)" id="radialGradient-2">
      <stop stop-color="#53A5BF" offset="0.56%"/>
      <stop stop-color="#00487D" offset="95.05%"/>
    </radialGradient>
    <radialGradient cx="50.7152155%" cy="93.7029456%" fx="50.7152155%" fy="93.7029456%" r="93.6054795%" gradientTransform="matrix(.9604 0 0 1 .02 0)" id="radialGradient-3">
      <stop stop-color="#EFF9FE" offset="0%"/>
      <stop stop-color="#55C0EA" offset="91.01%"/>
    </radialGradient>
  </defs>
  <g id="Symbols" fill="none" fill-rule="evenodd">
    <g id="head">
      <g id="dive_logo">
        <g id="Group">
          <g id="Shape">
            <path d="M2.378 61.165h5.47c1.532 0 2.707.35 3.523 1.047.818.697 1.227 1.96 1.227 3.786 0 1.707-.44 2.93-1.316 3.67-.876.736-2.07 1.108-3.583 1.108H2.38v-9.61h-.002zM6.11 68.38h.93c.642 0 1.077-.2 1.31-.593.232-.394.347-1.024.347-1.886 0-.87-.118-1.507-.355-1.905-.237-.4-.675-.6-1.315-.6H6.11v4.984zM17.816 61.165v9.61h-3.73v-9.61zM18.678 61.165h3.995l1.81 5.756 1.85-5.755h3.815l-3.592 9.61h-4.412zM30.873 61.165h8.42v2.312H34.52l.032 1.578h4.565v1.863h-4.565l-.033 1.544h4.87v2.31h-8.517z" fill="#FFF"/>
            <path fill="#C5391F" d="M41.242 68.132h3.034v2.642h-3.034zM49.734 70.774H46.33v-8.766h3.404zM57.25 64.086c-.456-.08-.914-.118-1.37-.118-.416 0-.763.033-1.042.1-.28.066-.42.226-.42.477 0 .268.477.495 1.43.686.952.188 1.73.448 2.33.78.6.33.9.99.9 1.978 0 1.063-.423 1.82-1.27 2.266-.846.448-1.862.672-3.046.672-1.228 0-2.447-.138-3.658-.414V68.24c.932.385 1.948.577 3.05.577.456 0 .823-.046 1.102-.138.28-.093.42-.247.42-.465 0-.285-.48-.527-1.436-.73-.957-.2-1.732-.467-2.33-.803-.598-.335-.896-.995-.896-1.984 0-1.08.44-1.824 1.32-2.23.88-.405 1.96-.61 3.24-.61.508 0 1 .026 1.48.075.475.05.96.127 1.452.226v2.248c-.38-.134-.797-.24-1.255-.322z"/>
          </g>
          <g transform="translate(.676)">
            <path id="Shape" fill="url(#linearGradient-1)" d="M26.25 55.722H1.98V1.894h54.425v53.828H26.25"/>
            <path d="M57.715 48.963c.046-.137-.49-.373-1.263-.613V2.165h-4.64l-.007.1-.006.02-.005.024-.007.05-.064.188-.01.02-.007.024-.013.05-.028.102-.066.188-.062.188-.07.177-.067.182-.02.037-.01.018-.008.025-.035.09-.068.174-.043.076-.02.038-.01.02-.01.024-.074.164-.084.157-.042.075-.02.038-.012.02-.006.024-.014.013-.012.018-.02.04-.04.075-.087.15-.09.145-.014.013-.012.02-.02.037-.04.076-.088-.032-.08-.018-.075-.013h-.14l-.123.025-.057.026-.054.025-.05.037-.048.037-.04.057-.04.052-.036.07-.036.068-.024.082-.153.42-.15.428-.16.415-.16.42-.167.403-.083.2-.042.102-.02.05-.017.058-.024.044-.02.05-.042.1-.082.202-.025.044-.062.15-.083.202-.09.188-.026.044-.02.05-.04.1-.092.19-.024.044-.02.05-.04.1-.05.09-.024.043-.02.05-.09.188-.18.377-.19.364-.188.364-.195.352-.193.358-.007.1-.007.02-.005.025-.007.05-.158.47-.163.466-.088.227-.083.232-.025.05-.02.057-.04.113-.085.227-.18.434-.183.427-.098.208-.093.214-.096.2-.048.102-.024.05-.02.056-.2.396-.204.39-.21.376-.216.37-.222.36-.223.35-.118.17-.115.176-.235.333-.005.05-.003.026v.03l-.013.1-.063.378-.055.39-.107.797h-.032l-.024.013-.02.012-.014.032-.18.358-.156.383-.142.384-.118.41-.103.407-.082.434-.063.432-.042.46-.05.006-.018.012-.004.026-.062.175-.063.175-.065.163-.062.17-.07.158-.07.156-.018.032-.017.04-.035.074-.022.032-.05.113v.22l.003.202.015.188.01.08.018.083.017.07.024.074.02.082.007.05.006.057v.05l.007.05.007.043.017.045.024.075.02.075.018.076.014.08.007.07.003.075-.007.15-.013.064-.017.075-.05.137-.03.064-.035.07-.04.062-.014.013-.006.007-.005.013-.02.038.017.082.023.088.053.156.06.145.03.062.04.07.034.056.04.057.042.05.048.057.045.038.05.044.11.08.003.007.008.025.003.03.005.06-.01.174v.195l.006.195.018.22-1.55.22.04.24.045.24.054.255.005.013.013.013.017.006.03.007.483.608.482.623.96 1.252.472.63.474.64.942 1.288.016.02.025.018.023.012.032.006.232 1.075.236 1.063.24 1.05.244 1.05.02.093.008.107-.055.138-.052.14-.055.133-.053.14-.058.123-.057.127-.063.118-.06.126-.035.05-.017.025-.013.033-.063.114-.132.22-.138.195-.02.018-.017.025-.036.05-.07.1-.04.037-.02.018-.018.025-.076.09-.08.075-.077.08-.082.07-.08.075-.167.133-.09.05-.044.025-.04.032-.182.106-.187.09-.096.038-.048.02-.043.024-.082.465-.007.12-.002.024v.095l-.01.113-.008.058-.004.063-.012.05-.006.056-.017.113-.02.1-.02.107-.012.018-.006.025-.014.05-.027.094-.034.09-.036.093-.04.082-.022.037-.01.02-.006.024-.045.076-.026.038-.02.044-.053.063-.03.03-.023.04-.06.063-.058.063-.065.05-.062.057-.07.05-.067.057-.08.038-.076.045-.166.075-.09.025-.045.013-.04.017-.094.026-.094.024-.008.007v.15l.008.045.008.032.016.03.07.1.067.115.066.115.065.125.06.12.04.09-.49.025-.494.82-.04-.03-.107-.077.074.227-2.473 4.104-.966 3.006-6.943.746-4.813 1.092-2.17-2.003-2.054-.43-3.46-3.307s-.287.29-.445-.33c-.212-.832-2.304-1.815-2.304-1.815l-.638-4.52.02-.05.116-.315.11-.327.053-.163.027-.082.032-.074.012-.05.005-.026.01-.018v-.032l.003-.026.005-.05v-1.333h.03l.032-.012.027-.017.027-.018.014-.038.013-.038.01-.044.003-.05v-.667l.045-.1.022-.05.026-.044.017-.056.022-.05.044-.107.013-.063.018-.057.035-.115.027-.126.027-.117.01-.116v-.057l.004-.05v-1.332l-.01-.108-.013-.1-.026-.107-.02-.114-.022-.125-.017-.13-.017-.145-.013-.158-.01-.17-.004-.168h.155l-.01-.108-.025-.082-.04-.088-.026-.094-.028-.1-.013-.108-.02-.125-.003-.126v-.14l.008-.143-.005-.057-.005-.03-.013-.033-.01-.013-.056-.056-.027-.032-.018-.025-.032-.075-.013-.043-.005-.038-.013-.107-.006-.057.005-.056.012-.132.01-.07.016-.062-.04-.006-.02-.008-.023-.012-.004-.007-.03-.157-.022-.157-.014-.163v-.156l.036-.043.017-.025.01-.012.005-.008h.008l.037-.05.016-.024.01-.012.005-.006h.01l.026-.058v-.013l.004-.005.01-.013.017-.025.026-.062.033-.064.017-.074.022-.075.017-.08.02-.077.01-.088.014-.09.01-.092.004-.05.01-.044.004-.014h.07l-.01-.114-.013-.1-.064-.232-.07-.22.035-.063.037-.057.053-.126.01-.05.004-.026.008-.018.01-.1-.038-.006-.022-.007-.023-.01-.005-.013-.03-.157-.023-.15-.013-.164-.005-.157h.154l.004-.114.013-.113.016-.165.018-.15.014-.15.013-.14.005-.144.01-.13.01-.26-.014-.244-.017-.22-.03-.207-.04-.183-.004-.057-.005-.044-.013-.038-.013-.025-.116-.182-.102-.18-.1-.196-.093-.194-.093-.207-.084-.208-.085-.22-.07-.22-.04-.006-.025-.008-.023-.018-.003-.013-.072-.206-.058-.208-.054-.214-.04-.214-.038-.007-.024-.003-.02-.02-.01-.01-.09-.234-.088-.22-.098-.207-.096-.183h-.08l-.013-.183-.014-.17-.022-.156-.023-.145-.035-.138-.035-.12-.044-.107-.048-.094h.154L14.267 24l-.01-.107-.065-.445-.074-.44.118-.04.124-.03.057-.025.063-.02.12-.037.22-.1.107-.057.11-.05.097-.07.102-.063.098-.068.047-.038.055-.032.09-.082.09-.075.09-.088.09-.082v-.02h.005l.008-.012v-.018h.005l.01-.013.01-.044.004-.05-.005-.056-.01-.043-.014-.043-.013-.03-.196-.372-.2-.352-.202-.352-.204-.338-.212-.34-.217-.32-.222-.32-.224-.31.095.058.096.057.046.02.048.024.092.038h.027l.013.007.044.013.085.013h.08l.08-.005.07-.026.07-.032.03-.025.038-.02.065-.05.026-.037.005-.013.01-.006.016-.013.063-.075.05-.09.054-.093.005-.026.008-.017.005-.026.01-.018.01-.05.003-.052-.004-.056-.01-.044-.013-.044-.014-.03-.07-.134-.076-.107-.083-.106-.085-.088-.097-.09-.1-.07-.112-.067-.115-.05-.006-.058-.01-.043-.012-.038-.013-.026-.08-.125-.062-.126-.044-.125-.017-.113-.008-.12.017-.114.027-.113.052-.107-.04-.006-.035-.012-.03-.02-.023-.018-.655-.8-.642-.804-.642-.81-.628-.817-.628-.83-.615-.837-.615-.848-.602-.855-.075-.013-.07-.018-.43-.265-.208-.14-.203-.143-.207-.157-.2-.157-.198-.163-.196-.17-.196-.19-.19-.187-.192-.194-.186-.202-.367-.427-.182-.226-.172-.228-.08-.006-.08-.02-.627-.206-.62-.214-.005-.056-.01-.044-.013-.044-.013-.032-.156-.276-.154-.264-.16-.264-.16-.25-.168-.252-.172-.24-.176-.23-.177-.22-.19-.227-.192-.214-.39-.408-.202-.202-.203-.188-.212-.182-.213-.17v7.982l.096.107.103.12.196.244.087.126.093.138.177.284.08.138.08.15.15.305.136.32.133.347.11.346.107.37.092.384.044.195.043.206.066.41.06.433.05.444.02.227.023.24h-.078l-.15-.09-.142-.092-.137-.1-.13-.102-.127-.12-.12-.12-.118-.125-.11-.125-.112-.144-.102-.144-.1-.15-.094-.158-.092-.17-.085-.17-.083-.175-.076-.182-.013-.024-.018-.013-.03-.007h-.032v27.49l.093-.025.092-.012.084-.013.09.006h.074l.08.02.07.018.075.033.063.032.066.044.058.044.057.057.05.056.046.07.045.074.043.09.032.08.037.095.025.1.03.114.018.113.023.125.013.125.012.144.005.14.004.15v.32l-.008.17-.01.18-.016.183-.013.195-.027.215-.017.232-.028.245-.016.265-.027.27-.003.025c-.22.573-.45 1.183-.675 1.778l-.022.007-.097.013H1.87l-.01.006-.016-.007H1.75l-.113-.013v1.182c-.403 1.074-.713 1.925-.76 2.108-.143.572 2.46 5.293 3.04 5.293-.996 0 46.98.69 51.053-.43.14-.037.27-.095.395-.16h1.09v-1.077c1.122-1.848 1.15-5.02 1.26-5.343z" id="Shape" fill="url(#radialGradient-2)"/>
            <path id="Shape" fill="#80C9FF" opacity="0.36" d="M46.075 20.344l.002.106.008.045.014.05.07.314.067.313.03.15.012.076.006.037.01.044.052.316.046.3.036.302.015.145.017.15.024.303.008.138v.032l.003.038.006.075.01.288V23.776l.005.075v.284l-.008.132-.003.14-.017.275-.014.132-.01.14-.024.275v.107l.103-.138.056-.075.056-.08.055-.095.06-.1.12-.215.06-.126.063-.13.13-.278.133-.314.068-.164.073-.17v-.113l.008-.106v-.183l.003-.17-.007-.32-.016-.31-.014-.143-.014-.132-.02-.14-.02-.124-.058-.233-.034-.113-.03-.1-.04-.1-.037-.09-.048-.093-.046-.083-.104-.145-.06-.068-.054-.057-.125-.095-.068-.05-.07-.038-.152-.056-.082-.026-.08-.012z"/>
            <path id="Shape" fill="#80C9FF" opacity="0.71" d="M53.566 35.625l-.03-.208-.03-.188-.062-.36-.034-.17-.03-.15-.036-.144-.03-.127-.078-.245-.076-.202-.04-.094-.04-.077-.082-.12-.09-.093-.05-.037-.044-.02-.096-.02-.098.033-.055.018-.052.038-.055.04-.052.054-.11.132-.06.082-.055.1-.006.227-.014.446-.007.44-.004.434.003.428.003.414.012.414.013.403.025.396.02.384.03.377.03.37.04.365.04.35.048.347.052.34.058.332.056.314.065.314.065.302.077.3.072.29.082.284.086.27.095.27.094.25.1.253.103.24.11.237.112.22.117.22.12.207.132.21v-.007h.025v-.006h.024l.014-.018.01-.014.056-.2.052-.202.044-.214.042-.22.036-.233.03-.24.01-.125.015-.12.023-.25.013-.27.01-.277v-.145l.005-.14.004-.287-.007-.302-.008-.307-.014-.32-.01-.165-.006-.157-.126-.558-.114-.565-.11-.572-.1-.58-.1-.59-.094-.597-.09-.605z"/>
            <path id="Shape" fill="#CDCDCE" d="M41.923 25.002h-.06l-.005.05v.056h-.003v.094l-.014.076-.006.013h-.004v.019l-.007.037h-.01v.007l-.007.012-.014.026h-.01v.006l-.007.012-.013.02-.022.005h-.01l-.007.007h-.025l-.02.006.01.08.018.083.02.07.032.063.03.044.042.038.042.03.05.027.123.006-.004-.057-.005-.05-.02-.08-.025-.077-.018-.07-.017-.08-.01-.08-.017-.19z"/>
            <path id="Shape" fill="#D5D5D5" d="M41.203 38.09l-.004-.058-.004-.038-.01-.03-.008-.013-.114-.093-.114-.082-.118-.076-.117-.057.02.09.02.08.02.075.03.07.02.055.028.05.02.044.028.04.023.024.027.02.05.012.02-.006.027-.013.024-.018.03-.026.043-.04z"/>
            <path d="M11.932 25.883h-.04l-.026.013-.022.013-.013.03-.317.635-.306.653-.297.66-.282.685-.278.685-.26.71-.253.724-.244.735.03.144.04.14.05.125.065.12.066.107.085.107.083.092.1.09.072.037.035.005h.036l.063-.025.025-.026.036-.03.107-.158.107-.15.097-.158.103-.15.088-.17.093-.163.04-.09.044-.08.084-.164.037-.094.04-.088.074-.176.014-.05.018-.043.036-.09.07-.182.026-.1.013-.05.017-.045.063-.188.052-.195.053-.194.044-.208.044-.207.036-.213.036-.207.027-.22.013-.114.017-.106.022-.227.008-.113.006-.057.008-.05.013-.24v-.063l.005-.056.01-.114.005-.24.01-.23-.006-.126v-.365l-.01-.252-.008-.245zM11 28.88v-.332l.092-.12.084-.093.067-.082.06-.057.045-.044.018-.018.017-.007.017-.006.01.02-.005.005-.005.02-.017.043-.017.026-.018.037-.02.04-.024.048-.03.045-.03.057-.068.12-.043.06-.04.078-.048.074-.046.088z" id="Shape" fill="#80C9FF" opacity="0.55"/>
            <path id="Shape" fill="#62A1BA" opacity="0.36" d="M11 28.548v.332l.043-.088.05-.074.04-.077.043-.06.067-.12.03-.057.03-.045.024-.05.02-.037.02-.036.017-.026.017-.043.006-.02.005-.006-.01-.02-.016.007-.017.006-.02.02-.043.043-.06.056-.068.082-.084.094z"/>
            <path id="Shape" fill="#62A1BA" d="M15.046 18.567l-.003.045-.006.044-.007.016-.004.023-.006.017-.004.022-.04.082-.04.078-.045.066-.01.012-.008.005-.003.01-.02.034-.05.045-.026.017-.024.022-.052.028-.053.022-.06.005h-.06l-.062-.01-.032-.013-.01-.005h-.019l-.07-.034-.034-.022-.034-.016-.072-.05-.07-.05.166.27.165.284.162.282.158.298.15.3.153.308.148.31.145.326.01.028.01.04.007.037.003.05.072.04.076.05.07.05.07.06.06.06.064.072.112.16.055.095-.06-.304-.072-.293-.043-.145-.046-.137-.1-.26-.118-.31-.104-.298-.097-.3-.078-.292-.072-.3-.056-.29-.05-.295z"/>
            <path id="Shape" fill="#D4D4D4" d="M3.505 16.35h.08l-.022-.24-.022-.226-.048-.446-.062-.434-.067-.408-.044-.208-.044-.195-.094-.383-.106-.37-.11-.346-.133-.346-.137-.32-.15-.31-.08-.15-.08-.137-.177-.283-.094-.138-.088-.126-.195-.246-.102-.118-.096-.108V14.136h.03l.032.007.018.013.013.025.074.183.086.176.084.17.092.168.094.157.102.15.102.146.11.145.11.126.12.127.12.12.127.12.13.1.136.1.142.094z"/>
            <path id="Shape" fill="#80C9FF" opacity="0.71" d="M10.91 40.073l-.004.05-.01.052-.012.038-.013.038-.154.278-.155.275-.158.27-.16.277-.17.264-.163.264-.17.258-.168.258-.177.246-.176.245-.182.24-.026.025-.022.03-.044.065-.09.125-.097.113-.028.025-.02.032-.045.064-.186.232-.19.227-.19.224.058.22.075.22.08.2.092.195.095.175.106.168.11.158.13.143.127.133.137.117.146.107.16.094.163.08.17.078.183.056.194.057.16.012.23.326.23.34.22.34.227.35.217.353.218.365.208.37.213.385.012.018.027.018.03.013.04.006v.358l.012.346.018.34.03.333.032.314.044.308.048.302.063.295.057.276.076.27.075.26.093.256.09.24.102.232.112.22.118.214.05.108.016.057.023.067.01.064.012.076.004.074.004.09.226-.924 2.635 1.31.253-.887.128-.44.14-.428.132-.432.14-.422.29-.836.296-.823-2.082-3.013.01-.05.004-.025.01-.018v-.03l.003-.027.005-.05V44.066l-.04-.006-.026-.007-.02-.018-.012-.013-.123-.316-.122-.3-.13-.302-.123-.29-.135-.295-.133-.284-.138-.282-.132-.27-.146-.278-.14-.263-.3-.522-.154-.256-.153-.246-.314-.484.03-.458.04-.433.053-.422.066-.395.074-.39.084-.365.044-.183.054-.168.11-.334.066-.22.063-.208.05-.207.048-.194.03-.194.032-.188.013-.182.014-.176-.005-.182-.005-.17-.02-.17-.023-.156-.04-.157-.04-.15-.057-.144-.06-.14v-.112l-.126.29-.118.3-.12.308-.105.32-.107.32-.096.34-.098.34-.088.36-.09.35-.08.366-.078.37-.066.383-.067.385-.057.402-.058.4-.048.424h-.04l-.03.014-.032.013-.022.03-.035.032-.032.038-.063.075-.07.07-.036.03-.03.038-.04.028-.036.03-.07.064-.04.026-.036.03-.074.06-.044.017-.04.025-.083.05-.09.038-.043.02-.04.024-.047.012-.045.02-.092.037-.097.033-.048.013z"/>
            <path id="Shape" fill="#BFE4FF" opacity="0.65" d="M15.484 47.507v-.258l-.004-.14v-.4l-.01-.284-.017-.36.005-.225-.005-.15v-.144l-.008-.106-.022-.094.12-.602-.213-.497-.114-.245-.116-.233-.118-.233-.12-.22-.133-.226-.13-.214-.137-.213-.132-.2-.287-.397-.3-.37h-.04l-.03.012-.032.013-.022.032-.292.3-.282.32-.28.323-.27.332-.03.25-.01.12V43.625l.01.107.01.096.017.095.018.082.026.08.027.07.037.07.035.057.045.056.044.05.054.05.26.207.257.233.244.244.116.127.12.137.215.27.107.14.11.15.2.308.198.32.18.333.175.346.08.177.08.188.154.384"/>
            <path id="Shape" fill="#D4D4D4" d="M2.686 46.49l.023-.32.025-.302.01-.15.013-.14.026-.268.018-.265.026-.244.018-.23.027-.216.013-.196.018-.182.008-.182.01-.17v-.318l-.005-.153-.005-.137-.013-.145-.014-.124-.023-.126-.017-.113-.032-.113-.025-.102-.037-.094-.03-.082-.045-.087-.045-.076-.048-.07-.05-.057-.057-.055-.057-.045-.065-.044-.062-.03-.076-.034-.07-.02-.08-.018h-.075l-.09-.006-.083.014-.093.01-.093.026v5.763l.114.012h.095l.017.007.008-.008h.093l.1-.012.087-.026.017-.012.01-.007h.012l.045-.012.037-.025.017-.013.01-.007h.012l.07-.05.058-.062.027-.038.005-.012.01-.007.017-.014.01-.024.003-.013.01-.008.026-.037.045-.088.03-.1v-.02l.005-.012.01-.025.017-.05.01-.064v-.017l.003-.014.01-.025zM3.492 55.15l-.026-.157-.023-.144-.053-.284-.067-.27-.035-.132-.035-.12-.084-.245-.05-.118-.044-.108-.102-.22-.106-.194-.128-.196-.13-.17-.14-.156-.146-.146-.164-.13-.164-.12-.18-.107-.094-.05-.088-.038-.045.232-.036.225-.03.22-.02.214-.016.2-.01.194-.004.184.005.182.003.162.013.164.018.15.03.146.033.13.04.128.043.112.058.113.053.095.063.093.066.083.078.075.076.064.09.056.092.05.102.045.1.025.11.026.117.012.127.012.13-.006.136-.006.142-.02.15-.024.076-.013h.08L3.5 55.26z"/>
            <path id="Shape" fill="#62A1BA" d="M15.99 36.53v-.007h.03v-.006h.033l.012-.013.013-.013.034-.22.01-.1.01-.087v-.094l-.006-.083-.008-.076-.01-.06-.02-.07-.023-.057-.027-.056-.03-.044-.04-.045-.04-.03-.045-.032-.05-.02-.008.145v.14l.005.125.018.126.013.108.028.1.026.095.04.088.026.083zM15.99 38.968v.22-.006h.03l.032-.013.007-.014v-.006H16.072l.018-.018.046-.114.04-.106.03-.108.032-.093.016-.094.014-.087.005-.09v-.075l-.014-.083-.018-.074-.023-.07-.03-.062-.04-.063-.05-.057-.053-.057-.058-.044z"/>
            <path d="M40.968 48.178l1.677-1.844 1.305-2.95 2.225-2.328s.352-2.886 0-3.695c-.35-.807-1.634-4.156-2.1-4.387-.47-.23-3.154-2.887-3.154-2.887l1.52 6.12-.702 3.003-.466 1.73 1.167 2.195-1.472 5.043z" id="Shape" fill="#80C9FF"/>
            <path id="Shape" fill="#BFE4FF" opacity="0.65" d="M44.728 38.935l.29.3.285.322.28.32.268.334.032.252.01.12V40.808l-.01.107-.01.094-.016.092-.018.083-.026.08-.026.07-.036.07-.036.057-.044.055-.044.05-.053.05-.262.21-.254.232-.244.243-.115.126-.12.138-.216.27-.105.138-.11.15-.2.31-.2.32-.18.332-.173.346-.08.176-.08.188-.155.384-.137.397-.13.406-.06.208-.062.22-.114.446-.005-.22v-.2l-.01-.21-.005-.212-.008-.214v-.347l-.005-.112v-.24l-.004-.238.004-.04v-.475l.005-.14v-.4l.008-.284.005-.29.01-.295.004-.15v-.146l.008-.107.022-.095.2-.52.212-.498.114-.245.116-.233.12-.232.12-.22.132-.226.128-.214.137-.214.132-.2.288-.398.3-.37h.04l.03.013.032.013z"/>
            <path id="Shape" fill="url(#radialGradient-3)" opacity="0.2" d="M57.54 17.766L35.735 45.43 55.47 10.953l-20.956 33.58 16.06-36.737-17.363 36.005L45.328 5.255 31.833 43.237l7.955-39.852-9.4 39.467 3.63-40.618L28.87 42.65l-.786-40.806L27.5 42.64 23.376 2.09l2.818 40.688-7.8-39.884 6.464 40.18-11.93-38.616 10.565 39.1-15.8-36.876 14.49 37.53L2.73 9.542l18.218 35.483L.308 16.092v.263l19.485 29.64L.31 24.212v.593l18.428 22.3L.308 30.678v.768l17.493 16.896L.31 36.074v.86l16.685 12.757L.31 40.757v.913l16.02 9.465-16.02-6.17v.94l15.512 6.75L.31 48.863v.972L15.47 54.26.31 52.6v1.002l14.98 2.335-14.98.357v.516h57.23v-.353l-16.653-.292L57.54 54.09v-.797l-16.778 1.424 16.78-4.024v-.817L40.49 53.24l17.05-6.453v-.846L40.057 51.73 57.54 42.55v-.82l-18.07 8.553 18.07-12.43v-.774L38.73 48.91l18.81-16.436v-.693l-19.684 15.85L57.54 26.056v-.54l-20.69 20.95 20.69-28.442z"/>
            <path d="M35.786 23.656c-1.89-1.87-2.756-2.763-2.756-2.763l-1.627-1.042-.057-.05-.74-.475-.633-.03-.18-1.212s-.568-1.34-1.568-1.482c-1-.14-1.783.92-1.925 1.34-.105.312-.592 1.076-.845 1.462l.075-.473-.023-3.645-.403.006-.07.244v2.9l-.22 1.237-.44.035-.028.16c-.34-.11-.732-.168-1.084-.04-.674.243-.965 1.046-.874 2.377-.194.26-.347.56-.368.89-.072 1.06-.786.706-.786.706l-.428.564-.143 1.128s.307.988 1.794.988v1.34s-.013 1.977 1.2 3.174l.357.565 1.212.21s-.07 3.388.5 5.293c0 0 .5 1.976 1.14 2.47l.5 1.552-.285.776s-.142 1.693.144 3.527c0 0 0 1.06.928 1.06s.57-.213.57-1.342c0-1.128.144-1.482.144-1.482l.356 1.765s.5 1.2 1.213 1.06c.712-.143.784-.848.5-2.048-.286-1.2-.43-1.904-.43-1.904s-.43-.846-1.213-1.41l-.142-1.27-.5-1.623.144-1.836.356-1.975s1.568 2.82 1.354 3.667l-.428.635-.57 1.41s1.14.282 1.998-.634c0 0 .285.847 1.212.988 0 0 .928-.564.785-1.128-.142-.564-.285-1.2-.285-1.2l.286-.918-.142-.706.214-.494-.714-1.127-.215-2.33-.214-.845.356-1.128s.714.07 1.213-.424c.498-.494.07-.918.498-1.34.43-.425 1.284-1.694 1.284-1.694s1.895-1.587.004-3.456zm-12.34-2.398s-.336.193-.683.517c-.004-.814.176-1.346.533-1.543.288-.157.667-.094.986.017l-.05.3-.785.708zm10.546 4.867c-.264.55-.25.46-.25.46l-.272-.022-.164-.22c-.015-.02-.178-.408-.15-.423.03-.013-.004-.184-.004-.212 0-.03.05-.346.05-.346s-.365-.34-.402-.376c-.035-.034-.36-.622-.36-.622s-.22-.395-.227-.458c-.007-.065.22-.29.22-.29s.437.246.495.353c.057.105 1.007 1.066 1.007 1.066s.322.538.057 1.09z" id="Shape" fill="#000"/>
            <ellipse id="Oval" fill="#000" opacity="0.5" cx="23.267246" cy="16.9908595" rx="1" ry="1"/>
            <ellipse id="Oval" fill="#000" opacity="0.73" cx="23.4041972" cy="12.2275781" rx="1" ry="1"/>
            <ellipse id="Oval" fill="#000" opacity="0.5" cx="22.6679277" cy="14.7521297" rx="1" ry="1"/>
            <ellipse id="Oval" fill="#000" opacity="0.5" cx="22.6679277" cy="9.89750962" rx="1" ry="1"/>
            <ellipse id="Oval" fill="#000" opacity="0.73" cx="21.8311436" cy="15.8575142" rx="1" ry="1"/>
            <g id="Shape" fill="#102B40">
              <path d="M.148.08v57.457H58.24V.08H.148zM54.57 3.71v50.197H3.818V3.71h50.754z"/>
              <path d="M3.555 3.45v50.717h51.278V3.45H3.555zm50.754.52v49.677H4.08V3.97h50.23z"/>
            </g>
            <path d="M3.463 54.306V3.314h51.554V54.307H3.463zm51.107-.442v-.443.444zM4.36 53.42h49.763V4.2H4.358v49.22z" id="Shape" fill="#FFF"/>
          </g>
        </g>
      </g>
    </g>
  </g>
</svg>
