<?xml version="1.0" encoding="UTF-8" standalone="no"?>
<!DOCTYPE svg PUBLIC "-//W3C//DTD SVG 1.1//EN" "http://www.w3.org/Graphics/SVG/1.1/DTD/svg11.dtd">
<svg width="100%" height="100%" viewBox="0 0 991 618" version="1.1" xmlns="http://www.w3.org/2000/svg" xmlns:xlink="http://www.w3.org/1999/xlink" xml:space="preserve" style="fill-rule:evenodd;clip-rule:evenodd;stroke-linejoin:round;stroke-miterlimit:10;">
    <g id="ArtBoard1" transform="matrix(1,0,0,0.980466,-20.1108,-26.3295)">
        <rect x="20.111" y="26.854" width="990.511" height="629.527" style="fill:none;"/>
        <g transform="matrix(1,0,0,1.01992,0,-13.0773)">
            <path d="M112.278,369.156L106.278,369.156L106.278,366.156L112.278,366.156L112.278,369.156ZM124.278,369.156L118.278,369.156L118.278,366.156L124.278,366.156L124.278,369.156ZM136.278,369.156L130.278,369.156L130.278,366.156L136.278,366.156L136.278,369.156ZM148.278,369.156L142.278,369.156L142.278,366.156L148.278,366.156L148.278,369.156ZM160.278,369.156L154.278,369.156L154.278,366.156L160.278,366.156L160.278,369.156ZM172.278,369.156L166.278,369.156L166.278,366.156L172.278,366.156L172.278,369.156ZM184.278,369.156L178.278,369.156L178.278,366.156L184.278,366.156L184.278,369.156ZM196.278,369.156L190.278,369.156L190.278,366.156L196.278,366.156L196.278,369.156ZM208.278,369.156L202.278,369.156L202.278,366.156L208.278,366.156L208.278,369.156ZM220.278,369.156L214.278,369.156L214.278,366.156L220.278,366.156L220.278,369.156ZM232.278,369.156L226.278,369.156L226.278,366.156L232.278,366.156L232.278,369.156ZM244.278,369.156L238.278,369.156L238.278,366.156L244.278,366.156L244.278,369.156ZM256.278,369.156L250.278,369.156L250.278,366.156L256.278,366.156L256.278,369.156ZM268.278,369.156L262.278,369.156L262.278,366.156L268.278,366.156L268.278,369.156ZM280.278,369.156L274.278,369.156L274.278,366.156L280.278,366.156L280.278,369.156ZM292.278,369.156L286.278,369.156L286.278,366.156L292.278,366.156L292.278,369.156ZM304.278,369.156L298.278,369.156L298.278,366.156L304.278,366.156L304.278,369.156ZM316.278,369.156L310.278,369.156L310.278,366.156L316.278,366.156L316.278,369.156ZM328.278,369.156L322.278,369.156L322.278,366.156L328.278,366.156L328.278,369.156ZM340.278,369.156L334.278,369.156L334.278,366.156L340.278,366.156L340.278,369.156ZM352.278,369.156L346.278,369.156L346.278,366.156L352.278,366.156L352.278,369.156ZM364.278,369.156L358.278,369.156L358.278,366.156L364.278,366.156L364.278,369.156ZM376.278,369.156L370.278,369.156L370.278,366.156L376.278,366.156L376.278,369.156ZM388.278,369.156L382.278,369.156L382.278,366.156L388.278,366.156L388.278,369.156ZM400.278,369.156L394.278,369.156L394.278,366.156L400.278,366.156L400.278,369.156ZM412.278,369.156L406.278,369.156L406.278,366.156L412.278,366.156L412.278,369.156ZM424.278,369.156L418.278,369.156L418.278,366.156L424.278,366.156L424.278,369.156ZM436.278,369.156L430.278,369.156L430.278,366.156L436.278,366.156L436.278,369.156ZM448.278,369.156L442.278,369.156L442.278,366.156L448.278,366.156L448.278,369.156ZM460.278,369.156L454.278,369.156L454.278,366.156L460.278,366.156L460.278,369.156ZM472.278,369.156L466.278,369.156L466.278,366.156L472.278,366.156L472.278,369.156ZM484.278,369.156L478.278,369.156L478.278,366.156L484.278,366.156L484.278,369.156ZM496.278,369.156L490.278,369.156L490.278,366.156L496.278,366.156L496.278,369.156ZM508.278,369.156L502.278,369.156L502.278,366.156L508.278,366.156L508.278,369.156ZM520.278,369.156L514.278,369.156L514.278,366.156L520.278,366.156L520.278,369.156ZM532.278,369.156L526.278,369.156L526.278,366.156L532.278,366.156L532.278,369.156ZM544.278,369.156L538.278,369.156L538.278,366.156L544.278,366.156L544.278,369.156ZM556.278,369.156L550.278,369.156L550.278,366.156L556.278,366.156L556.278,369.156ZM568.278,369.156L562.278,369.156L562.278,366.156L568.278,366.156L568.278,369.156ZM580.278,369.156L574.278,369.156L574.278,366.156L580.278,366.156L580.278,369.156ZM592.278,369.156L586.278,369.156L586.278,366.156L592.278,366.156L592.278,369.156ZM604.278,369.156L598.278,369.156L598.278,366.156L604.278,366.156L604.278,369.156ZM616.278,369.156L610.278,369.156L610.278,366.156L616.278,366.156L616.278,369.156ZM628.278,369.156L622.278,369.156L622.278,366.156L628.278,366.156L628.278,369.156ZM640.278,369.156L634.278,369.156L634.278,366.156L640.278,366.156L640.278,369.156ZM652.278,369.156L646.278,369.156L646.278,366.156L652.278,366.156L652.278,369.156ZM664.278,369.156L658.278,369.156L658.278,366.156L664.278,366.156L664.278,369.156ZM676.278,369.156L670.278,369.156L670.278,366.156L676.278,366.156L676.278,369.156ZM688.278,369.156L682.278,369.156L682.278,366.156L688.278,366.156L688.278,369.156ZM700.278,369.156L694.278,369.156L694.278,366.156L700.278,366.156L700.278,369.156ZM712.278,369.156L706.278,369.156L706.278,366.156L712.278,366.156L712.278,369.156ZM724.278,369.156L718.278,369.156L718.278,366.156L724.278,366.156L724.278,369.156ZM736.278,369.156L730.278,369.156L730.278,366.156L736.278,366.156L736.278,369.156ZM748.278,369.156L742.278,369.156L742.278,366.156L748.278,366.156L748.278,369.156ZM760.278,369.156L754.278,369.156L754.278,366.156L760.278,366.156L760.278,369.156ZM772.278,369.156L766.278,369.156L766.278,366.156L772.278,366.156L772.278,369.156ZM784.278,369.156L778.278,369.156L778.278,366.156L784.278,366.156L784.278,369.156ZM796.278,369.156L790.278,369.156L790.278,366.156L796.278,366.156L796.278,369.156ZM808.278,369.156L802.278,369.156L802.278,366.156L808.278,366.156L808.278,369.156ZM820.278,369.156L814.278,369.156L814.278,366.156L820.278,366.156L820.278,369.156ZM832.278,369.156L826.278,369.156L826.278,366.156L832.278,366.156L832.278,369.156ZM844.278,369.156L838.278,369.156L838.278,366.156L844.278,366.156L844.278,369.156ZM856.278,369.156L850.278,369.156L850.278,366.156L856.278,366.156L856.278,369.156ZM868.278,369.156L862.278,369.156L862.278,366.156L868.278,366.156L868.278,369.156ZM880.278,369.156L874.278,369.156L874.278,366.156L880.278,366.156L880.278,369.156ZM892.278,369.156L886.278,369.156L886.278,366.156L892.278,366.156L892.278,369.156ZM904.278,369.156L898.278,369.156L898.278,366.156L904.278,366.156L904.278,369.156ZM916.278,369.156L910.278,369.156L910.278,366.156L916.278,366.156L916.278,369.156ZM928.278,369.156L922.278,369.156L922.278,366.156L928.278,366.156L928.278,369.156Z"/>
        </g>
        <g transform="matrix(1,0,0,1.01992,0,-13.0773)">
            <path d="M931.722,374.256L942.722,367.656L931.722,361.056M931.722,367.656L942.722,367.656" style="fill:none;stroke:black;stroke-width:3px;"/>
        </g>
        <g transform="matrix(1,0,0,1.01992,0,-13.0773)">
            <path d="M102.278,373.156C99.24,373.156 96.778,370.694 96.778,367.656C96.778,364.619 99.24,362.156 102.278,362.156C105.315,362.156 107.778,364.619 107.778,367.656C107.778,370.694 105.315,373.156 102.278,373.156Z" style="fill-rule:nonzero;"/>
        </g>
        <g transform="matrix(1,0,0,1.01992,0,-13.0773)">
            <rect x="253.573" y="270.656" width="61.811" height="31.101" style="fill:rgb(240,60,130);fill-rule:nonzero;"/>
        </g>
        <g transform="matrix(1,0,0,1.01992,0,-13.0773)">
            <clipPath id="_clip1">
                <rect x="252.573" y="269.656" width="4" height="99.878"/>
            </clipPath>
            <g clip-path="url(#_clip1)">
                <path d="M254.573,368.534L254.573,270.656" style="fill:none;stroke:rgb(240,60,130);stroke-opacity:0.501961;stroke-width:2px;stroke-linejoin:miter;stroke-miterlimit:4;"/>
            </g>
        </g>
        <g transform="matrix(1,0,0,1.01992,0,-13.0773)">
            <rect x="370.573" y="234.561" width="61.811" height="31.101" style="fill:rgb(240,60,130);fill-rule:nonzero;"/>
        </g>
        <g transform="matrix(1,0,0,1.01992,0,-13.0773)">
            <clipPath id="_clip2">
                <rect x="369.573" y="233.561" width="4" height="135.299"/>
            </clipPath>
            <g clip-path="url(#_clip2)">
                <path d="M371.573,367.861L371.573,234.561" style="fill:none;stroke:rgb(240,60,130);stroke-opacity:0.501961;stroke-width:2px;stroke-linejoin:miter;stroke-miterlimit:4;"/>
            </g>
        </g>
        <g transform="matrix(1,0,0,1.01992,0,-13.0773)">
            <rect x="493.095" y="311.576" width="61.811" height="31.101" style="fill:rgb(240,60,130);fill-rule:nonzero;"/>
        </g>
        <g transform="matrix(1,0,0,1.01992,0,-13.0773)">
            <clipPath id="_clip3">
                <rect x="492.095" y="310.576" width="4" height="57.078"/>
            </clipPath>
            <g clip-path="url(#_clip3)">
                <path d="M494.095,366.654L494.095,311.576" style="fill:none;stroke:rgb(240,60,130);stroke-opacity:0.501961;stroke-width:2px;stroke-linejoin:miter;stroke-miterlimit:4;"/>
            </g>
        </g>
        <g transform="matrix(1,0,0,1.01992,0,-13.0773)">
            <rect x="612.889" y="255.626" width="61.811" height="31.101" style="fill:rgb(240,60,130);fill-rule:nonzero;"/>
        </g>
        <g transform="matrix(1,0,0,1.01992,0,-13.0773)">
            <clipPath id="_clip4">
                <rect x="611.889" y="254.626" width="4" height="115.239"/>
            </clipPath>
            <g clip-path="url(#_clip4)">
                <path d="M613.889,368.865L613.889,255.626" style="fill:none;stroke:rgb(240,60,130);stroke-opacity:0.501961;stroke-width:2px;stroke-linejoin:miter;stroke-miterlimit:4;"/>
            </g>
        </g>
        <g transform="matrix(1,0,0,1.01992,0,-13.0773)">
            <rect x="296.461" y="474.355" width="151.566" height="70.208" style="fill:rgb(0,175,37);fill-rule:nonzero;"/>
        </g>
        <g transform="matrix(1,0,0,1.01992,0,-13.0773)">
            <clipPath id="_clip5">
                <rect x="295.461" y="367.656" width="4" height="177.906"/>
            </clipPath>
            <g clip-path="url(#_clip5)">
                <path d="M297.461,544.563L297.461,368.656" style="fill:none;stroke:rgb(0,175,37);stroke-opacity:0.501961;stroke-width:2px;stroke-linejoin:miter;stroke-miterlimit:4;"/>
            </g>
        </g>
        <g transform="matrix(1,0,0,1.01992,0,-13.0773)">
            <rect x="338.223" y="58.274" width="158.254" height="70.208" style="fill:rgb(77,73,228);fill-rule:nonzero;"/>
        </g>
        <g transform="matrix(1,0,0,1.01992,0,-13.0773)">
            <clipPath id="_clip6">
                <rect x="337.223" y="57.274" width="4" height="309.846"/>
            </clipPath>
            <g clip-path="url(#_clip6)">
                <path d="M339.223,366.12L339.223,58.274" style="fill:none;stroke:rgb(77,73,228);stroke-opacity:0.501961;stroke-width:2px;stroke-linejoin:miter;stroke-miterlimit:4;"/>
            </g>
        </g>
        <g transform="matrix(1,0,0,1.01992,0,-13.0773)">
            <clipPath id="_clip7">
                <rect x="143.447" y="152.737" width="4" height="214.382"/>
            </clipPath>
            <g clip-path="url(#_clip7)">
                <path d="M145.447,366.12L145.447,153.737" style="fill:none;stroke:rgb(240,60,130);stroke-opacity:0.501961;stroke-width:2px;stroke-linejoin:miter;stroke-miterlimit:4;"/>
            </g>
        </g>
        <g transform="matrix(1,0,0,1.01992,0,-13.0773)">
            <rect x="146.447" y="153.737" width="139.531" height="70.208" style="fill:rgb(240,60,130);fill-rule:nonzero;"/>
        </g>
        <g transform="matrix(1,0,0,1.01992,0,-13.0773)">
            <rect x="434.477" y="173.546" width="62" height="31" style="fill:rgb(77,73,228);fill-rule:nonzero;"/>
        </g>
        <g transform="matrix(1,0,0,1.01992,0,-13.0773)">
            <clipPath id="_clip8">
                <rect x="433.477" y="172.546" width="4" height="195.817"/>
            </clipPath>
            <g clip-path="url(#_clip8)">
                <path d="M435.477,367.363L435.477,173.546" style="fill:none;stroke:rgb(77,73,228);stroke-opacity:0.501961;stroke-width:2px;stroke-linejoin:miter;stroke-miterlimit:4;"/>
            </g>
        </g>
        <g transform="matrix(1,0,0,1.01992,0,-13.0773)">
            <rect x="175.8" y="556.601" width="146.703" height="70.208" style="fill:rgb(149,45,209);fill-rule:nonzero;"/>
        </g>
        <g transform="matrix(1,0,0,1.01992,0,-13.0773)">
            <text x="32px" y="391px" style="font-family:'MyriadPro-Regular', 'Myriad Pro', sans-serif;font-size:80px;">A</text>
        </g>
        <g transform="matrix(1,0,0,1.01992,0,-13.0773)">
            <text x="949.84px" y="390.656px" style="font-family:'MyriadPro-Regular', 'Myriad Pro', sans-serif;font-size:80px;">B</text>
        </g>
        <g transform="matrix(1,0,0,1.01992,0,-13.0773)">
            <text x="307px" y="517px" style="font-family:'MyriadPro-Regular', 'Myriad Pro', sans-serif;font-size:28px;fill:white;">W<tspan x="329.764px 345.136px 354.404px " y="517px 517px 517px ">ork</tspan>shops</text>
        </g>
        <g transform="matrix(1,0,0,1.01992,0,-13.0773)">
            <text x="361px" y="101px" style="font-family:'MyriadPro-Regular', 'Myriad Pro', sans-serif;font-size:28px;fill:white;">F<tspan x="373.768px " y="101px ">e</tspan>edback</text>
        </g>
        <g transform="matrix(1,0,0,1.01992,0,-13.0773)">
            <text x="166px" y="196px" style="font-family:'MyriadPro-Regular', 'Myriad Pro', sans-serif;font-size:28px;fill:white;">V<tspan x="180.7px 196.072px 205.9px 215.168px 224.184px " y="196px 196px 196px 196px 196px ">orträ</tspan>ge</text>
        </g>
        <g transform="matrix(1,0,0,1.01992,0,-13.0773)">
            <text x="196px" y="599px" style="font-family:'MyriadPro-Regular', 'Myriad Pro', sans-serif;font-size:28px;fill:white;">T<tspan x="208.656px 217.672px " y="599px 599px ">ra</tspan>inings</text>
        </g>
        <g transform="matrix(1,0,0,1.01992,0,-13.0773)">
            <clipPath id="_clip9">
                <rect x="174.8" y="367.486" width="4" height="260.323"/>
            </clipPath>
            <g clip-path="url(#_clip9)">
                <path d="M176.8,626.809L176.8,368.486" style="fill:none;stroke:rgb(149,45,209);stroke-opacity:0.501961;stroke-width:2px;stroke-linejoin:miter;stroke-miterlimit:4;"/>
            </g>
        </g>
        <g transform="matrix(1,0,0,1.01992,0,-13.0773)">
            <rect x="216" y="444.355" width="62" height="31" style="fill:rgb(149,45,209);fill-rule:nonzero;"/>
        </g>
        <g transform="matrix(1,0,0,1.01992,0,-13.0773)">
            <clipPath id="_clip10">
                <rect x="215" y="365.482" width="4" height="110.081"/>
            </clipPath>
            <g clip-path="url(#_clip10)">
                <path d="M217,474.563L217,366.482" style="fill:none;stroke:rgb(149,45,209);stroke-opacity:0.501961;stroke-width:2px;stroke-linejoin:miter;stroke-miterlimit:4;"/>
            </g>
        </g>
        <g transform="matrix(1,0,0,1.01992,0,-13.0773)">
            <rect x="377.989" y="415.654" width="61.811" height="40.16" style="fill:rgb(0,175,37);fill-rule:nonzero;"/>
        </g>
        <g transform="matrix(1,0,0,1.01992,0,-13.0773)">
            <clipPath id="_clip11">
                <rect x="376.989" y="366.496" width="4" height="90.318"/>
            </clipPath>
            <g clip-path="url(#_clip11)">
                <path d="M378.989,455.814L378.989,367.496" style="fill:none;stroke:rgb(0,175,37);stroke-opacity:0.501961;stroke-width:2px;stroke-linejoin:miter;stroke-miterlimit:4;"/>
            </g>
        </g>
        <g transform="matrix(1,0,0,1.01992,0,-13.0773)">
            <rect x="581.415" y="136.84" width="62" height="31" style="fill:rgb(77,73,228);fill-rule:nonzero;"/>
        </g>
        <g transform="matrix(1,0,0,1.01992,0,-13.0773)">
            <clipPath id="_clip12">
                <rect x="580.415" y="135.84" width="4" height="228.671"/>
            </clipPath>
            <g clip-path="url(#_clip12)">
                <path d="M582.415,363.51L582.415,136.84" style="fill:none;stroke:rgb(77,73,228);stroke-opacity:0.501961;stroke-width:2px;stroke-linejoin:miter;stroke-miterlimit:4;"/>
            </g>
        </g>
        <g transform="matrix(1,0,0,1.01992,0,-13.0773)">
            <rect x="710.477" y="216.84" width="62" height="31" style="fill:rgb(77,73,228);fill-rule:nonzero;"/>
        </g>
        <g transform="matrix(1,0,0,1.01992,0,-13.0773)">
            <clipPath id="_clip13">
                <rect x="709.477" y="215.84" width="4" height="151.555"/>
            </clipPath>
            <g clip-path="url(#_clip13)">
                <path d="M711.477,366.394L711.477,216.839" style="fill:none;stroke:rgb(77,73,228);stroke-opacity:0.501961;stroke-width:2px;stroke-linejoin:miter;stroke-miterlimit:4;"/>
            </g>
        </g>
        <g transform="matrix(1,0,0,1.01992,0,-13.0773)">
            <rect x="859.477" y="252.816" width="62" height="31" style="fill:rgb(77,73,228);fill-rule:nonzero;"/>
        </g>
        <g transform="matrix(1,0,0,1.01992,0,-13.0773)">
            <clipPath id="_clip14">
                <rect x="858.477" y="251.816" width="4" height="114.703"/>
            </clipPath>
            <g clip-path="url(#_clip14)">
                <path d="M860.477,365.519L860.477,252.816" style="fill:none;stroke:rgb(77,73,228);stroke-opacity:0.501961;stroke-width:2px;stroke-linejoin:miter;stroke-miterlimit:4;"/>
            </g>
        </g>
        <g transform="matrix(1,0,0,1.01992,0,-13.0773)">
            <rect x="481.095" y="441.226" width="61.811" height="40.16" style="fill:rgb(0,175,37);fill-rule:nonzero;"/>
        </g>
        <g transform="matrix(1,0,0,1.01992,0,-13.0773)">
            <clipPath id="_clip15">
                <rect x="480.095" y="368.516" width="4" height="113.87"/>
            </clipPath>
            <g clip-path="url(#_clip15)">
                <path d="M482.095,481.386L482.095,369.516" style="fill:none;stroke:rgb(0,175,37);stroke-opacity:0.501961;stroke-width:2px;stroke-linejoin:miter;stroke-miterlimit:4;"/>
            </g>
        </g>
        <g transform="matrix(1,0,0,1.01992,0,-13.0773)">
            <rect x="596.146" y="415.814" width="61.811" height="40.16" style="fill:rgb(0,175,37);fill-rule:nonzero;"/>
        </g>
        <g transform="matrix(1,0,0,1.01992,0,-13.0773)">
            <clipPath id="_clip16">
                <rect x="595.146" y="366.656" width="4" height="90.318"/>
            </clipPath>
            <g clip-path="url(#_clip16)">
                <path d="M597.146,455.974L597.146,367.656" style="fill:none;stroke:rgb(0,175,37);stroke-opacity:0.501961;stroke-width:2px;stroke-linejoin:miter;stroke-miterlimit:4;"/>
            </g>
        </g>
        <g transform="matrix(1,0,0,1.01992,0,-13.0773)">
            <rect x="674.7" y="545.805" width="61.811" height="40.16" style="fill:rgb(0,175,37);fill-rule:nonzero;"/>
        </g>
        <g transform="matrix(1,0,0,1.01992,0,-13.0773)">
            <clipPath id="_clip17">
                <rect x="673.7" y="366.582" width="4" height="220.383"/>
            </clipPath>
            <g clip-path="url(#_clip17)">
                <path d="M675.7,585.965L675.7,367.582" style="fill:none;stroke:rgb(0,175,37);stroke-opacity:0.501961;stroke-width:2px;stroke-linejoin:miter;stroke-miterlimit:4;"/>
            </g>
        </g>
        <g transform="matrix(1,0,0,1.01992,0,-13.0773)">
            <rect x="733.918" y="462.973" width="61.811" height="40.16" style="fill:rgb(0,175,37);fill-rule:nonzero;"/>
        </g>
        <g transform="matrix(1,0,0,1.01992,0,-13.0773)">
            <clipPath id="_clip18">
                <rect x="732.918" y="365.554" width="4" height="138.58"/>
            </clipPath>
            <g clip-path="url(#_clip18)">
                <path d="M734.918,503.133L734.918,366.554" style="fill:none;stroke:rgb(0,175,37);stroke-opacity:0.501961;stroke-width:2px;stroke-linejoin:miter;stroke-miterlimit:4;"/>
            </g>
        </g>
        <g transform="matrix(1,0,0,1.01992,0,-13.0773)">
            <rect x="464.136" y="554.647" width="62" height="31" style="fill:rgb(149,45,209);fill-rule:nonzero;"/>
        </g>
        <g transform="matrix(1,0,0,1.01992,0,-13.0773)">
            <clipPath id="_clip19">
                <rect x="463.136" y="366.865" width="4" height="218.99"/>
            </clipPath>
            <g clip-path="url(#_clip19)">
                <path d="M465.136,584.855L465.136,367.865" style="fill:none;stroke:rgb(149,45,209);stroke-opacity:0.501961;stroke-width:2px;stroke-linejoin:miter;stroke-miterlimit:4;"/>
            </g>
        </g>
        <g transform="matrix(1,0,0,1.01992,0,-13.0773)">
            <rect x="565.146" y="488.547" width="62" height="31" style="fill:rgb(149,45,209);fill-rule:nonzero;"/>
        </g>
        <g id="Trimmen" transform="matrix(1,0,0,1.01992,0,-13.0773)">
            <clipPath id="_clip20">
                <rect x="564.146" y="367.019" width="4" height="152.736"/>
            </clipPath>
            <g clip-path="url(#_clip20)">
                <path d="M566.146,518.755L566.146,368.019" style="fill:none;stroke:rgb(149,45,209);stroke-opacity:0.501961;stroke-width:2px;stroke-linejoin:miter;stroke-miterlimit:4;"/>
            </g>
        </g>
    </g>
</svg>
