<?xml version="1.0" encoding="utf-8"?>
<!-- Generator: Adobe Illustrator 15.0.2, SVG Export Plug-In . SVG Version: 6.00 Build 0)  -->
<!DOCTYPE svg PUBLIC "-//W3C//DTD SVG 1.1//EN" "http://www.w3.org/Graphics/SVG/1.1/DTD/svg11.dtd">
<svg version="1.1" id="Ebene_1" xmlns="http://www.w3.org/2000/svg" xmlns:xlink="http://www.w3.org/1999/xlink" x="0px" y="0px"
	 width="816.85px" height="203.85px" viewBox="-144.35 1.15 816.85 203.85" enable-background="new -144.35 1.15 816.85 203.85"
	 xml:space="preserve">
<g>
	
		<polyline fill="none" stroke="#FFFFFF" stroke-width="0.7" stroke-linecap="round" stroke-linejoin="round" stroke-miterlimit="10" stroke-dasharray="8,5" points="
		-144,1.5 -144,12.5 -144,26.5 	"/>
	<text transform="matrix(1 0 0 1 -140.1721 26)"><tspan x="0" y="0" fill="#DD1166" font-family="'MyriadPro-Regular'" font-size="16">P</tspan><tspan x="8.432" y="0" fill="#DD1166" font-family="'MyriadPro-Regular'" font-size="16">r</tspan><tspan x="13.504" y="0" fill="#DD1166" font-family="'MyriadPro-Regular'" font-size="16">o</tspan><tspan x="22.288" y="0" fill="#DD1166" font-family="'MyriadPro-Regular'" font-size="16">t</tspan><tspan x="27.488" y="0" fill="#DD1166" font-family="'MyriadPro-Regular'" font-size="16">okoll</tspan></text>
	
		<line fill="none" stroke="#FFFFFF" stroke-width="0.7" stroke-linecap="round" stroke-linejoin="round" stroke-miterlimit="10" stroke-dasharray="8,5" x1="-69.047" y1="1.5" x2="-69.047" y2="51.5"/>
	
		<line fill="none" stroke="#FFFFFF" stroke-width="0.7" stroke-linecap="round" stroke-linejoin="round" stroke-miterlimit="10" stroke-dasharray="8,5" x1="-15.081" y1="1.5" x2="-15.081" y2="76.5"/>
	<text transform="matrix(1 0 0 1 -9.7542 76)"><tspan x="0" y="0" fill="#DD1166" font-family="'MyriadPro-Regular'" font-size="16">P</tspan><tspan x="8.256" y="0" fill="#DD1166" font-family="'MyriadPro-Regular'" font-size="16">ass</tspan><tspan x="28.64" y="0" fill="#DD1166" font-family="'MyriadPro-Regular'" font-size="16">w</tspan><tspan x="40.256" y="0" fill="#DD1166" font-family="'MyriadPro-Regular'" font-size="16">o</tspan><tspan x="49.04" y="0" fill="#DD1166" font-family="'MyriadPro-Regular'" font-size="16">r</tspan><tspan x="54.655" y="0" fill="#DD1166" font-family="'MyriadPro-Regular'" font-size="16">t</tspan></text>
	
		<line fill="none" stroke="#FFFFFF" stroke-width="0.7" stroke-linecap="round" stroke-linejoin="round" stroke-miterlimit="10" stroke-dasharray="8,5" x1="60.871" y1="1.5" x2="60.871" y2="101.5"/>
	<text transform="matrix(1 0 0 1 66.198 101)"><tspan x="0" y="0" fill="#DD1166" font-family="'MyriadPro-Regular'" font-size="16">D</tspan><tspan x="10.88" y="0" fill="#DD1166" font-family="'MyriadPro-Regular'" font-size="16">omain</tspan></text>
	
		<line fill="none" stroke="#FFFFFF" stroke-width="0.7" stroke-linecap="round" stroke-linejoin="round" stroke-miterlimit="10" stroke-dasharray="8,5" x1="192.788" y1="1.5" x2="192.788" y2="126.5"/>
	<text transform="matrix(1 0 0 1 198.1145 126)"><tspan x="0" y="0" fill="#DD1166" font-family="'MyriadPro-Regular'" font-size="16">P</tspan><tspan x="8.288" y="0" fill="#DD1166" font-family="'MyriadPro-Regular'" font-size="16">o</tspan><tspan x="17.072" y="0" fill="#DD1166" font-family="'MyriadPro-Regular'" font-size="16">r</tspan><tspan x="22.688" y="0" fill="#DD1166" font-family="'MyriadPro-Regular'" font-size="16">t</tspan></text>
	
		<line fill="none" stroke="#FFFFFF" stroke-width="0.7" stroke-linecap="round" stroke-linejoin="round" stroke-miterlimit="10" stroke-dasharray="8,5" x1="222.769" y1="1.5" x2="222.769" y2="151.5"/>
	<text transform="matrix(1 0 0 1 228.0955 151)"><tspan x="0" y="0" fill="#DD1166" font-family="'MyriadPro-Regular'" font-size="16">P</tspan><tspan x="8.672" y="0" fill="#DD1166" font-family="'MyriadPro-Regular'" font-size="16">fad</tspan></text>
	
		<line fill="none" stroke="#FFFFFF" stroke-width="0.7" stroke-linecap="round" stroke-linejoin="round" stroke-miterlimit="10" stroke-dasharray="8,5" x1="412.653" y1="1.5" x2="412.653" y2="176.5"/>
	<text transform="matrix(1 0 0 1 417.9788 176)"><tspan x="0" y="0" fill="#DD1166" font-family="'MyriadPro-Regular'" font-size="16">Q</tspan><tspan x="11.232" y="0" fill="#DD1166" font-family="'MyriadPro-Regular'" font-size="16">ue</tspan><tspan x="28.064" y="0" fill="#DD1166" font-family="'MyriadPro-Regular'" font-size="16">r</tspan><tspan x="33.696" y="0" fill="#DD1166" font-family="'MyriadPro-Regular'" font-size="16">y</tspan></text>
	
		<line fill="none" stroke="#FFFFFF" stroke-width="0.7" stroke-linecap="round" stroke-linejoin="round" stroke-miterlimit="10" stroke-dasharray="8,5" x1="598.037" y1="1.5" x2="598.037" y2="201.5"/>
	<text transform="matrix(1 0 0 1 603.3635 201)"><tspan x="0" y="0" fill="#DD1166" font-family="'MyriadPro-Regular'" font-size="16">F</tspan><tspan x="7.536" y="0" fill="#DD1166" font-family="'MyriadPro-Regular'" font-size="16">r</tspan><tspan x="12.688" y="0" fill="#DD1166" font-family="'MyriadPro-Regular'" font-size="16">a</tspan><tspan x="20.4" y="0" fill="#DD1166" font-family="'MyriadPro-Regular'" font-size="16">g</tspan><tspan x="29.264" y="0" fill="#DD1166" font-family="'MyriadPro-Regular'" font-size="16">me</tspan><tspan x="50.623" y="0" fill="#DD1166" font-family="'MyriadPro-Regular'" font-size="16">n</tspan><tspan x="59.439" y="0" fill="#DD1166" font-family="'MyriadPro-Regular'" font-size="16">t</tspan></text>
	<text transform="matrix(1 0 0 1 -63.7205 51)"><tspan x="0" y="0" fill="#DD1166" font-family="'MyriadPro-Regular'" font-size="16">N</tspan><tspan x="10.688" y="0" fill="#DD1166" font-family="'MyriadPro-Regular'" font-size="16">ut</tspan><tspan x="24.8" y="0" fill="#DD1166" font-family="'MyriadPro-Regular'" font-size="16">z</tspan><tspan x="31.552" y="0" fill="#DD1166" font-family="'MyriadPro-Regular'" font-size="16">e</tspan><tspan x="39.567" y="0" fill="#DD1166" font-family="'MyriadPro-Regular'" font-size="16">r</tspan><tspan x="44.847" y="0" fill="#DD1166" font-family="'MyriadPro-Regular'" font-size="16">name</tspan></text>
</g>
</svg>
