<?xml version="1.0" encoding="utf-8"?>
<!-- Generator: Adobe Illustrator 15.0.2, SVG Export Plug-In . SVG Version: 6.00 Build 0)  -->
<!DOCTYPE svg PUBLIC "-//W3C//DTD SVG 1.1//EN" "http://www.w3.org/Graphics/SVG/1.1/DTD/svg11.dtd">
<svg version="1.1" id="Ebene_1" xmlns="http://www.w3.org/2000/svg" xmlns:xlink="http://www.w3.org/1999/xlink" x="0px" y="0px"
	 width="594px" height="202.108px" viewBox="0 0 594 202.108" enable-background="new 0 0 594 202.108" xml:space="preserve">
<path fill="#3EAAD6" d="M0,172V15C0,6.716,6.716,0,15,0h111c8.284,0,15,6.716,15,15v157c0,8.284-6.716,15-15,15H15
	C6.716,187,0,180.284,0,172z"/>
<text transform="matrix(1 0 0 1 19.8223 38.5)" fill="#FFFFFF" font-family="'Frutiger-Bold'" font-size="24">SVG</text>
<text transform="matrix(1 0 0 1 19.8223 90)" fill="#FFFFFF" font-family="'Frutiger-Roman'" font-size="18">Scalable </text>
<text transform="matrix(1 0 0 1 19.8223 109)"><tspan x="0" y="0" fill="#FFFFFF" font-family="'Frutiger-Roman'" font-size="18">V</tspan><tspan x="11.358" y="0" fill="#FFFFFF" font-family="'Frutiger-Roman'" font-size="18">ector </tspan></text>
<text transform="matrix(1 0 0 1 19.8223 128)" fill="#FFFFFF" font-family="'Frutiger-Roman'" font-size="18">Graphics</text>
<path fill="#3EAAD6" d="M151,172V15c0-8.284,6.716-15,15-15h111c8.284,0,15,6.716,15,15v157c0,8.284-6.716,15-15,15H166
	C157.716,187,151,180.284,151,172z"/>
<text transform="matrix(1 0 0 1 170.8223 38.5)" fill="#FFFFFF" font-family="'Frutiger-Bold'" font-size="24">RDF</text>
<text transform="matrix(1 0 0 1 170.8223 90)" fill="#FFFFFF" font-family="'Frutiger-Roman'" font-size="18">Resource </text>
<text transform="matrix(1 0 0 1 170.8223 109)" fill="#FFFFFF" font-family="'Frutiger-Roman'" font-size="18">Description </text>
<text transform="matrix(1 0 0 1 170.8223 128)" fill="#FFFFFF" font-family="'Frutiger-Roman'" font-size="18">Framework</text>
<path fill="#3EAAD6" d="M302,172V15c0-8.284,6.716-15,15-15h111c8.284,0,15,6.716,15,15v157c0,8.284-6.716,15-15,15H317
	C308.716,187,302,180.284,302,172z"/>
<text transform="matrix(1 0 0 1 321.8223 38.5)" fill="#FFFFFF" font-family="'Frutiger-Bold'" font-size="24">HTML</text>
<text transform="matrix(1 0 0 1 321.8223 90)" fill="#FFFFFF" font-family="'Frutiger-Roman'" font-size="18">Hypertext </text>
<text transform="matrix(1 0 0 1 321.8223 109)" fill="#FFFFFF" font-family="'Frutiger-Roman'" font-size="18">Markup </text>
<text transform="matrix(1 0 0 1 321.8223 128)" fill="#FFFFFF" font-family="'Frutiger-Roman'" font-size="18">Language</text>
<path fill="#3EAAD6" d="M453,172V15c0-8.284,6.716-15,15-15h111c8.284,0,15,6.716,15,15v157c0,8.284-6.716,15-15,15H468
	C459.716,187,453,180.284,453,172z"/>
<text transform="matrix(1 0 0 1 472.8223 38.5)" fill="#FFFFFF" font-family="'Frutiger-Bold'" font-size="24">SMIL</text>
<text transform="matrix(1 0 0 1 472.8223 93)" fill="#FFFFFF" font-family="'Frutiger-Roman'" font-size="18">Synchronized </text>
<text transform="matrix(1 0 0 1 472.8223 112)" fill="#FFFFFF" font-family="'Frutiger-Roman'" font-size="18">Multimedia </text>
<text transform="matrix(1 0 0 1 472.8223 131)" fill="#FFFFFF" font-family="'Frutiger-Roman'" font-size="18">Integration </text>
<text transform="matrix(1 0 0 1 472.8223 150)" fill="#FFFFFF" font-family="'Frutiger-Roman'" font-size="18">Language</text>
<text transform="matrix(1 0 0 1 428.2686 199)" fill="#FFFFFF" font-family="'Frutiger-Roman'" font-size="14">Auszeichnungssprachen</text>
</svg>
