<?xml version="1.0" encoding="utf-8"?>
<!-- Generator: Adobe Illustrator 15.0.2, SVG Export Plug-In . SVG Version: 6.00 Build 0)  -->
<!DOCTYPE svg PUBLIC "-//W3C//DTD SVG 1.1//EN" "http://www.w3.org/Graphics/SVG/1.1/DTD/svg11.dtd">
<svg version="1.1" id="Ebene_1" xmlns="http://www.w3.org/2000/svg" xmlns:xlink="http://www.w3.org/1999/xlink" x="0px" y="0px"
	 width="594px" height="84.5px" viewBox="0 0 594 84.5" enable-background="new 0 0 594 84.5" xml:space="preserve">
<path fill="#F2911E" d="M0,56V15C0,6.716,6.716,0,15,0h564c8.283,0,15,6.716,15,15v41c0,8.284-6.717,15-15,15H15
	C6.716,71,0,64.284,0,56z"/>
<text transform="matrix(1 0 0 1 19.822 42.5)" fill="#FFFFFF" font-family="'Frutiger-Bold'" font-size="24">DTD</text>
<polygon fill="#F2911E" points="65.368,69.5 61,69.5 68,83.5 75,69.5 70.632,69.5 "/>
<polygon fill="#F2911E" points="211.368,70.5 207,70.5 214,84.5 221,70.5 216.632,70.5 "/>
<polygon fill="#F2911E" points="364.368,70.5 360,70.5 367,84.5 374,70.5 369.632,70.5 "/>
<polygon fill="#F2911E" points="518.367,70.5 514,70.5 521,84.5 528,70.5 523.632,70.5 "/>
</svg>
