<?xml version="1.0" encoding="utf-8"?>
<!-- Generator: Adobe Illustrator 15.0.2, SVG Export Plug-In . SVG Version: 6.00 Build 0)  -->
<!DOCTYPE svg PUBLIC "-//W3C//DTD SVG 1.1//EN" "http://www.w3.org/Graphics/SVG/1.1/DTD/svg11.dtd">
<svg version="1.1" id="Ebene_1" xmlns="http://www.w3.org/2000/svg" xmlns:xlink="http://www.w3.org/1999/xlink" x="0px" y="0px"
	 width="440px" height="235px" viewBox="0 0 440 235" enable-background="new 0 0 440 235" xml:space="preserve">
<g>
	<defs>
		<rect id="SVGID_1_" width="440" height="235"/>
	</defs>
	<clipPath id="SVGID_2_">
		<use xlink:href="#SVGID_1_"  overflow="visible"/>
	</clipPath>
	<g opacity="0.5" clip-path="url(#SVGID_2_)" enable-background="new    ">
		<g>
			<defs>
				<rect id="SVGID_3_" width="440" height="235"/>
			</defs>
			<clipPath id="SVGID_4_">
				<use xlink:href="#SVGID_3_"  overflow="visible"/>
			</clipPath>
			<g clip-path="url(#SVGID_4_)">
				<defs>
					<rect id="SVGID_5_" width="440" height="235"/>
				</defs>
				<clipPath id="SVGID_6_">
					<use xlink:href="#SVGID_5_"  overflow="visible"/>
				</clipPath>
				<path clip-path="url(#SVGID_6_)" fill="#FFFFFF" d="M3,217V18C3,9.716,9.716,3,18,3h404c8.284,0,15,6.716,15,15v199
					c0,8.284-6.716,15-15,15H18C9.716,232,3,225.284,3,217z"/>
				<path clip-path="url(#SVGID_6_)" fill="none" stroke="#000000" stroke-width="4" stroke-dasharray="4,4" d="M3,217V18
					C3,9.716,9.716,3,18,3h404c8.284,0,15,6.716,15,15v199c0,8.284-6.716,15-15,15H18C9.716,232,3,225.284,3,217z"/>
			</g>
		</g>
	</g>
</g>
<text transform="matrix(1 0 0 1 20.8223 41.5)" font-family="'Frutiger-Bold'" font-size="24">XML</text>
</svg>
